<svg xmlns="http://www.w3.org/2000/svg" width="320" height="240" viewBox="0 0 320 240" id="boop-var4-determined-idle-1" data-mood="determined" data-state="idle" data-variant="1" data-loop-seconds="8" data-repeat-count="indefinite" role="img" aria-labelledby="boop-var4-determined-idle-1-title boop-var4-determined-idle-1-desc" shape-rendering="crispEdges" overflow="hidden"><title id="boop-var4-determined-idle-1-title">Determined · Idle · Quiet blink</title><desc id="boop-var4-determined-idle-1-desc">Silent seamless-loop pixel-art variation. 8 seconds per cycle. Uses the approved V4 face identity.</desc><style>#boop-var4-determined-idle-1 .boop-still{display:none}@media(prefers-reduced-motion:reduce){#boop-var4-determined-idle-1:not([data-motion="on"]) .boop-motion{display:none}#boop-var4-determined-idle-1:not([data-motion="on"]) .boop-still{display:inline}}</style><defs><clipPath id="boop-var4-determined-idle-1-bounds"><rect width="320" height="240"/></clipPath></defs><rect width="320" height="240" fill="#000000"/><g clip-path="url(#boop-var4-determined-idle-1-bounds)"><g class="boop-motion"><g transform="translate(0 0)"><g data-part="face"><g data-part="gaze"><g data-part="eyes"><g><animate attributeName="opacity" values="1;1;0;1;1;1" keyTimes="0;0.005;0.78;0.805;0.995;1" dur="8s" begin="0s" repeatCount="indefinite" calcMode="discrete" fill="freeze"/><path d="M68 80h17v1h1v11h-1v1H68v-1h-1V81h1Z" fill="#F8F7EF"/><path d="M91 80h17v1h1v11h-1v1H91v-1h-1V81h1Z" fill="#F8F7EF"/><path d="M68 97h17v1h1v11h-1v1H68v-1h-1V98h1Z" fill="#F8F7EF"/><path d="M91 97h17v1h1v11h-1v1H91v-1h-1V98h1Z" fill="#F8F7EF"/><path d="M212 80h17v1h1v11h-1v1H212v-1h-1V81h1Z" fill="#F8F7EF"/><path d="M235 80h17v1h1v11h-1v1H235v-1h-1V81h1Z" fill="#F8F7EF"/><path d="M212 97h17v1h1v11h-1v1H212v-1h-1V98h1Z" fill="#F8F7EF"/><path d="M235 97h17v1h1v11h-1v1H235v-1h-1V98h1Z" fill="#F8F7EF"/><g data-part="gentle-brows"><rect x="65" y="68" width="15" height="4" fill="#F8F7EF"/><rect x="80" y="70" width="15" height="4" fill="#F8F7EF"/><rect x="95" y="72" width="14" height="4" fill="#F8F7EF"/><rect x="211" y="72" width="14" height="4" fill="#F8F7EF"/><rect x="225" y="70" width="15" height="4" fill="#F8F7EF"/><rect x="240" y="68" width="15" height="4" fill="#F8F7EF"/></g></g><g opacity="0"><animate attributeName="opacity" values="0;0;1;0;0;0" keyTimes="0;0.005;0.78;0.805;0.995;1" dur="8s" begin="0s" repeatCount="indefinite" calcMode="discrete" fill="freeze"/><path d="M69 99h38v1h1v3h-1v1H69v-1h-1V100h1Z" fill="#F8F7EF"/><path d="M213 99h38v1h1v3h-1v1H213v-1h-1V100h1Z" fill="#F8F7EF"/></g></g></g><path d="M52 124h12v1h1v7h-1v1H52v-1h-1V125h1Z" fill="#F1787D"/><path d="M70 124h12v1h1v7h-1v1H70v-1h-1V125h1Z" fill="#F1787D"/><path d="M238 124h12v1h1v7h-1v1H238v-1h-1V125h1Z" fill="#F1787D"/><path d="M256 124h12v1h1v7h-1v1H256v-1h-1V125h1Z" fill="#F1787D"/><g data-part="mouth"><path d="M144 131h32v1h1v6h-1v1H144v-1h-1V132h1Z" fill="#F8F7EF"/><rect x="152" y="134" width="3" height="5" fill="#000000"/><rect x="164" y="134" width="3" height="5" fill="#000000"/></g></g></g></g><g class="boop-still"><g transform="translate(0 0)"><g data-part="face"><g data-part="gaze"><g data-part="eyes"><g><path d="M68 80h17v1h1v11h-1v1H68v-1h-1V81h1Z" fill="#F8F7EF"/><path d="M91 80h17v1h1v11h-1v1H91v-1h-1V81h1Z" fill="#F8F7EF"/><path d="M68 97h17v1h1v11h-1v1H68v-1h-1V98h1Z" fill="#F8F7EF"/><path d="M91 97h17v1h1v11h-1v1H91v-1h-1V98h1Z" fill="#F8F7EF"/><path d="M212 80h17v1h1v11h-1v1H212v-1h-1V81h1Z" fill="#F8F7EF"/><path d="M235 80h17v1h1v11h-1v1H235v-1h-1V81h1Z" fill="#F8F7EF"/><path d="M212 97h17v1h1v11h-1v1H212v-1h-1V98h1Z" fill="#F8F7EF"/><path d="M235 97h17v1h1v11h-1v1H235v-1h-1V98h1Z" fill="#F8F7EF"/><g data-part="gentle-brows"><rect x="65" y="68" width="15" height="4" fill="#F8F7EF"/><rect x="80" y="70" width="15" height="4" fill="#F8F7EF"/><rect x="95" y="72" width="14" height="4" fill="#F8F7EF"/><rect x="211" y="72" width="14" height="4" fill="#F8F7EF"/><rect x="225" y="70" width="15" height="4" fill="#F8F7EF"/><rect x="240" y="68" width="15" height="4" fill="#F8F7EF"/></g></g><g opacity="0"><path d="M69 99h38v1h1v3h-1v1H69v-1h-1V100h1Z" fill="#F8F7EF"/><path d="M213 99h38v1h1v3h-1v1H213v-1h-1V100h1Z" fill="#F8F7EF"/></g></g></g><path d="M52 124h12v1h1v7h-1v1H52v-1h-1V125h1Z" fill="#F1787D"/><path d="M70 124h12v1h1v7h-1v1H70v-1h-1V125h1Z" fill="#F1787D"/><path d="M238 124h12v1h1v7h-1v1H238v-1h-1V125h1Z" fill="#F1787D"/><path d="M256 124h12v1h1v7h-1v1H256v-1h-1V125h1Z" fill="#F1787D"/><g data-part="mouth"><path d="M144 131h32v1h1v6h-1v1H144v-1h-1V132h1Z" fill="#F8F7EF"/><rect x="152" y="134" width="3" height="5" fill="#000000"/><rect x="164" y="134" width="3" height="5" fill="#000000"/></g></g></g></g></g></svg>
