<svg xmlns="http://www.w3.org/2000/svg" width="320" height="240" viewBox="0 0 320 240" id="boop-var4-proud-working-5" data-mood="proud" data-state="working" data-variant="5" data-loop-seconds="4" data-repeat-count="indefinite" role="img" aria-labelledby="boop-var4-proud-working-5-title boop-var4-proud-working-5-desc" shape-rendering="crispEdges" overflow="hidden"><title id="boop-var4-proud-working-5-title">Proud · Working · One-key virtuoso</title><desc id="boop-var4-proud-working-5-desc">Silent seamless-loop pixel-art variation. 4 seconds per cycle. Uses the approved V4 face identity.</desc><style>#boop-var4-proud-working-5 .boop-still{display:none}@media(prefers-reduced-motion:reduce){#boop-var4-proud-working-5:not([data-motion="on"]) .boop-motion{display:none}#boop-var4-proud-working-5:not([data-motion="on"]) .boop-still{display:inline}}</style><defs><clipPath id="boop-var4-proud-working-5-bounds"><rect width="320" height="240"/></clipPath></defs><rect width="320" height="240" fill="#000000"/><g clip-path="url(#boop-var4-proud-working-5-bounds)"><g class="boop-motion"><g transform="translate(0 0)"><g data-part="face"><animateTransform attributeName="transform" type="translate" values="0 0;0 0;0 -5;3 5;-4 2;0 0;0 0" keyTimes="0;0.01;0.18;0.4;0.66;0.99;1" dur="4s" begin="0s" repeatCount="indefinite" calcMode="discrete" fill="freeze"/><g data-part="gaze"><g data-part="eyes"><g><animate attributeName="opacity" values="1;1;0;1;1;1" keyTimes="0;0.01;0.78;0.805;0.99;1" dur="4s" begin="0s" repeatCount="indefinite" calcMode="discrete" fill="freeze"/><path d="M66 75h19v1h1v13h-1v1H66v-1h-1V76h1Z" fill="#F8F7EF"/><path d="M91 75h19v1h1v13h-1v1H91v-1h-1V76h1Z" fill="#F8F7EF"/><path d="M66 94h19v1h1v13h-1v1H66v-1h-1V95h1Z" fill="#F8F7EF"/><path d="M91 94h19v1h1v13h-1v1H91v-1h-1V95h1Z" fill="#F8F7EF"/><path d="M212 70h17v1h1v16h-1v1H212v-1h-1V71h1Z" fill="#F8F7EF"/><path d="M235 70h17v1h1v16h-1v1H235v-1h-1V71h1Z" fill="#F8F7EF"/><path d="M212 92h17v1h1v16h-1v1H212v-1h-1V93h1Z" fill="#F8F7EF"/><path d="M235 92h17v1h1v16h-1v1H235v-1h-1V93h1Z" fill="#F8F7EF"/><rect x="65" y="75" width="46" height="13" fill="#000000"/><rect x="211" y="70" width="42" height="6" fill="#000000"/><rect x="63" y="69" width="30" height="4" fill="#F8F7EF"/><rect x="221" y="61" width="30" height="4" fill="#F8F7EF"/></g><g opacity="0"><animate attributeName="opacity" values="0;0;1;0;0;0" keyTimes="0;0.01;0.78;0.805;0.99;1" dur="4s" begin="0s" repeatCount="indefinite" calcMode="discrete" fill="freeze"/><path d="M69 99h38v1h1v3h-1v1H69v-1h-1V100h1Z" fill="#F8F7EF"/><path d="M213 99h38v1h1v3h-1v1H213v-1h-1V100h1Z" fill="#F8F7EF"/></g></g></g><path d="M52 124h12v1h1v7h-1v1H52v-1h-1V125h1Z" fill="#F1787D"/><path d="M70 124h12v1h1v7h-1v1H70v-1h-1V125h1Z" fill="#F1787D"/><path d="M238 124h12v1h1v7h-1v1H238v-1h-1V125h1Z" fill="#F1787D"/><path d="M256 124h12v1h1v7h-1v1H256v-1h-1V125h1Z" fill="#F1787D"/><g data-part="mouth"><path d="M137 132h30v-5h8v-5h8v11h-7v5h-7v5h-32Z" fill="#F8F7EF"/><rect x="140" y="132" width="23" height="3" fill="#000000"/></g><g transform="translate(277 106)"><g><animate attributeName="opacity" values="1;1;1;0;1;1" keyTimes="0;0.01;0.3;0.5;0.99;1" dur="4s" begin="0s" repeatCount="indefinite" calcMode="discrete" fill="freeze"/><g transform="translate(0 0)"><path d="M6 0h4v4h2v2h4v4h-4v2h-2v4h-4v-4h-2v-2H0V6h4v-2h2Z" fill="#F8F7EF"/></g></g></g></g></g><g data-part="working-prop" data-action="one-key"><g data-part="story-one-key"><g opacity="1" data-frame="0"><animate attributeName="opacity" values="1;1;0;0;0;0;0;1;1" keyTimes="0;0.01;0.14;0.28;0.42;0.56;0.94;0.99;1" dur="4s" begin="0s" repeatCount="indefinite" calcMode="discrete" fill="freeze"/><rect x="111" y="216" width="98" height="8" fill="#757568"/><g transform="translate(131 166)"><rect x="0" y="0" width="48" height="48" fill="#B6B6A5"/><rect x="0" y="0" width="42" height="42" fill="#F8F7EF"/><rect x="12" y="12" width="6" height="6" fill="#302338"/><rect x="18" y="12" width="6" height="6" fill="#302338"/><rect x="24" y="12" width="6" height="6" fill="#302338"/><rect x="12" y="18" width="6" height="6" fill="#302338"/><rect x="18" y="18" width="6" height="6" fill="#302338"/><rect x="12" y="24" width="6" height="6" fill="#302338"/><rect x="18" y="24" width="6" height="6" fill="#302338"/><rect x="24" y="24" width="6" height="6" fill="#302338"/></g><rect x="101" y="221" width="118" height="5" fill="#F4BC50"/></g><g opacity="0" data-frame="1"><animate attributeName="opacity" values="0;0;1;0;0;0;0;0;0" keyTimes="0;0.01;0.14;0.28;0.42;0.56;0.94;0.99;1" dur="4s" begin="0s" repeatCount="indefinite" calcMode="discrete" fill="freeze"/><rect x="111" y="216" width="98" height="8" fill="#757568"/><g transform="translate(131 166)"><rect x="0" y="0" width="48" height="48" fill="#B6B6A5"/><rect x="0" y="0" width="42" height="42" fill="#F8F7EF"/><rect x="12" y="12" width="6" height="6" fill="#302338"/><rect x="18" y="12" width="6" height="6" fill="#302338"/><rect x="24" y="12" width="6" height="6" fill="#302338"/><rect x="12" y="18" width="6" height="6" fill="#302338"/><rect x="18" y="18" width="6" height="6" fill="#302338"/><rect x="12" y="24" width="6" height="6" fill="#302338"/><rect x="18" y="24" width="6" height="6" fill="#302338"/><rect x="24" y="24" width="6" height="6" fill="#302338"/></g><rect x="101" y="221" width="118" height="5" fill="#F4BC50"/></g><g opacity="0" data-frame="2"><animate attributeName="opacity" values="0;0;0;1;0;0;0;0;0" keyTimes="0;0.01;0.14;0.28;0.42;0.56;0.94;0.99;1" dur="4s" begin="0s" repeatCount="indefinite" calcMode="discrete" fill="freeze"/><rect x="111" y="216" width="98" height="8" fill="#757568"/><g transform="translate(131 175)"><rect x="0" y="0" width="48" height="48" fill="#B6B6A5"/><rect x="0" y="0" width="42" height="42" fill="#F8F7EF"/><rect x="12" y="12" width="6" height="6" fill="#302338"/><rect x="18" y="12" width="6" height="6" fill="#302338"/><rect x="24" y="12" width="6" height="6" fill="#302338"/><rect x="12" y="18" width="6" height="6" fill="#302338"/><rect x="18" y="18" width="6" height="6" fill="#302338"/><rect x="12" y="24" width="6" height="6" fill="#302338"/><rect x="18" y="24" width="6" height="6" fill="#302338"/><rect x="24" y="24" width="6" height="6" fill="#302338"/></g><rect x="101" y="221" width="118" height="5" fill="#F4BC50"/><rect x="124" y="196" width="4" height="4" fill="#F4BC50"/><rect x="190" y="196" width="3" height="3" fill="#F4BC50"/><rect x="157" y="171" width="4" height="4" fill="#F4BC50"/><rect x="157" y="221" width="3" height="3" fill="#F4BC50"/><rect x="124" y="171" width="4" height="4" fill="#F4BC50"/><rect x="190" y="171" width="3" height="3" fill="#F4BC50"/></g><g opacity="0" data-frame="3"><animate attributeName="opacity" values="0;0;0;0;1;0;0;0;0" keyTimes="0;0.01;0.14;0.28;0.42;0.56;0.94;0.99;1" dur="4s" begin="0s" repeatCount="indefinite" calcMode="discrete" fill="freeze"/><rect x="111" y="216" width="98" height="8" fill="#757568"/><g transform="translate(131 166)"><rect x="0" y="0" width="48" height="48" fill="#B6B6A5"/><rect x="0" y="0" width="42" height="42" fill="#F8F7EF"/><rect x="12" y="12" width="6" height="6" fill="#302338"/><rect x="18" y="12" width="6" height="6" fill="#302338"/><rect x="24" y="12" width="6" height="6" fill="#302338"/><rect x="12" y="18" width="6" height="6" fill="#302338"/><rect x="18" y="18" width="6" height="6" fill="#302338"/><rect x="12" y="24" width="6" height="6" fill="#302338"/><rect x="18" y="24" width="6" height="6" fill="#302338"/><rect x="24" y="24" width="6" height="6" fill="#302338"/></g><rect x="101" y="221" width="118" height="5" fill="#F4BC50"/></g><g opacity="0" data-frame="4"><animate attributeName="opacity" values="0;0;0;0;0;1;0;0;0" keyTimes="0;0.01;0.14;0.28;0.42;0.56;0.94;0.99;1" dur="4s" begin="0s" repeatCount="indefinite" calcMode="discrete" fill="freeze"/><rect x="111" y="216" width="98" height="8" fill="#757568"/><g transform="translate(131 166)"><rect x="0" y="0" width="48" height="48" fill="#B6B6A5"/><rect x="0" y="0" width="42" height="42" fill="#F8F7EF"/><rect x="12" y="12" width="6" height="6" fill="#302338"/><rect x="18" y="12" width="6" height="6" fill="#302338"/><rect x="24" y="12" width="6" height="6" fill="#302338"/><rect x="12" y="18" width="6" height="6" fill="#302338"/><rect x="18" y="18" width="6" height="6" fill="#302338"/><rect x="12" y="24" width="6" height="6" fill="#302338"/><rect x="18" y="24" width="6" height="6" fill="#302338"/><rect x="24" y="24" width="6" height="6" fill="#302338"/></g><rect x="101" y="221" width="118" height="5" fill="#F4BC50"/></g><g opacity="0" data-frame="5"><animate attributeName="opacity" values="0;0;0;0;0;0;1;0;0" keyTimes="0;0.01;0.14;0.28;0.42;0.56;0.94;0.99;1" dur="4s" begin="0s" repeatCount="indefinite" calcMode="discrete" fill="freeze"/><rect x="111" y="216" width="98" height="8" fill="#757568"/><g transform="translate(131 166)"><rect x="0" y="0" width="48" height="48" fill="#B6B6A5"/><rect x="0" y="0" width="42" height="42" fill="#F8F7EF"/><rect x="12" y="12" width="6" height="6" fill="#302338"/><rect x="18" y="12" width="6" height="6" fill="#302338"/><rect x="24" y="12" width="6" height="6" fill="#302338"/><rect x="12" y="18" width="6" height="6" fill="#302338"/><rect x="18" y="18" width="6" height="6" fill="#302338"/><rect x="12" y="24" width="6" height="6" fill="#302338"/><rect x="18" y="24" width="6" height="6" fill="#302338"/><rect x="24" y="24" width="6" height="6" fill="#302338"/></g><rect x="101" y="221" width="118" height="5" fill="#F4BC50"/></g></g><g data-part="working-activity"><animate attributeName="opacity" values="1;1;0;1;1;0;1;1;0;1;1;1" keyTimes="0;0.01;0.08333333;0.16666667;0.33333333;0.41666667;0.5;0.66666667;0.75;0.83333333;0.99;1" dur="4s" begin="0s" repeatCount="indefinite" calcMode="discrete" fill="freeze"/><rect x="152" y="234" width="3" height="3" fill="#71B7F5"/><rect x="158" y="234" width="3" height="3" fill="#B6B6A5"/><rect x="164" y="234" width="3" height="3" fill="#71B7F5"/></g></g></g><g class="boop-still"><g transform="translate(0 0)"><g data-part="face"><g data-part="gaze"><g data-part="eyes"><g><path d="M66 75h19v1h1v13h-1v1H66v-1h-1V76h1Z" fill="#F8F7EF"/><path d="M91 75h19v1h1v13h-1v1H91v-1h-1V76h1Z" fill="#F8F7EF"/><path d="M66 94h19v1h1v13h-1v1H66v-1h-1V95h1Z" fill="#F8F7EF"/><path d="M91 94h19v1h1v13h-1v1H91v-1h-1V95h1Z" fill="#F8F7EF"/><path d="M212 70h17v1h1v16h-1v1H212v-1h-1V71h1Z" fill="#F8F7EF"/><path d="M235 70h17v1h1v16h-1v1H235v-1h-1V71h1Z" fill="#F8F7EF"/><path d="M212 92h17v1h1v16h-1v1H212v-1h-1V93h1Z" fill="#F8F7EF"/><path d="M235 92h17v1h1v16h-1v1H235v-1h-1V93h1Z" fill="#F8F7EF"/><rect x="65" y="75" width="46" height="13" fill="#000000"/><rect x="211" y="70" width="42" height="6" fill="#000000"/><rect x="63" y="69" width="30" height="4" fill="#F8F7EF"/><rect x="221" y="61" width="30" height="4" fill="#F8F7EF"/></g><g opacity="0"><path d="M69 99h38v1h1v3h-1v1H69v-1h-1V100h1Z" fill="#F8F7EF"/><path d="M213 99h38v1h1v3h-1v1H213v-1h-1V100h1Z" fill="#F8F7EF"/></g></g></g><path d="M52 124h12v1h1v7h-1v1H52v-1h-1V125h1Z" fill="#F1787D"/><path d="M70 124h12v1h1v7h-1v1H70v-1h-1V125h1Z" fill="#F1787D"/><path d="M238 124h12v1h1v7h-1v1H238v-1h-1V125h1Z" fill="#F1787D"/><path d="M256 124h12v1h1v7h-1v1H256v-1h-1V125h1Z" fill="#F1787D"/><g data-part="mouth"><path d="M137 132h30v-5h8v-5h8v11h-7v5h-7v5h-32Z" fill="#F8F7EF"/><rect x="140" y="132" width="23" height="3" fill="#000000"/></g><g transform="translate(277 106)"><g><g transform="translate(0 0)"><path d="M6 0h4v4h2v2h4v4h-4v2h-2v4h-4v-4h-2v-2H0V6h4v-2h2Z" fill="#F8F7EF"/></g></g></g></g></g><g data-part="working-prop" data-action="one-key"><g data-part="story-one-key"><rect x="111" y="216" width="98" height="8" fill="#757568"/><g transform="translate(131 175)"><rect x="0" y="0" width="48" height="48" fill="#B6B6A5"/><rect x="0" y="0" width="42" height="42" fill="#F8F7EF"/><rect x="12" y="12" width="6" height="6" fill="#302338"/><rect x="18" y="12" width="6" height="6" fill="#302338"/><rect x="24" y="12" width="6" height="6" fill="#302338"/><rect x="12" y="18" width="6" height="6" fill="#302338"/><rect x="18" y="18" width="6" height="6" fill="#302338"/><rect x="12" y="24" width="6" height="6" fill="#302338"/><rect x="18" y="24" width="6" height="6" fill="#302338"/><rect x="24" y="24" width="6" height="6" fill="#302338"/></g><rect x="101" y="221" width="118" height="5" fill="#F4BC50"/><rect x="124" y="196" width="4" height="4" fill="#F4BC50"/><rect x="190" y="196" width="3" height="3" fill="#F4BC50"/><rect x="157" y="171" width="4" height="4" fill="#F4BC50"/><rect x="157" y="221" width="3" height="3" fill="#F4BC50"/><rect x="124" y="171" width="4" height="4" fill="#F4BC50"/><rect x="190" y="171" width="3" height="3" fill="#F4BC50"/></g><g data-part="working-activity"><rect x="152" y="234" width="3" height="3" fill="#71B7F5"/><rect x="158" y="234" width="3" height="3" fill="#B6B6A5"/><rect x="164" y="234" width="3" height="3" fill="#71B7F5"/></g></g></g></g></svg>
