<svg xmlns="http://www.w3.org/2000/svg" width="320" height="240" viewBox="0 0 320 240" id="boop-alert-determined-1" data-mood="determined" data-state="needs_you" data-variant="1" data-loop-seconds="6" data-text-top="192" role="img" aria-labelledby="boop-alert-determined-1-title boop-alert-determined-1-desc" shape-rendering="crispEdges" overflow="hidden"><title id="boop-alert-determined-1-title">Determined · Steady two-paw request</title><desc id="boop-alert-determined-1-desc">Two simple soft pads press in lockstep: three firm, even beats. Boop uses steady, firm gestures, with matching face recoil and material-specific contact sounds. Props and soft paws use large filled pixel surfaces, without cursor marks or detailed hands. The signature ding reveals a large request signal reduced to 80 percent size. The bottom 48 pixels remain clear for text. It reveals Boop again and stays visibly pending. No approval or completion is implied.</desc><defs><clipPath id="boop-alert-determined-1-art-area" clipPathUnits="userSpaceOnUse"><rect width="320" height="192"/></clipPath></defs><style>#boop-alert-determined-1 .alert-still{display:none}@media(prefers-reduced-motion:reduce){#boop-alert-determined-1 .alert-motion{display:none}#boop-alert-determined-1 .alert-still{display:inline}}</style><rect width="320" height="240" fill="#000000"/><g data-part="notification-stage" clip-path="url(#boop-alert-determined-1-art-area)"><g class="alert-motion"><g transform="translate(0 24)"><g data-part="face"><animateTransform attributeName="transform" type="translate" values="0 0;0 0;-1 -1;-2 -2;-2 3;1 -1;0 0;0 0;1 -1;2 -2;2 3;-1 -1;0 0;0 0;1 -1;2 -2;2 3;-1 -1;0 0;0 0;0 0;0 0;0 0;0 0;0 0;0 0;0 0" keyTimes="0;0.00666667;0.02666667;0.04133333;0.05333333;0.06213333;0.0724;0.08266667;0.0896;0.09898667;0.10666667;0.11546667;0.12573333;0.136;0.14293333;0.15232;0.16;0.169;0.1795;0.19;0.22;0.26;0.495;0.525;0.555;0.99333333;1" dur="6s" begin="0s" repeatCount="indefinite" calcMode="discrete" fill="freeze"/><g data-part="gaze"><g data-part="eyes"><g><animate attributeName="opacity" values="1;1;0;1;1;1" keyTimes="0;0.00666667;0.78;0.805;0.99333333;1" dur="6s" begin="0s" repeatCount="indefinite" calcMode="discrete" fill="freeze"/><path d="M68 80h17v1h1v11h-1v1H68v-1h-1V81h1Z" fill="#F8F7EF"/><path d="M91 80h17v1h1v11h-1v1H91v-1h-1V81h1Z" fill="#F8F7EF"/><path d="M68 97h17v1h1v11h-1v1H68v-1h-1V98h1Z" fill="#F8F7EF"/><path d="M91 97h17v1h1v11h-1v1H91v-1h-1V98h1Z" fill="#F8F7EF"/><path d="M212 80h17v1h1v11h-1v1H212v-1h-1V81h1Z" fill="#F8F7EF"/><path d="M235 80h17v1h1v11h-1v1H235v-1h-1V81h1Z" fill="#F8F7EF"/><path d="M212 97h17v1h1v11h-1v1H212v-1h-1V98h1Z" fill="#F8F7EF"/><path d="M235 97h17v1h1v11h-1v1H235v-1h-1V98h1Z" fill="#F8F7EF"/><g data-part="gentle-brows"><rect x="65" y="68" width="15" height="4" fill="#F8F7EF"/><rect x="80" y="70" width="15" height="4" fill="#F8F7EF"/><rect x="95" y="72" width="14" height="4" fill="#F8F7EF"/><rect x="211" y="72" width="14" height="4" fill="#F8F7EF"/><rect x="225" y="70" width="15" height="4" fill="#F8F7EF"/><rect x="240" y="68" width="15" height="4" fill="#F8F7EF"/></g></g><g opacity="0"><animate attributeName="opacity" values="0;0;1;0;0;0" keyTimes="0;0.00666667;0.78;0.805;0.99333333;1" dur="6s" begin="0s" repeatCount="indefinite" calcMode="discrete" fill="freeze"/><path d="M69 99h38v1h1v3h-1v1H69v-1h-1V100h1Z" fill="#F8F7EF"/><path d="M213 99h38v1h1v3h-1v1H213v-1h-1V100h1Z" fill="#F8F7EF"/></g></g></g><path d="M52 124h12v1h1v7h-1v1H52v-1h-1V125h1Z" fill="#F1787D"/><path d="M70 124h12v1h1v7h-1v1H70v-1h-1V125h1Z" fill="#F1787D"/><path d="M238 124h12v1h1v7h-1v1H238v-1h-1V125h1Z" fill="#F1787D"/><path d="M256 124h12v1h1v7h-1v1H256v-1h-1V125h1Z" fill="#F1787D"/><g data-part="mouth"><path d="M144 131h32v1h1v6h-1v1H144v-1h-1V132h1Z" fill="#F8F7EF"/><rect x="152" y="134" width="3" height="5" fill="#000000"/><rect x="164" y="134" width="3" height="5" fill="#000000"/></g></g></g><g data-part="pending-request"><rect x="20" y="12" width="280" height="32" fill="#352915"/><rect x="20" y="40" width="280" height="4" fill="#F4BC50"/><rect x="32" y="17" width="7" height="11" fill="#F4BC50"/><rect x="32" y="40" width="7" height="5" fill="#F4BC50"/><rect x="137" y="24" width="8" height="8" fill="#F4BC50"/><rect x="154" y="24" width="8" height="8" fill="#F4BC50"/><rect x="171" y="24" width="8" height="8" fill="#F4BC50"/><rect x="271" y="21" width="12" height="12" fill="#F4BC50"/></g><g data-part="request-alert"><g opacity="1" data-pose="home"><animate attributeName="opacity" values="1;1;0;0;0;0;0;0;0;0;0;0;0;0;0;0;0;0;0;0;0;0;0;0;1;1;1" keyTimes="0;0.00666667;0.02666667;0.04133333;0.05333333;0.06213333;0.0724;0.08266667;0.0896;0.09898667;0.10666667;0.11546667;0.12573333;0.136;0.14293333;0.15232;0.16;0.169;0.1795;0.19;0.22;0.26;0.495;0.525;0.555;0.99333333;1" dur="6s" begin="0s" repeatCount="indefinite" calcMode="discrete" fill="freeze"/></g><g opacity="0" data-pose="prepare-0"><animate attributeName="opacity" values="0;0;1;0;0;0;0;0;0;0;0;0;0;0;0;0;0;0;0;0;0;0;0;0;0;0;0" keyTimes="0;0.00666667;0.02666667;0.04133333;0.05333333;0.06213333;0.0724;0.08266667;0.0896;0.09898667;0.10666667;0.11546667;0.12573333;0.136;0.14293333;0.15232;0.16;0.169;0.1795;0.19;0.22;0.26;0.495;0.525;0.555;0.99333333;1" dur="6s" begin="0s" repeatCount="indefinite" calcMode="discrete" fill="freeze"/><g data-part="request-performance" data-kind="palms" data-stage="-2" data-target-x="136" data-target-y="166"><g data-part="tap-surface" data-cell="8" opacity="0.92"><g transform="translate(68 138)"><rect x="8" y="0" width="40" height="24" fill="#F8F7EF"/><rect x="0" y="8" width="56" height="8" fill="#F8F7EF"/></g></g><g data-part="tap-surface" data-cell="8" opacity="0.92"><g transform="translate(148 138)"><rect x="8" y="0" width="40" height="24" fill="#F8F7EF"/><rect x="0" y="8" width="56" height="8" fill="#F8F7EF"/></g></g></g></g><g opacity="0" data-pose="swing-0"><animate attributeName="opacity" values="0;0;0;1;0;0;0;0;0;0;0;0;0;0;0;0;0;0;0;0;0;0;0;0;0;0;0" keyTimes="0;0.00666667;0.02666667;0.04133333;0.05333333;0.06213333;0.0724;0.08266667;0.0896;0.09898667;0.10666667;0.11546667;0.12573333;0.136;0.14293333;0.15232;0.16;0.169;0.1795;0.19;0.22;0.26;0.495;0.525;0.555;0.99333333;1" dur="6s" begin="0s" repeatCount="indefinite" calcMode="discrete" fill="freeze"/><g data-part="request-performance" data-kind="palms" data-stage="-1" data-target-x="136" data-target-y="166"><g data-part="tap-surface" data-cell="8" opacity="0.92"><g transform="translate(68 138)"><rect x="8" y="0" width="40" height="24" fill="#F8F7EF"/><rect x="0" y="8" width="56" height="8" fill="#F8F7EF"/></g></g><g data-part="tap-surface" data-cell="8" opacity="0.92"><g transform="translate(148 138)"><rect x="8" y="0" width="40" height="24" fill="#F8F7EF"/><rect x="0" y="8" width="56" height="8" fill="#F8F7EF"/></g></g></g></g><g opacity="0" data-pose="knock-0"><animate attributeName="opacity" values="0;0;0;0;1;0;0;0;0;0;0;0;0;0;0;0;0;0;0;0;0;0;0;0;0;0;0" keyTimes="0;0.00666667;0.02666667;0.04133333;0.05333333;0.06213333;0.0724;0.08266667;0.0896;0.09898667;0.10666667;0.11546667;0.12573333;0.136;0.14293333;0.15232;0.16;0.169;0.1795;0.19;0.22;0.26;0.495;0.525;0.555;0.99333333;1" dur="6s" begin="0s" repeatCount="indefinite" calcMode="discrete" fill="freeze"/><g data-part="request-performance" data-kind="palms" data-stage="0" data-target-x="136" data-target-y="166"><g data-part="tap-surface" data-cell="8" opacity="0.92"><g transform="translate(68 154)"><rect x="8" y="0" width="40" height="24" fill="#F8F7EF"/><rect x="0" y="8" width="56" height="8" fill="#F8F7EF"/></g></g><g data-part="tap-surface" data-cell="8" opacity="0.92"><g transform="translate(148 154)"><rect x="8" y="0" width="40" height="24" fill="#F8F7EF"/><rect x="0" y="8" width="56" height="8" fill="#F8F7EF"/></g></g></g></g><g opacity="0" data-pose="ripple-0"><animate attributeName="opacity" values="0;0;0;0;0;1;0;0;0;0;0;0;0;0;0;0;0;0;0;0;0;0;0;0;0;0;0" keyTimes="0;0.00666667;0.02666667;0.04133333;0.05333333;0.06213333;0.0724;0.08266667;0.0896;0.09898667;0.10666667;0.11546667;0.12573333;0.136;0.14293333;0.15232;0.16;0.169;0.1795;0.19;0.22;0.26;0.495;0.525;0.555;0.99333333;1" dur="6s" begin="0s" repeatCount="indefinite" calcMode="discrete" fill="freeze"/><g data-part="request-performance" data-kind="palms" data-stage="1" data-target-x="136" data-target-y="166"><g data-part="tap-surface" data-cell="8" opacity="0.5"><g transform="translate(68 146)"><rect x="8" y="0" width="40" height="32" fill="#F8F7EF"/><rect x="0" y="8" width="56" height="16" fill="#F8F7EF"/></g></g><g data-part="tap-surface" data-cell="8" opacity="0.5"><g transform="translate(148 146)"><rect x="8" y="0" width="40" height="32" fill="#F8F7EF"/><rect x="0" y="8" width="56" height="16" fill="#F8F7EF"/></g></g></g></g><g opacity="0" data-pose="settle-0"><animate attributeName="opacity" values="0;0;0;0;0;0;1;0;0;0;0;0;0;0;0;0;0;0;0;0;0;0;0;0;0;0;0" keyTimes="0;0.00666667;0.02666667;0.04133333;0.05333333;0.06213333;0.0724;0.08266667;0.0896;0.09898667;0.10666667;0.11546667;0.12573333;0.136;0.14293333;0.15232;0.16;0.169;0.1795;0.19;0.22;0.26;0.495;0.525;0.555;0.99333333;1" dur="6s" begin="0s" repeatCount="indefinite" calcMode="discrete" fill="freeze"/><g data-part="request-performance" data-kind="palms" data-stage="2" data-target-x="136" data-target-y="166" opacity=".55"><g data-part="tap-surface" data-cell="8" opacity="0.22"><g transform="translate(72 150)"><rect x="8" y="0" width="32" height="32" fill="#F8F7EF"/><rect x="0" y="8" width="48" height="16" fill="#F8F7EF"/></g></g><g data-part="tap-surface" data-cell="8" opacity="0.22"><g transform="translate(152 150)"><rect x="8" y="0" width="32" height="32" fill="#F8F7EF"/><rect x="0" y="8" width="48" height="16" fill="#F8F7EF"/></g></g></g></g><g opacity="0" data-pose="pause"><animate attributeName="opacity" values="0;0;0;0;0;0;0;1;0;0;0;0;0;1;0;0;0;0;0;1;0;0;0;0;0;0;0" keyTimes="0;0.00666667;0.02666667;0.04133333;0.05333333;0.06213333;0.0724;0.08266667;0.0896;0.09898667;0.10666667;0.11546667;0.12573333;0.136;0.14293333;0.15232;0.16;0.169;0.1795;0.19;0.22;0.26;0.495;0.525;0.555;0.99333333;1" dur="6s" begin="0s" repeatCount="indefinite" calcMode="discrete" fill="freeze"/></g><g opacity="0" data-pose="prepare-1"><animate attributeName="opacity" values="0;0;0;0;0;0;0;0;1;0;0;0;0;0;0;0;0;0;0;0;0;0;0;0;0;0;0" keyTimes="0;0.00666667;0.02666667;0.04133333;0.05333333;0.06213333;0.0724;0.08266667;0.0896;0.09898667;0.10666667;0.11546667;0.12573333;0.136;0.14293333;0.15232;0.16;0.169;0.1795;0.19;0.22;0.26;0.495;0.525;0.555;0.99333333;1" dur="6s" begin="0s" repeatCount="indefinite" calcMode="discrete" fill="freeze"/><g data-part="request-performance" data-kind="palms" data-stage="-2" data-target-x="160" data-target-y="166"><g data-part="tap-surface" data-cell="8" opacity="0.92"><g transform="translate(79 138)"><rect x="8" y="0" width="40" height="24" fill="#F8F7EF"/><rect x="0" y="8" width="56" height="8" fill="#F8F7EF"/></g></g><g data-part="tap-surface" data-cell="8" opacity="0.92"><g transform="translate(159 138)"><rect x="8" y="0" width="40" height="24" fill="#F8F7EF"/><rect x="0" y="8" width="56" height="8" fill="#F8F7EF"/></g></g></g></g><g opacity="0" data-pose="swing-1"><animate attributeName="opacity" values="0;0;0;0;0;0;0;0;0;1;0;0;0;0;0;0;0;0;0;0;0;0;0;0;0;0;0" keyTimes="0;0.00666667;0.02666667;0.04133333;0.05333333;0.06213333;0.0724;0.08266667;0.0896;0.09898667;0.10666667;0.11546667;0.12573333;0.136;0.14293333;0.15232;0.16;0.169;0.1795;0.19;0.22;0.26;0.495;0.525;0.555;0.99333333;1" dur="6s" begin="0s" repeatCount="indefinite" calcMode="discrete" fill="freeze"/><g data-part="request-performance" data-kind="palms" data-stage="-1" data-target-x="160" data-target-y="166"><g data-part="tap-surface" data-cell="8" opacity="0.92"><g transform="translate(87 138)"><rect x="8" y="0" width="40" height="24" fill="#F8F7EF"/><rect x="0" y="8" width="56" height="8" fill="#F8F7EF"/></g></g><g data-part="tap-surface" data-cell="8" opacity="0.92"><g transform="translate(167 138)"><rect x="8" y="0" width="40" height="24" fill="#F8F7EF"/><rect x="0" y="8" width="56" height="8" fill="#F8F7EF"/></g></g></g></g><g opacity="0" data-pose="knock-1"><animate attributeName="opacity" values="0;0;0;0;0;0;0;0;0;0;1;0;0;0;0;0;0;0;0;0;0;0;0;0;0;0;0" keyTimes="0;0.00666667;0.02666667;0.04133333;0.05333333;0.06213333;0.0724;0.08266667;0.0896;0.09898667;0.10666667;0.11546667;0.12573333;0.136;0.14293333;0.15232;0.16;0.169;0.1795;0.19;0.22;0.26;0.495;0.525;0.555;0.99333333;1" dur="6s" begin="0s" repeatCount="indefinite" calcMode="discrete" fill="freeze"/><g data-part="request-performance" data-kind="palms" data-stage="0" data-target-x="160" data-target-y="166"><g data-part="tap-surface" data-cell="8" opacity="0.92"><g transform="translate(92 154)"><rect x="8" y="0" width="40" height="24" fill="#F8F7EF"/><rect x="0" y="8" width="56" height="8" fill="#F8F7EF"/></g></g><g data-part="tap-surface" data-cell="8" opacity="0.92"><g transform="translate(172 154)"><rect x="8" y="0" width="40" height="24" fill="#F8F7EF"/><rect x="0" y="8" width="56" height="8" fill="#F8F7EF"/></g></g></g></g><g opacity="0" data-pose="ripple-1"><animate attributeName="opacity" values="0;0;0;0;0;0;0;0;0;0;0;1;0;0;0;0;0;0;0;0;0;0;0;0;0;0;0" keyTimes="0;0.00666667;0.02666667;0.04133333;0.05333333;0.06213333;0.0724;0.08266667;0.0896;0.09898667;0.10666667;0.11546667;0.12573333;0.136;0.14293333;0.15232;0.16;0.169;0.1795;0.19;0.22;0.26;0.495;0.525;0.555;0.99333333;1" dur="6s" begin="0s" repeatCount="indefinite" calcMode="discrete" fill="freeze"/><g data-part="request-performance" data-kind="palms" data-stage="1" data-target-x="160" data-target-y="166"><g data-part="tap-surface" data-cell="8" opacity="0.5"><g transform="translate(92 146)"><rect x="8" y="0" width="40" height="32" fill="#F8F7EF"/><rect x="0" y="8" width="56" height="16" fill="#F8F7EF"/></g></g><g data-part="tap-surface" data-cell="8" opacity="0.5"><g transform="translate(172 146)"><rect x="8" y="0" width="40" height="32" fill="#F8F7EF"/><rect x="0" y="8" width="56" height="16" fill="#F8F7EF"/></g></g></g></g><g opacity="0" data-pose="settle-1"><animate attributeName="opacity" values="0;0;0;0;0;0;0;0;0;0;0;0;1;0;0;0;0;0;0;0;0;0;0;0;0;0;0" keyTimes="0;0.00666667;0.02666667;0.04133333;0.05333333;0.06213333;0.0724;0.08266667;0.0896;0.09898667;0.10666667;0.11546667;0.12573333;0.136;0.14293333;0.15232;0.16;0.169;0.1795;0.19;0.22;0.26;0.495;0.525;0.555;0.99333333;1" dur="6s" begin="0s" repeatCount="indefinite" calcMode="discrete" fill="freeze"/><g data-part="request-performance" data-kind="palms" data-stage="2" data-target-x="160" data-target-y="166" opacity=".55"><g data-part="tap-surface" data-cell="8" opacity="0.22"><g transform="translate(96 150)"><rect x="8" y="0" width="32" height="32" fill="#F8F7EF"/><rect x="0" y="8" width="48" height="16" fill="#F8F7EF"/></g></g><g data-part="tap-surface" data-cell="8" opacity="0.22"><g transform="translate(176 150)"><rect x="8" y="0" width="32" height="32" fill="#F8F7EF"/><rect x="0" y="8" width="48" height="16" fill="#F8F7EF"/></g></g></g></g><g opacity="0" data-pose="prepare-2"><animate attributeName="opacity" values="0;0;0;0;0;0;0;0;0;0;0;0;0;0;1;0;0;0;0;0;0;0;0;0;0;0;0" keyTimes="0;0.00666667;0.02666667;0.04133333;0.05333333;0.06213333;0.0724;0.08266667;0.0896;0.09898667;0.10666667;0.11546667;0.12573333;0.136;0.14293333;0.15232;0.16;0.169;0.1795;0.19;0.22;0.26;0.495;0.525;0.555;0.99333333;1" dur="6s" begin="0s" repeatCount="indefinite" calcMode="discrete" fill="freeze"/><g data-part="request-performance" data-kind="palms" data-stage="-2" data-target-x="184" data-target-y="166"><g data-part="tap-surface" data-cell="8" opacity="0.92"><g transform="translate(103 138)"><rect x="8" y="0" width="40" height="24" fill="#F8F7EF"/><rect x="0" y="8" width="56" height="8" fill="#F8F7EF"/></g></g><g data-part="tap-surface" data-cell="8" opacity="0.92"><g transform="translate(183 138)"><rect x="8" y="0" width="40" height="24" fill="#F8F7EF"/><rect x="0" y="8" width="56" height="8" fill="#F8F7EF"/></g></g></g></g><g opacity="0" data-pose="swing-2"><animate attributeName="opacity" values="0;0;0;0;0;0;0;0;0;0;0;0;0;0;0;1;0;0;0;0;0;0;0;0;0;0;0" keyTimes="0;0.00666667;0.02666667;0.04133333;0.05333333;0.06213333;0.0724;0.08266667;0.0896;0.09898667;0.10666667;0.11546667;0.12573333;0.136;0.14293333;0.15232;0.16;0.169;0.1795;0.19;0.22;0.26;0.495;0.525;0.555;0.99333333;1" dur="6s" begin="0s" repeatCount="indefinite" calcMode="discrete" fill="freeze"/><g data-part="request-performance" data-kind="palms" data-stage="-1" data-target-x="184" data-target-y="166"><g data-part="tap-surface" data-cell="8" opacity="0.92"><g transform="translate(111 138)"><rect x="8" y="0" width="40" height="24" fill="#F8F7EF"/><rect x="0" y="8" width="56" height="8" fill="#F8F7EF"/></g></g><g data-part="tap-surface" data-cell="8" opacity="0.92"><g transform="translate(191 138)"><rect x="8" y="0" width="40" height="24" fill="#F8F7EF"/><rect x="0" y="8" width="56" height="8" fill="#F8F7EF"/></g></g></g></g><g opacity="0" data-pose="knock-2"><animate attributeName="opacity" values="0;0;0;0;0;0;0;0;0;0;0;0;0;0;0;0;1;0;0;0;0;0;0;0;0;0;0" keyTimes="0;0.00666667;0.02666667;0.04133333;0.05333333;0.06213333;0.0724;0.08266667;0.0896;0.09898667;0.10666667;0.11546667;0.12573333;0.136;0.14293333;0.15232;0.16;0.169;0.1795;0.19;0.22;0.26;0.495;0.525;0.555;0.99333333;1" dur="6s" begin="0s" repeatCount="indefinite" calcMode="discrete" fill="freeze"/><g data-part="request-performance" data-kind="palms" data-stage="0" data-target-x="184" data-target-y="166"><g data-part="tap-surface" data-cell="8" opacity="0.92"><g transform="translate(116 154)"><rect x="8" y="0" width="40" height="24" fill="#F8F7EF"/><rect x="0" y="8" width="56" height="8" fill="#F8F7EF"/></g></g><g data-part="tap-surface" data-cell="8" opacity="0.92"><g transform="translate(196 154)"><rect x="8" y="0" width="40" height="24" fill="#F8F7EF"/><rect x="0" y="8" width="56" height="8" fill="#F8F7EF"/></g></g></g></g><g opacity="0" data-pose="ripple-2"><animate attributeName="opacity" values="0;0;0;0;0;0;0;0;0;0;0;0;0;0;0;0;0;1;0;0;0;0;0;0;0;0;0" keyTimes="0;0.00666667;0.02666667;0.04133333;0.05333333;0.06213333;0.0724;0.08266667;0.0896;0.09898667;0.10666667;0.11546667;0.12573333;0.136;0.14293333;0.15232;0.16;0.169;0.1795;0.19;0.22;0.26;0.495;0.525;0.555;0.99333333;1" dur="6s" begin="0s" repeatCount="indefinite" calcMode="discrete" fill="freeze"/><g data-part="request-performance" data-kind="palms" data-stage="1" data-target-x="184" data-target-y="166"><g data-part="tap-surface" data-cell="8" opacity="0.5"><g transform="translate(116 146)"><rect x="8" y="0" width="40" height="32" fill="#F8F7EF"/><rect x="0" y="8" width="56" height="16" fill="#F8F7EF"/></g></g><g data-part="tap-surface" data-cell="8" opacity="0.5"><g transform="translate(196 146)"><rect x="8" y="0" width="40" height="32" fill="#F8F7EF"/><rect x="0" y="8" width="56" height="16" fill="#F8F7EF"/></g></g></g></g><g opacity="0" data-pose="settle-2"><animate attributeName="opacity" values="0;0;0;0;0;0;0;0;0;0;0;0;0;0;0;0;0;0;1;0;0;0;0;0;0;0;0" keyTimes="0;0.00666667;0.02666667;0.04133333;0.05333333;0.06213333;0.0724;0.08266667;0.0896;0.09898667;0.10666667;0.11546667;0.12573333;0.136;0.14293333;0.15232;0.16;0.169;0.1795;0.19;0.22;0.26;0.495;0.525;0.555;0.99333333;1" dur="6s" begin="0s" repeatCount="indefinite" calcMode="discrete" fill="freeze"/><g data-part="request-performance" data-kind="palms" data-stage="2" data-target-x="184" data-target-y="166" opacity=".55"><g data-part="tap-surface" data-cell="8" opacity="0.22"><g transform="translate(120 150)"><rect x="8" y="0" width="32" height="32" fill="#F8F7EF"/><rect x="0" y="8" width="48" height="16" fill="#F8F7EF"/></g></g><g data-part="tap-surface" data-cell="8" opacity="0.22"><g transform="translate(200 150)"><rect x="8" y="0" width="32" height="32" fill="#F8F7EF"/><rect x="0" y="8" width="48" height="16" fill="#F8F7EF"/></g></g></g></g><g opacity="0" data-pose="reveal"><animate attributeName="opacity" values="0;0;0;0;0;0;0;0;0;0;0;0;0;0;0;0;0;0;0;0;1;0;0;0;0;0;0" keyTimes="0;0.00666667;0.02666667;0.04133333;0.05333333;0.06213333;0.0724;0.08266667;0.0896;0.09898667;0.10666667;0.11546667;0.12573333;0.136;0.14293333;0.15232;0.16;0.169;0.1795;0.19;0.22;0.26;0.495;0.525;0.555;0.99333333;1" dur="6s" begin="0s" repeatCount="indefinite" calcMode="discrete" fill="freeze"/><g transform="translate(32 0) scale(0.8)" data-part="scaled-alert"><g transform="translate(0 0)"><g data-part="giant-knock-panel"><rect x="26" y="24" width="268" height="192" fill="#F4BC50"/><rect x="36" y="34" width="248" height="172" fill="#352915"/><rect x="47" y="45" width="197" height="149" fill="#584020"/><rect x="56" y="54" width="178" height="7" fill="#F4BC50"/><rect x="56" y="177" width="178" height="7" fill="#F4BC50"/><rect x="237" y="116" width="17" height="20" fill="#F4BC50"/><rect x="120" y="68" width="30" height="62" fill="#F8F7EF"/><rect x="120" y="142" width="30" height="23" fill="#F8F7EF"/><rect x="23" y="28" width="7" height="45" fill="#71B7F5"/><rect x="23" y="176" width="7" height="27" fill="#71B7F5"/><rect x="289" y="28" width="7" height="45" fill="#71B7F5"/><rect x="289" y="176" width="7" height="27" fill="#71B7F5"/></g></g></g></g><g opacity="0" data-pose="ready"><animate attributeName="opacity" values="0;0;0;0;0;0;0;0;0;0;0;0;0;0;0;0;0;0;0;0;0;1;0;0;0;0;0" keyTimes="0;0.00666667;0.02666667;0.04133333;0.05333333;0.06213333;0.0724;0.08266667;0.0896;0.09898667;0.10666667;0.11546667;0.12573333;0.136;0.14293333;0.15232;0.16;0.169;0.1795;0.19;0.22;0.26;0.495;0.525;0.555;0.99333333;1" dur="6s" begin="0s" repeatCount="indefinite" calcMode="discrete" fill="freeze"/><g transform="translate(32 0) scale(0.8)" data-part="scaled-alert"><g transform="translate(0 0)"><g data-part="giant-knock-panel"><rect x="26" y="24" width="268" height="192" fill="#F4BC50"/><rect x="36" y="34" width="248" height="172" fill="#352915"/><rect x="47" y="45" width="197" height="149" fill="#584020"/><rect x="56" y="54" width="178" height="7" fill="#F4BC50"/><rect x="56" y="177" width="178" height="7" fill="#F4BC50"/><rect x="237" y="116" width="17" height="20" fill="#F4BC50"/><rect x="120" y="68" width="30" height="62" fill="#F4BC50"/><rect x="120" y="142" width="30" height="23" fill="#F4BC50"/><rect x="23" y="28" width="7" height="45" fill="#71B7F5"/><rect x="23" y="176" width="7" height="27" fill="#71B7F5"/><rect x="289" y="28" width="7" height="45" fill="#71B7F5"/><rect x="289" y="176" width="7" height="27" fill="#71B7F5"/></g></g></g></g><g opacity="0" data-pose="retreat"><animate attributeName="opacity" values="0;0;0;0;0;0;0;0;0;0;0;0;0;0;0;0;0;0;0;0;0;0;1;0;0;0;0" keyTimes="0;0.00666667;0.02666667;0.04133333;0.05333333;0.06213333;0.0724;0.08266667;0.0896;0.09898667;0.10666667;0.11546667;0.12573333;0.136;0.14293333;0.15232;0.16;0.169;0.1795;0.19;0.22;0.26;0.495;0.525;0.555;0.99333333;1" dur="6s" begin="0s" repeatCount="indefinite" calcMode="discrete" fill="freeze"/><g transform="translate(32 0) scale(0.8)" data-part="scaled-alert"><g transform="translate(0 -48)"><g data-part="giant-knock-panel"><rect x="26" y="24" width="268" height="192" fill="#F4BC50"/><rect x="36" y="34" width="248" height="172" fill="#352915"/><rect x="47" y="45" width="197" height="149" fill="#584020"/><rect x="56" y="54" width="178" height="7" fill="#F4BC50"/><rect x="56" y="177" width="178" height="7" fill="#F4BC50"/><rect x="237" y="116" width="17" height="20" fill="#F4BC50"/><rect x="120" y="68" width="30" height="62" fill="#F4BC50"/><rect x="120" y="142" width="30" height="23" fill="#F4BC50"/><rect x="23" y="28" width="7" height="45" fill="#71B7F5"/><rect x="23" y="176" width="7" height="27" fill="#71B7F5"/><rect x="289" y="28" width="7" height="45" fill="#71B7F5"/><rect x="289" y="176" width="7" height="27" fill="#71B7F5"/></g></g></g></g><g opacity="0" data-pose="leaving"><animate attributeName="opacity" values="0;0;0;0;0;0;0;0;0;0;0;0;0;0;0;0;0;0;0;0;0;0;0;1;0;0;0" keyTimes="0;0.00666667;0.02666667;0.04133333;0.05333333;0.06213333;0.0724;0.08266667;0.0896;0.09898667;0.10666667;0.11546667;0.12573333;0.136;0.14293333;0.15232;0.16;0.169;0.1795;0.19;0.22;0.26;0.495;0.525;0.555;0.99333333;1" dur="6s" begin="0s" repeatCount="indefinite" calcMode="discrete" fill="freeze"/><g transform="translate(32 0) scale(0.8)" data-part="scaled-alert"><g transform="translate(0 -168)"><g data-part="giant-knock-panel"><rect x="26" y="24" width="268" height="192" fill="#F4BC50"/><rect x="36" y="34" width="248" height="172" fill="#352915"/><rect x="47" y="45" width="197" height="149" fill="#584020"/><rect x="56" y="54" width="178" height="7" fill="#F4BC50"/><rect x="56" y="177" width="178" height="7" fill="#F4BC50"/><rect x="237" y="116" width="17" height="20" fill="#F4BC50"/><rect x="120" y="68" width="30" height="62" fill="#F4BC50"/><rect x="120" y="142" width="30" height="23" fill="#F4BC50"/><rect x="23" y="28" width="7" height="45" fill="#71B7F5"/><rect x="23" y="176" width="7" height="27" fill="#71B7F5"/><rect x="289" y="28" width="7" height="45" fill="#71B7F5"/><rect x="289" y="176" width="7" height="27" fill="#71B7F5"/></g></g></g></g></g></g><g class="alert-still"><g transform="translate(32 0) scale(0.8)" data-part="scaled-alert"><g transform="translate(0 46)"><g transform="translate(0 24)"><g data-part="face"><g data-part="gaze"><g data-part="eyes"><g><path d="M68 80h17v1h1v11h-1v1H68v-1h-1V81h1Z" fill="#F8F7EF"/><path d="M91 80h17v1h1v11h-1v1H91v-1h-1V81h1Z" fill="#F8F7EF"/><path d="M68 97h17v1h1v11h-1v1H68v-1h-1V98h1Z" fill="#F8F7EF"/><path d="M91 97h17v1h1v11h-1v1H91v-1h-1V98h1Z" fill="#F8F7EF"/><path d="M212 80h17v1h1v11h-1v1H212v-1h-1V81h1Z" fill="#F8F7EF"/><path d="M235 80h17v1h1v11h-1v1H235v-1h-1V81h1Z" fill="#F8F7EF"/><path d="M212 97h17v1h1v11h-1v1H212v-1h-1V98h1Z" fill="#F8F7EF"/><path d="M235 97h17v1h1v11h-1v1H235v-1h-1V98h1Z" fill="#F8F7EF"/><g data-part="gentle-brows"><rect x="65" y="68" width="15" height="4" fill="#F8F7EF"/><rect x="80" y="70" width="15" height="4" fill="#F8F7EF"/><rect x="95" y="72" width="14" height="4" fill="#F8F7EF"/><rect x="211" y="72" width="14" height="4" fill="#F8F7EF"/><rect x="225" y="70" width="15" height="4" fill="#F8F7EF"/><rect x="240" y="68" width="15" height="4" fill="#F8F7EF"/></g></g><g opacity="0"><path d="M69 99h38v1h1v3h-1v1H69v-1h-1V100h1Z" fill="#F8F7EF"/><path d="M213 99h38v1h1v3h-1v1H213v-1h-1V100h1Z" fill="#F8F7EF"/></g></g></g><path d="M52 124h12v1h1v7h-1v1H52v-1h-1V125h1Z" fill="#F1787D"/><path d="M70 124h12v1h1v7h-1v1H70v-1h-1V125h1Z" fill="#F1787D"/><path d="M238 124h12v1h1v7h-1v1H238v-1h-1V125h1Z" fill="#F1787D"/><path d="M256 124h12v1h1v7h-1v1H256v-1h-1V125h1Z" fill="#F1787D"/><g data-part="mouth"><path d="M144 131h32v1h1v6h-1v1H144v-1h-1V132h1Z" fill="#F8F7EF"/><rect x="152" y="134" width="3" height="5" fill="#000000"/><rect x="164" y="134" width="3" height="5" fill="#000000"/></g></g></g></g><rect x="16" y="10" width="288" height="105" fill="#352915"/><rect x="16" y="10" width="288" height="6" fill="#F4BC50"/><rect x="16" y="109" width="288" height="6" fill="#F4BC50"/><rect x="143" y="24" width="28" height="47" fill="#F4BC50"/><rect x="143" y="83" width="28" height="21" fill="#F4BC50"/><rect x="23" y="28" width="7" height="45" fill="#71B7F5"/><rect x="23" y="176" width="7" height="27" fill="#71B7F5"/><rect x="289" y="28" width="7" height="45" fill="#71B7F5"/><rect x="289" y="176" width="7" height="27" fill="#71B7F5"/></g></g></g><g data-part="reserved-text-zone" data-y="192" data-height="48"/></svg>
