<svg xmlns="http://www.w3.org/2000/svg" width="320" height="240" viewBox="0 0 320 240" id="boop-var4-grumpy-task_complete-2" data-mood="grumpy" data-state="task_complete" data-variant="2" data-loop-seconds="7.2" data-repeat-count="indefinite" role="img" aria-labelledby="boop-var4-grumpy-task_complete-2-title boop-var4-grumpy-task_complete-2-desc" shape-rendering="crispEdges" overflow="hidden"><title id="boop-var4-grumpy-task_complete-2-title">Grumpy · Task Complete · Curtain-call reveal</title><desc id="boop-var4-grumpy-task_complete-2-desc">Silent seamless-loop pixel-art variation. 7.2 seconds per cycle. Uses the approved V4 face identity.</desc><style>#boop-var4-grumpy-task_complete-2 .boop-still{display:none}@media(prefers-reduced-motion:reduce){#boop-var4-grumpy-task_complete-2:not([data-motion="on"]) .boop-motion{display:none}#boop-var4-grumpy-task_complete-2:not([data-motion="on"]) .boop-still{display:inline}}</style><defs><clipPath id="boop-var4-grumpy-task_complete-2-bounds"><rect width="320" height="240"/></clipPath></defs><rect width="320" height="240" fill="#FFD54A"/><g clip-path="url(#boop-var4-grumpy-task_complete-2-bounds)"><g class="boop-motion"><g data-part="victory-background"><rect width="320" height="240" fill="#FFD54A" data-part="victory-color"><animate attributeName="fill" values="#ffd54a;#ffd54a;#ffc94a;#ffb84a;#ffc94a;#ffd54a;#ffd54a" keyTimes="0;0.00555556;0.25;0.5;0.75;0.99444444;1" dur="7.2s" repeatCount="indefinite" calcMode="linear" begin="0s" fill="freeze"/></rect><g transform="translate(0 0)"><g data-part="victory-lane"><animateTransform attributeName="transform" type="translate" values="0 0;0 0;4 0;4 4;0 4;0 0;4 0;4 4;0 4;0 0;4 0;4 4;0 4;0 0;4 0;4 4;0 4;0 0;4 0;4 4;0 4;0 0;0 0" keyTimes="0;0.00555556;0.05;0.1;0.15;0.2;0.25;0.3;0.35;0.4;0.45;0.5;0.55;0.6;0.65;0.7;0.75;0.8;0.85;0.9;0.95;0.99444444;1" dur="7.2s" begin="0s" repeatCount="indefinite" calcMode="discrete" fill="freeze"/><rect x="0" y="0" width="8" height="8" fill="#EEA638"/><rect x="12" y="12" width="8" height="8" fill="#FFE575"/><rect x="24" y="24" width="8" height="8" fill="#EEA638"/><rect x="36" y="36" width="8" height="8" fill="#FFE575"/></g></g><g transform="translate(272 0)"><g data-part="victory-lane"><animateTransform attributeName="transform" type="translate" values="4 4;4 4;0 4;0 0;4 0;4 4;0 4;0 0;4 0;4 4;0 4;0 0;4 0;4 4;0 4;0 0;4 0;4 4;0 4;0 0;4 0;4 4;4 4" keyTimes="0;0.00555556;0.05;0.1;0.15;0.2;0.25;0.3;0.35;0.4;0.45;0.5;0.55;0.6;0.65;0.7;0.75;0.8;0.85;0.9;0.95;0.99444444;1" dur="7.2s" begin="0s" repeatCount="indefinite" calcMode="discrete" fill="freeze"/><rect x="0" y="0" width="8" height="8" fill="#EEA638"/><rect x="12" y="12" width="8" height="8" fill="#FFE575"/><rect x="24" y="24" width="8" height="8" fill="#EEA638"/><rect x="36" y="36" width="8" height="8" fill="#FFE575"/></g></g><g transform="translate(0 192)"><g data-part="victory-lane"><animateTransform attributeName="transform" type="translate" values="4 4;4 4;0 4;0 0;4 0;4 4;0 4;0 0;4 0;4 4;0 4;0 0;4 0;4 4;0 4;0 0;4 0;4 4;0 4;0 0;4 0;4 4;4 4" keyTimes="0;0.00555556;0.05;0.1;0.15;0.2;0.25;0.3;0.35;0.4;0.45;0.5;0.55;0.6;0.65;0.7;0.75;0.8;0.85;0.9;0.95;0.99444444;1" dur="7.2s" begin="0s" repeatCount="indefinite" calcMode="discrete" fill="freeze"/><rect x="0" y="0" width="8" height="8" fill="#EEA638"/><rect x="12" y="12" width="8" height="8" fill="#FFE575"/><rect x="24" y="24" width="8" height="8" fill="#EEA638"/><rect x="36" y="36" width="8" height="8" fill="#FFE575"/></g></g><g transform="translate(272 192)"><g data-part="victory-lane"><animateTransform attributeName="transform" type="translate" values="0 0;0 0;4 0;4 4;0 4;0 0;4 0;4 4;0 4;0 0;4 0;4 4;0 4;0 0;4 0;4 4;0 4;0 0;4 0;4 4;0 4;0 0;0 0" keyTimes="0;0.00555556;0.05;0.1;0.15;0.2;0.25;0.3;0.35;0.4;0.45;0.5;0.55;0.6;0.65;0.7;0.75;0.8;0.85;0.9;0.95;0.99444444;1" dur="7.2s" begin="0s" repeatCount="indefinite" calcMode="discrete" fill="freeze"/><rect x="0" y="0" width="8" height="8" fill="#EEA638"/><rect x="12" y="12" width="8" height="8" fill="#FFE575"/><rect x="24" y="24" width="8" height="8" fill="#EEA638"/><rect x="36" y="36" width="8" height="8" fill="#FFE575"/></g></g><g data-part="victory-rhythm"><g opacity="1" data-frame="0"><animate attributeName="opacity" values="1;1;0;0;0;1;0;0;0;1;0;0;0;1;0;0;0;1;0;0;0;1;1" keyTimes="0;0.00555556;0.05;0.1;0.15;0.2;0.25;0.3;0.35;0.4;0.45;0.5;0.55;0.6;0.65;0.7;0.75;0.8;0.85;0.9;0.95;0.99444444;1" dur="7.2s" begin="0s" repeatCount="indefinite" calcMode="discrete" fill="freeze"/><rect x="70" y="208" width="6" height="6" fill="#EEA638"/><rect x="88" y="217" width="6" height="6" fill="#FFE575"/><rect x="106" y="226" width="6" height="6" fill="#EEA638"/><rect x="124" y="208" width="6" height="6" fill="#FFE575"/><rect x="142" y="217" width="6" height="6" fill="#EEA638"/><rect x="160" y="226" width="6" height="6" fill="#FFE575"/><rect x="178" y="208" width="6" height="6" fill="#EEA638"/><rect x="196" y="217" width="6" height="6" fill="#FFE575"/><rect x="214" y="226" width="6" height="6" fill="#EEA638"/><rect x="232" y="208" width="6" height="6" fill="#FFE575"/></g><g opacity="0" data-frame="1"><animate attributeName="opacity" values="0;0;1;0;0;0;1;0;0;0;1;0;0;0;1;0;0;0;1;0;0;0;0" keyTimes="0;0.00555556;0.05;0.1;0.15;0.2;0.25;0.3;0.35;0.4;0.45;0.5;0.55;0.6;0.65;0.7;0.75;0.8;0.85;0.9;0.95;0.99444444;1" dur="7.2s" begin="0s" repeatCount="indefinite" calcMode="discrete" fill="freeze"/><rect x="70" y="217" width="6" height="6" fill="#FFE575"/><rect x="88" y="226" width="6" height="6" fill="#EEA638"/><rect x="106" y="208" width="6" height="6" fill="#FFE575"/><rect x="124" y="217" width="6" height="6" fill="#EEA638"/><rect x="142" y="226" width="6" height="6" fill="#FFE575"/><rect x="160" y="208" width="6" height="6" fill="#EEA638"/><rect x="178" y="217" width="6" height="6" fill="#FFE575"/><rect x="196" y="226" width="6" height="6" fill="#EEA638"/><rect x="214" y="208" width="6" height="6" fill="#FFE575"/><rect x="232" y="217" width="6" height="6" fill="#EEA638"/></g><g opacity="0" data-frame="2"><animate attributeName="opacity" values="0;0;0;1;0;0;0;1;0;0;0;1;0;0;0;1;0;0;0;1;0;0;0" keyTimes="0;0.00555556;0.05;0.1;0.15;0.2;0.25;0.3;0.35;0.4;0.45;0.5;0.55;0.6;0.65;0.7;0.75;0.8;0.85;0.9;0.95;0.99444444;1" dur="7.2s" begin="0s" repeatCount="indefinite" calcMode="discrete" fill="freeze"/><rect x="70" y="226" width="6" height="6" fill="#EEA638"/><rect x="88" y="208" width="6" height="6" fill="#FFE575"/><rect x="106" y="217" width="6" height="6" fill="#EEA638"/><rect x="124" y="226" width="6" height="6" fill="#FFE575"/><rect x="142" y="208" width="6" height="6" fill="#EEA638"/><rect x="160" y="217" width="6" height="6" fill="#FFE575"/><rect x="178" y="226" width="6" height="6" fill="#EEA638"/><rect x="196" y="208" width="6" height="6" fill="#FFE575"/><rect x="214" y="217" width="6" height="6" fill="#EEA638"/><rect x="232" y="226" width="6" height="6" fill="#FFE575"/></g><g opacity="0" data-frame="3"><animate attributeName="opacity" values="0;0;0;0;1;0;0;0;1;0;0;0;1;0;0;0;1;0;0;0;1;0;0" keyTimes="0;0.00555556;0.05;0.1;0.15;0.2;0.25;0.3;0.35;0.4;0.45;0.5;0.55;0.6;0.65;0.7;0.75;0.8;0.85;0.9;0.95;0.99444444;1" dur="7.2s" begin="0s" repeatCount="indefinite" calcMode="discrete" fill="freeze"/><rect x="70" y="208" width="6" height="6" fill="#FFE575"/><rect x="88" y="217" width="6" height="6" fill="#EEA638"/><rect x="106" y="226" width="6" height="6" fill="#FFE575"/><rect x="124" y="208" width="6" height="6" fill="#EEA638"/><rect x="142" y="217" width="6" height="6" fill="#FFE575"/><rect x="160" y="226" width="6" height="6" fill="#EEA638"/><rect x="178" y="208" width="6" height="6" fill="#FFE575"/><rect x="196" y="217" width="6" height="6" fill="#EEA638"/><rect x="214" y="226" width="6" height="6" fill="#FFE575"/><rect x="232" y="208" width="6" height="6" fill="#EEA638"/></g></g></g><g transform="translate(0 8)"><g data-part="face"><animateTransform attributeName="transform" type="translate" values="0 0;0 0;-5 1;5 1;0 0;0 0;0 0;0 0" keyTimes="0;0.00555556;0.105;0.23333333;0.385;0.58333333;0.99444444;1" dur="7.2s" begin="0s" repeatCount="indefinite" calcMode="discrete" fill="freeze"/><g data-part="gaze"><animateTransform attributeName="transform" type="translate" values="-3 0;-3 0;3 1;3 1;0 -1;0 0;-1 0;-2 0;-3 0;-3 0;-3 0" keyTimes="0;0.00555556;0.105;0.23333333;0.385;0.58333333;0.95277778;0.96666667;0.98055556;0.99444444;1" dur="7.2s" begin="0s" repeatCount="indefinite" calcMode="discrete" fill="freeze"/><g data-part="eyes"><g><animate attributeName="opacity" values="1;1;0;1;1;1" keyTimes="0;0.00555556;0.78;0.805;0.99444444;1" dur="7.2s" begin="0s" repeatCount="indefinite" calcMode="discrete" fill="freeze"/><path d="M69 70h16v1h1v18h-1v1H69v-1h-1V71h1Z" fill="#302338"/><path d="M91 70h16v1h1v18h-1v1H91v-1h-1V71h1Z" fill="#302338"/><path d="M69 94h16v1h1v18h-1v1H69v-1h-1V95h1Z" fill="#302338"/><path d="M91 94h16v1h1v18h-1v1H91v-1h-1V95h1Z" fill="#302338"/><path d="M213 70h16v1h1v18h-1v1H213v-1h-1V71h1Z" fill="#302338"/><path d="M235 70h16v1h1v18h-1v1H235v-1h-1V71h1Z" fill="#302338"/><path d="M213 94h16v1h1v18h-1v1H213v-1h-1V95h1Z" fill="#302338"/><path d="M235 94h16v1h1v18h-1v1H235v-1h-1V95h1Z" fill="#302338"/><rect x="68" y="70" width="8" height="2" fill="#FFD54A"><animate attributeName="fill" values="#ffd54a;#ffd54a;#ffc94a;#ffb84a;#ffc94a;#ffd54a;#ffd54a" keyTimes="0;0.00555556;0.25;0.5;0.75;0.99444444;1" dur="7.2s" repeatCount="indefinite" calcMode="linear" begin="0s" fill="freeze"/></rect><rect x="76" y="70" width="8" height="6" fill="#FFD54A"><animate attributeName="fill" values="#ffd54a;#ffd54a;#ffc94a;#ffb84a;#ffc94a;#ffd54a;#ffd54a" keyTimes="0;0.00555556;0.25;0.5;0.75;0.99444444;1" dur="7.2s" repeatCount="indefinite" calcMode="linear" begin="0s" fill="freeze"/></rect><rect x="84" y="70" width="8" height="10" fill="#FFD54A"><animate attributeName="fill" values="#ffd54a;#ffd54a;#ffc94a;#ffb84a;#ffc94a;#ffd54a;#ffd54a" keyTimes="0;0.00555556;0.25;0.5;0.75;0.99444444;1" dur="7.2s" repeatCount="indefinite" calcMode="linear" begin="0s" fill="freeze"/></rect><rect x="92" y="70" width="8" height="14" fill="#FFD54A"><animate attributeName="fill" values="#ffd54a;#ffd54a;#ffc94a;#ffb84a;#ffc94a;#ffd54a;#ffd54a" keyTimes="0;0.00555556;0.25;0.5;0.75;0.99444444;1" dur="7.2s" repeatCount="indefinite" calcMode="linear" begin="0s" fill="freeze"/></rect><rect x="100" y="70" width="8" height="18" fill="#FFD54A"><animate attributeName="fill" values="#ffd54a;#ffd54a;#ffc94a;#ffb84a;#ffc94a;#ffd54a;#ffd54a" keyTimes="0;0.00555556;0.25;0.5;0.75;0.99444444;1" dur="7.2s" repeatCount="indefinite" calcMode="linear" begin="0s" fill="freeze"/></rect><rect x="212" y="70" width="8" height="18" fill="#FFD54A"><animate attributeName="fill" values="#ffd54a;#ffd54a;#ffc94a;#ffb84a;#ffc94a;#ffd54a;#ffd54a" keyTimes="0;0.00555556;0.25;0.5;0.75;0.99444444;1" dur="7.2s" repeatCount="indefinite" calcMode="linear" begin="0s" fill="freeze"/></rect><rect x="220" y="70" width="8" height="14" fill="#FFD54A"><animate attributeName="fill" values="#ffd54a;#ffd54a;#ffc94a;#ffb84a;#ffc94a;#ffd54a;#ffd54a" keyTimes="0;0.00555556;0.25;0.5;0.75;0.99444444;1" dur="7.2s" repeatCount="indefinite" calcMode="linear" begin="0s" fill="freeze"/></rect><rect x="228" y="70" width="8" height="10" fill="#FFD54A"><animate attributeName="fill" values="#ffd54a;#ffd54a;#ffc94a;#ffb84a;#ffc94a;#ffd54a;#ffd54a" keyTimes="0;0.00555556;0.25;0.5;0.75;0.99444444;1" dur="7.2s" repeatCount="indefinite" calcMode="linear" begin="0s" fill="freeze"/></rect><rect x="236" y="70" width="8" height="6" fill="#FFD54A"><animate attributeName="fill" values="#ffd54a;#ffd54a;#ffc94a;#ffb84a;#ffc94a;#ffd54a;#ffd54a" keyTimes="0;0.00555556;0.25;0.5;0.75;0.99444444;1" dur="7.2s" repeatCount="indefinite" calcMode="linear" begin="0s" fill="freeze"/></rect><rect x="244" y="70" width="8" height="2" fill="#FFD54A"><animate attributeName="fill" values="#ffd54a;#ffd54a;#ffc94a;#ffb84a;#ffc94a;#ffd54a;#ffd54a" keyTimes="0;0.00555556;0.25;0.5;0.75;0.99444444;1" dur="7.2s" repeatCount="indefinite" calcMode="linear" begin="0s" fill="freeze"/></rect></g><g opacity="0"><animate attributeName="opacity" values="0;0;1;0;0;0" keyTimes="0;0.00555556;0.78;0.805;0.99444444;1" dur="7.2s" begin="0s" repeatCount="indefinite" calcMode="discrete" fill="freeze"/><path d="M69 99h38v1h1v3h-1v1H69v-1h-1V100h1Z" fill="#302338"/><path d="M213 99h38v1h1v3h-1v1H213v-1h-1V100h1Z" fill="#302338"/></g></g></g><path d="M52 124h12v1h1v7h-1v1H52v-1h-1V125h1Z" fill="#D8576C"/><path d="M70 124h12v1h1v7h-1v1H70v-1h-1V125h1Z" fill="#D8576C"/><path d="M238 124h12v1h1v7h-1v1H238v-1h-1V125h1Z" fill="#D8576C"/><path d="M256 124h12v1h1v7h-1v1H256v-1h-1V125h1Z" fill="#D8576C"/><g data-part="mouth"><path d="M140 134h24v-5h12v5h-7v6h-29Z" fill="#302338"/></g><g transform="translate(270 41)"><g data-part="anger-mark"><animateTransform attributeName="transform" type="translate" values="0 0;0 0;0 -2;1 -2;0 0;0 0;0 -2;1 -2;0 0;0 0;0 -2;1 -2;0 0;0 0;0 0" keyTimes="0;0.00555556;0.08333333;0.13333333;0.18333333;0.33333333;0.41666667;0.46666667;0.51666667;0.66666667;0.75;0.8;0.85;0.99444444;1" dur="7.2s" begin="0s" repeatCount="indefinite" calcMode="discrete" fill="freeze"/><path d="M0 6h6V0h5v11H0ZM17 0h5v6h6v5H17ZM0 17h11v11H6v-6H0ZM17 17h11v5h-6v6h-5Z" fill="#FF596C"/></g></g></g></g><g data-part="completion-cue" data-action="curtain-call"><g data-part="curtain-reveal"><g opacity="1" data-frame="0"><animate attributeName="opacity" values="1;1;0;0;0;0;0;0;1;1" keyTimes="0;0.00555556;0.03;0.06;0.09;0.15;0.22;0.3;0.99444444;1" dur="7.2s" begin="0s" repeatCount="indefinite" calcMode="discrete" fill="freeze"/><rect x="0" y="0" width="12" height="232" fill="#B75242"/><rect x="308" y="0" width="12" height="232" fill="#B75242"/><rect x="3" y="0" width="6" height="232" fill="#D97545"/><rect x="311" y="0" width="6" height="232" fill="#D97545"/></g><g opacity="0" data-frame="1"><animate attributeName="opacity" values="0;0;1;0;0;0;0;0;0;0" keyTimes="0;0.00555556;0.03;0.06;0.09;0.15;0.22;0.3;0.99444444;1" dur="7.2s" begin="0s" repeatCount="indefinite" calcMode="discrete" fill="freeze"/><rect x="0" y="0" width="34" height="232" fill="#B75242"/><rect x="286" y="0" width="34" height="232" fill="#B75242"/><rect x="25" y="0" width="6" height="232" fill="#D97545"/><rect x="289" y="0" width="6" height="232" fill="#D97545"/></g><g opacity="0" data-frame="2"><animate attributeName="opacity" values="0;0;0;1;0;0;0;0;0;0" keyTimes="0;0.00555556;0.03;0.06;0.09;0.15;0.22;0.3;0.99444444;1" dur="7.2s" begin="0s" repeatCount="indefinite" calcMode="discrete" fill="freeze"/><rect x="0" y="0" width="72" height="232" fill="#B75242"/><rect x="248" y="0" width="72" height="232" fill="#B75242"/><rect x="63" y="0" width="6" height="232" fill="#D97545"/><rect x="251" y="0" width="6" height="232" fill="#D97545"/></g><g opacity="0" data-frame="3"><animate attributeName="opacity" values="0;0;0;0;1;0;0;0;0;0" keyTimes="0;0.00555556;0.03;0.06;0.09;0.15;0.22;0.3;0.99444444;1" dur="7.2s" begin="0s" repeatCount="indefinite" calcMode="discrete" fill="freeze"/><rect x="0" y="0" width="105" height="232" fill="#B75242"/><rect x="215" y="0" width="105" height="232" fill="#B75242"/><rect x="96" y="0" width="6" height="232" fill="#D97545"/><rect x="218" y="0" width="6" height="232" fill="#D97545"/></g><g opacity="0" data-frame="4"><animate attributeName="opacity" values="0;0;0;0;0;1;0;0;0;0" keyTimes="0;0.00555556;0.03;0.06;0.09;0.15;0.22;0.3;0.99444444;1" dur="7.2s" begin="0s" repeatCount="indefinite" calcMode="discrete" fill="freeze"/><rect x="0" y="0" width="72" height="232" fill="#B75242"/><rect x="248" y="0" width="72" height="232" fill="#B75242"/><rect x="63" y="0" width="6" height="232" fill="#D97545"/><rect x="251" y="0" width="6" height="232" fill="#D97545"/></g><g opacity="0" data-frame="5"><animate attributeName="opacity" values="0;0;0;0;0;0;1;0;0;0" keyTimes="0;0.00555556;0.03;0.06;0.09;0.15;0.22;0.3;0.99444444;1" dur="7.2s" begin="0s" repeatCount="indefinite" calcMode="discrete" fill="freeze"/><rect x="0" y="0" width="34" height="232" fill="#B75242"/><rect x="286" y="0" width="34" height="232" fill="#B75242"/><rect x="25" y="0" width="6" height="232" fill="#D97545"/><rect x="289" y="0" width="6" height="232" fill="#D97545"/></g><g opacity="0" data-frame="6"><animate attributeName="opacity" values="0;0;0;0;0;0;0;1;0;0" keyTimes="0;0.00555556;0.03;0.06;0.09;0.15;0.22;0.3;0.99444444;1" dur="7.2s" begin="0s" repeatCount="indefinite" calcMode="discrete" fill="freeze"/><rect x="0" y="0" width="12" height="232" fill="#B75242"/><rect x="308" y="0" width="12" height="232" fill="#B75242"/><rect x="3" y="0" width="6" height="232" fill="#D97545"/><rect x="311" y="0" width="6" height="232" fill="#D97545"/></g></g><rect x="114" y="185" width="92" height="33" fill="#F8F7EF"/><rect x="109" y="181" width="9" height="41" fill="#B6B6A5"/><rect x="202" y="181" width="9" height="41" fill="#B6B6A5"/><rect x="125" y="194" width="68" height="4" fill="#757568"/><rect x="125" y="203" width="48" height="4" fill="#757568"/><g transform="translate(152 22)"><path d="M9 0h6v6h3v3h6v6h-6v3h-3v6h-6v-6h-3v-3H0V9h6v-3h3Z" fill="#302338"/></g></g></g><g class="boop-still"><g data-part="victory-background"><rect width="320" height="240" fill="#FFD54A" data-part="victory-color"></rect><g transform="translate(0 0)"><g data-part="victory-lane"><rect x="0" y="0" width="8" height="8" fill="#EEA638"/><rect x="12" y="12" width="8" height="8" fill="#FFE575"/><rect x="24" y="24" width="8" height="8" fill="#EEA638"/><rect x="36" y="36" width="8" height="8" fill="#FFE575"/></g></g><g transform="translate(272 0)"><g data-part="victory-lane"><rect x="0" y="0" width="8" height="8" fill="#EEA638"/><rect x="12" y="12" width="8" height="8" fill="#FFE575"/><rect x="24" y="24" width="8" height="8" fill="#EEA638"/><rect x="36" y="36" width="8" height="8" fill="#FFE575"/></g></g><g transform="translate(0 192)"><g data-part="victory-lane"><rect x="0" y="0" width="8" height="8" fill="#EEA638"/><rect x="12" y="12" width="8" height="8" fill="#FFE575"/><rect x="24" y="24" width="8" height="8" fill="#EEA638"/><rect x="36" y="36" width="8" height="8" fill="#FFE575"/></g></g><g transform="translate(272 192)"><g data-part="victory-lane"><rect x="0" y="0" width="8" height="8" fill="#EEA638"/><rect x="12" y="12" width="8" height="8" fill="#FFE575"/><rect x="24" y="24" width="8" height="8" fill="#EEA638"/><rect x="36" y="36" width="8" height="8" fill="#FFE575"/></g></g><g data-part="victory-rhythm"><g opacity="1" data-frame="0"><rect x="70" y="208" width="6" height="6" fill="#EEA638"/><rect x="88" y="217" width="6" height="6" fill="#FFE575"/><rect x="106" y="226" width="6" height="6" fill="#EEA638"/><rect x="124" y="208" width="6" height="6" fill="#FFE575"/><rect x="142" y="217" width="6" height="6" fill="#EEA638"/><rect x="160" y="226" width="6" height="6" fill="#FFE575"/><rect x="178" y="208" width="6" height="6" fill="#EEA638"/><rect x="196" y="217" width="6" height="6" fill="#FFE575"/><rect x="214" y="226" width="6" height="6" fill="#EEA638"/><rect x="232" y="208" width="6" height="6" fill="#FFE575"/></g><g opacity="0" data-frame="1"><rect x="70" y="217" width="6" height="6" fill="#FFE575"/><rect x="88" y="226" width="6" height="6" fill="#EEA638"/><rect x="106" y="208" width="6" height="6" fill="#FFE575"/><rect x="124" y="217" width="6" height="6" fill="#EEA638"/><rect x="142" y="226" width="6" height="6" fill="#FFE575"/><rect x="160" y="208" width="6" height="6" fill="#EEA638"/><rect x="178" y="217" width="6" height="6" fill="#FFE575"/><rect x="196" y="226" width="6" height="6" fill="#EEA638"/><rect x="214" y="208" width="6" height="6" fill="#FFE575"/><rect x="232" y="217" width="6" height="6" fill="#EEA638"/></g><g opacity="0" data-frame="2"><rect x="70" y="226" width="6" height="6" fill="#EEA638"/><rect x="88" y="208" width="6" height="6" fill="#FFE575"/><rect x="106" y="217" width="6" height="6" fill="#EEA638"/><rect x="124" y="226" width="6" height="6" fill="#FFE575"/><rect x="142" y="208" width="6" height="6" fill="#EEA638"/><rect x="160" y="217" width="6" height="6" fill="#FFE575"/><rect x="178" y="226" width="6" height="6" fill="#EEA638"/><rect x="196" y="208" width="6" height="6" fill="#FFE575"/><rect x="214" y="217" width="6" height="6" fill="#EEA638"/><rect x="232" y="226" width="6" height="6" fill="#FFE575"/></g><g opacity="0" data-frame="3"><rect x="70" y="208" width="6" height="6" fill="#FFE575"/><rect x="88" y="217" width="6" height="6" fill="#EEA638"/><rect x="106" y="226" width="6" height="6" fill="#FFE575"/><rect x="124" y="208" width="6" height="6" fill="#EEA638"/><rect x="142" y="217" width="6" height="6" fill="#FFE575"/><rect x="160" y="226" width="6" height="6" fill="#EEA638"/><rect x="178" y="208" width="6" height="6" fill="#FFE575"/><rect x="196" y="217" width="6" height="6" fill="#EEA638"/><rect x="214" y="226" width="6" height="6" fill="#FFE575"/><rect x="232" y="208" width="6" height="6" fill="#EEA638"/></g></g></g><g transform="translate(0 8)"><g data-part="face"><g data-part="gaze"><g data-part="eyes"><g><path d="M69 70h16v1h1v18h-1v1H69v-1h-1V71h1Z" fill="#302338"/><path d="M91 70h16v1h1v18h-1v1H91v-1h-1V71h1Z" fill="#302338"/><path d="M69 94h16v1h1v18h-1v1H69v-1h-1V95h1Z" fill="#302338"/><path d="M91 94h16v1h1v18h-1v1H91v-1h-1V95h1Z" fill="#302338"/><path d="M213 70h16v1h1v18h-1v1H213v-1h-1V71h1Z" fill="#302338"/><path d="M235 70h16v1h1v18h-1v1H235v-1h-1V71h1Z" fill="#302338"/><path d="M213 94h16v1h1v18h-1v1H213v-1h-1V95h1Z" fill="#302338"/><path d="M235 94h16v1h1v18h-1v1H235v-1h-1V95h1Z" fill="#302338"/><rect x="68" y="70" width="8" height="2" fill="#FFD54A"/><rect x="76" y="70" width="8" height="6" fill="#FFD54A"/><rect x="84" y="70" width="8" height="10" fill="#FFD54A"/><rect x="92" y="70" width="8" height="14" fill="#FFD54A"/><rect x="100" y="70" width="8" height="18" fill="#FFD54A"/><rect x="212" y="70" width="8" height="18" fill="#FFD54A"/><rect x="220" y="70" width="8" height="14" fill="#FFD54A"/><rect x="228" y="70" width="8" height="10" fill="#FFD54A"/><rect x="236" y="70" width="8" height="6" fill="#FFD54A"/><rect x="244" y="70" width="8" height="2" fill="#FFD54A"/></g><g opacity="0"><path d="M69 99h38v1h1v3h-1v1H69v-1h-1V100h1Z" fill="#302338"/><path d="M213 99h38v1h1v3h-1v1H213v-1h-1V100h1Z" fill="#302338"/></g></g></g><path d="M52 124h12v1h1v7h-1v1H52v-1h-1V125h1Z" fill="#D8576C"/><path d="M70 124h12v1h1v7h-1v1H70v-1h-1V125h1Z" fill="#D8576C"/><path d="M238 124h12v1h1v7h-1v1H238v-1h-1V125h1Z" fill="#D8576C"/><path d="M256 124h12v1h1v7h-1v1H256v-1h-1V125h1Z" fill="#D8576C"/><g data-part="mouth"><path d="M140 134h24v-5h12v5h-7v6h-29Z" fill="#302338"/></g><g transform="translate(270 41)"><g data-part="anger-mark"><path d="M0 6h6V0h5v11H0ZM17 0h5v6h6v5H17ZM0 17h11v11H6v-6H0ZM17 17h11v5h-6v6h-5Z" fill="#FF596C"/></g></g></g></g><g data-part="completion-cue" data-action="curtain-call"><g data-part="curtain-reveal"><rect x="0" y="0" width="12" height="232" fill="#B75242"/><rect x="308" y="0" width="12" height="232" fill="#B75242"/><rect x="3" y="0" width="6" height="232" fill="#D97545"/><rect x="311" y="0" width="6" height="232" fill="#D97545"/></g><rect x="114" y="185" width="92" height="33" fill="#F8F7EF"/><rect x="109" y="181" width="9" height="41" fill="#B6B6A5"/><rect x="202" y="181" width="9" height="41" fill="#B6B6A5"/><rect x="125" y="194" width="68" height="4" fill="#757568"/><rect x="125" y="203" width="48" height="4" fill="#757568"/><g transform="translate(152 22)"><path d="M9 0h6v6h3v3h6v6h-6v3h-3v6h-6v-6h-3v-3H0V9h6v-3h3Z" fill="#302338"/></g></g></g></g></svg>
