<svg xmlns="http://www.w3.org/2000/svg" width="320" height="240" viewBox="0 0 320 240" id="boop-var4-excited-task_complete-3" data-mood="excited" data-state="task_complete" data-variant="3" data-loop-seconds="6.4" data-repeat-count="indefinite" role="img" aria-labelledby="boop-var4-excited-task_complete-3-title boop-var4-excited-task_complete-3-desc" shape-rendering="crispEdges" overflow="hidden"><title id="boop-var4-excited-task_complete-3-title">Excited · Task Complete · Onto the podium</title><desc id="boop-var4-excited-task_complete-3-desc">Silent seamless-loop pixel-art variation. 6.4 seconds per cycle. Uses the approved V4 face identity.</desc><style>#boop-var4-excited-task_complete-3 .boop-still{display:none}@media(prefers-reduced-motion:reduce){#boop-var4-excited-task_complete-3:not([data-motion="on"]) .boop-motion{display:none}#boop-var4-excited-task_complete-3:not([data-motion="on"]) .boop-still{display:inline}}</style><defs><clipPath id="boop-var4-excited-task_complete-3-bounds"><rect width="320" height="240"/></clipPath></defs><rect width="320" height="240" fill="#FFD54A"/><g clip-path="url(#boop-var4-excited-task_complete-3-bounds)"><g class="boop-motion"><g data-part="victory-background"><rect width="320" height="240" fill="#FFD54A" data-part="victory-color"><animate attributeName="fill" values="#ffd54a;#ffd54a;#ffc94a;#ffb84a;#ffc94a;#ffd54a;#ffd54a" keyTimes="0;0.00625;0.25;0.5;0.75;0.99375;1" dur="6.4s" repeatCount="indefinite" calcMode="linear" begin="0s" fill="freeze"/></rect><g transform="translate(0 0)"><g data-part="victory-lane"><animateTransform attributeName="transform" type="translate" values="0 0;0 0;4 0;4 4;0 4;0 0;4 0;4 4;0 4;0 0;4 0;4 4;0 4;0 0;4 0;4 4;0 4;0 0;0 0" keyTimes="0;0.00625;0.0625;0.125;0.1875;0.25;0.3125;0.375;0.4375;0.5;0.5625;0.625;0.6875;0.75;0.8125;0.875;0.9375;0.99375;1" dur="6.4s" begin="0s" repeatCount="indefinite" calcMode="discrete" fill="freeze"/><rect x="0" y="0" width="8" height="8" fill="#EEA638"/><rect x="12" y="12" width="8" height="8" fill="#FFE575"/><rect x="24" y="24" width="8" height="8" fill="#EEA638"/><rect x="36" y="36" width="8" height="8" fill="#FFE575"/></g></g><g transform="translate(272 0)"><g data-part="victory-lane"><animateTransform attributeName="transform" type="translate" values="4 4;4 4;0 4;0 0;4 0;4 4;0 4;0 0;4 0;4 4;0 4;0 0;4 0;4 4;0 4;0 0;4 0;4 4;4 4" keyTimes="0;0.00625;0.0625;0.125;0.1875;0.25;0.3125;0.375;0.4375;0.5;0.5625;0.625;0.6875;0.75;0.8125;0.875;0.9375;0.99375;1" dur="6.4s" begin="0s" repeatCount="indefinite" calcMode="discrete" fill="freeze"/><rect x="0" y="0" width="8" height="8" fill="#EEA638"/><rect x="12" y="12" width="8" height="8" fill="#FFE575"/><rect x="24" y="24" width="8" height="8" fill="#EEA638"/><rect x="36" y="36" width="8" height="8" fill="#FFE575"/></g></g><g transform="translate(0 192)"><g data-part="victory-lane"><animateTransform attributeName="transform" type="translate" values="4 4;4 4;0 4;0 0;4 0;4 4;0 4;0 0;4 0;4 4;0 4;0 0;4 0;4 4;0 4;0 0;4 0;4 4;4 4" keyTimes="0;0.00625;0.0625;0.125;0.1875;0.25;0.3125;0.375;0.4375;0.5;0.5625;0.625;0.6875;0.75;0.8125;0.875;0.9375;0.99375;1" dur="6.4s" begin="0s" repeatCount="indefinite" calcMode="discrete" fill="freeze"/><rect x="0" y="0" width="8" height="8" fill="#EEA638"/><rect x="12" y="12" width="8" height="8" fill="#FFE575"/><rect x="24" y="24" width="8" height="8" fill="#EEA638"/><rect x="36" y="36" width="8" height="8" fill="#FFE575"/></g></g><g transform="translate(272 192)"><g data-part="victory-lane"><animateTransform attributeName="transform" type="translate" values="0 0;0 0;4 0;4 4;0 4;0 0;4 0;4 4;0 4;0 0;4 0;4 4;0 4;0 0;4 0;4 4;0 4;0 0;0 0" keyTimes="0;0.00625;0.0625;0.125;0.1875;0.25;0.3125;0.375;0.4375;0.5;0.5625;0.625;0.6875;0.75;0.8125;0.875;0.9375;0.99375;1" dur="6.4s" begin="0s" repeatCount="indefinite" calcMode="discrete" fill="freeze"/><rect x="0" y="0" width="8" height="8" fill="#EEA638"/><rect x="12" y="12" width="8" height="8" fill="#FFE575"/><rect x="24" y="24" width="8" height="8" fill="#EEA638"/><rect x="36" y="36" width="8" height="8" fill="#FFE575"/></g></g><g data-part="victory-rhythm"><g opacity="1" data-frame="0"><animate attributeName="opacity" values="1;1;0;0;0;1;0;0;0;1;0;0;0;1;0;0;0;1;1" keyTimes="0;0.00625;0.0625;0.125;0.1875;0.25;0.3125;0.375;0.4375;0.5;0.5625;0.625;0.6875;0.75;0.8125;0.875;0.9375;0.99375;1" dur="6.4s" begin="0s" repeatCount="indefinite" calcMode="discrete" fill="freeze"/><rect x="70" y="208" width="6" height="6" fill="#EEA638"/><rect x="88" y="217" width="6" height="6" fill="#FFE575"/><rect x="106" y="226" width="6" height="6" fill="#EEA638"/><rect x="124" y="208" width="6" height="6" fill="#FFE575"/><rect x="142" y="217" width="6" height="6" fill="#EEA638"/><rect x="160" y="226" width="6" height="6" fill="#FFE575"/><rect x="178" y="208" width="6" height="6" fill="#EEA638"/><rect x="196" y="217" width="6" height="6" fill="#FFE575"/><rect x="214" y="226" width="6" height="6" fill="#EEA638"/><rect x="232" y="208" width="6" height="6" fill="#FFE575"/></g><g opacity="0" data-frame="1"><animate attributeName="opacity" values="0;0;1;0;0;0;1;0;0;0;1;0;0;0;1;0;0;0;0" keyTimes="0;0.00625;0.0625;0.125;0.1875;0.25;0.3125;0.375;0.4375;0.5;0.5625;0.625;0.6875;0.75;0.8125;0.875;0.9375;0.99375;1" dur="6.4s" begin="0s" repeatCount="indefinite" calcMode="discrete" fill="freeze"/><rect x="70" y="217" width="6" height="6" fill="#FFE575"/><rect x="88" y="226" width="6" height="6" fill="#EEA638"/><rect x="106" y="208" width="6" height="6" fill="#FFE575"/><rect x="124" y="217" width="6" height="6" fill="#EEA638"/><rect x="142" y="226" width="6" height="6" fill="#FFE575"/><rect x="160" y="208" width="6" height="6" fill="#EEA638"/><rect x="178" y="217" width="6" height="6" fill="#FFE575"/><rect x="196" y="226" width="6" height="6" fill="#EEA638"/><rect x="214" y="208" width="6" height="6" fill="#FFE575"/><rect x="232" y="217" width="6" height="6" fill="#EEA638"/></g><g opacity="0" data-frame="2"><animate attributeName="opacity" values="0;0;0;1;0;0;0;1;0;0;0;1;0;0;0;1;0;0;0" keyTimes="0;0.00625;0.0625;0.125;0.1875;0.25;0.3125;0.375;0.4375;0.5;0.5625;0.625;0.6875;0.75;0.8125;0.875;0.9375;0.99375;1" dur="6.4s" begin="0s" repeatCount="indefinite" calcMode="discrete" fill="freeze"/><rect x="70" y="226" width="6" height="6" fill="#EEA638"/><rect x="88" y="208" width="6" height="6" fill="#FFE575"/><rect x="106" y="217" width="6" height="6" fill="#EEA638"/><rect x="124" y="226" width="6" height="6" fill="#FFE575"/><rect x="142" y="208" width="6" height="6" fill="#EEA638"/><rect x="160" y="217" width="6" height="6" fill="#FFE575"/><rect x="178" y="226" width="6" height="6" fill="#EEA638"/><rect x="196" y="208" width="6" height="6" fill="#FFE575"/><rect x="214" y="217" width="6" height="6" fill="#EEA638"/><rect x="232" y="226" width="6" height="6" fill="#FFE575"/></g><g opacity="0" data-frame="3"><animate attributeName="opacity" values="0;0;0;0;1;0;0;0;1;0;0;0;1;0;0;0;1;0;0" keyTimes="0;0.00625;0.0625;0.125;0.1875;0.25;0.3125;0.375;0.4375;0.5;0.5625;0.625;0.6875;0.75;0.8125;0.875;0.9375;0.99375;1" dur="6.4s" begin="0s" repeatCount="indefinite" calcMode="discrete" fill="freeze"/><rect x="70" y="208" width="6" height="6" fill="#FFE575"/><rect x="88" y="217" width="6" height="6" fill="#EEA638"/><rect x="106" y="226" width="6" height="6" fill="#FFE575"/><rect x="124" y="208" width="6" height="6" fill="#EEA638"/><rect x="142" y="217" width="6" height="6" fill="#FFE575"/><rect x="160" y="226" width="6" height="6" fill="#EEA638"/><rect x="178" y="208" width="6" height="6" fill="#FFE575"/><rect x="196" y="217" width="6" height="6" fill="#EEA638"/><rect x="214" y="226" width="6" height="6" fill="#FFE575"/><rect x="232" y="208" width="6" height="6" fill="#EEA638"/></g></g></g><g transform="translate(0 8)"><g data-part="face"><animateTransform attributeName="transform" type="translate" values="0 -8;0 -8;0 4;0 4;0 -3;0 0;0 -3;0 -5;0 -8;0 -8;0 -8" keyTimes="0;0.00625;0.118125;0.2625;0.433125;0.65625;0.946875;0.9625;0.978125;0.99375;1" dur="6.4s" begin="0s" repeatCount="indefinite" calcMode="discrete" fill="freeze"/><g data-part="gaze"><animateTransform attributeName="transform" type="translate" values="0 2;0 2;0 2;-2 1;0 -1;0 0;0 1;0 1;0 2;0 2;0 2" keyTimes="0;0.00625;0.118125;0.2625;0.433125;0.65625;0.946875;0.9625;0.978125;0.99375;1" dur="6.4s" begin="0s" repeatCount="indefinite" calcMode="discrete" fill="freeze"/><g data-part="eyes"><g><animate attributeName="opacity" values="1;1;0;1;1;1" keyTimes="0;0.00625;0.78;0.805;0.99375;1" dur="6.4s" begin="0s" repeatCount="indefinite" calcMode="discrete" fill="freeze"/><g data-part="scrunched-eyes"><rect x="71" y="70" width="12" height="6" fill="#302338"/><rect x="237" y="70" width="12" height="6" fill="#302338"/><rect x="77" y="76" width="12" height="6" fill="#302338"/><rect x="231" y="76" width="12" height="6" fill="#302338"/><rect x="83" y="82" width="12" height="6" fill="#302338"/><rect x="225" y="82" width="12" height="6" fill="#302338"/><rect x="89" y="88" width="12" height="6" fill="#302338"/><rect x="219" y="88" width="12" height="6" fill="#302338"/><rect x="83" y="94" width="12" height="6" fill="#302338"/><rect x="225" y="94" width="12" height="6" fill="#302338"/><rect x="77" y="100" width="12" height="6" fill="#302338"/><rect x="231" y="100" width="12" height="6" fill="#302338"/><rect x="71" y="106" width="12" height="6" fill="#302338"/><rect x="237" y="106" width="12" height="6" fill="#302338"/></g></g><g opacity="0"><animate attributeName="opacity" values="0;0;1;0;0;0" keyTimes="0;0.00625;0.78;0.805;0.99375;1" dur="6.4s" begin="0s" repeatCount="indefinite" calcMode="discrete" fill="freeze"/><path d="M69 99h38v1h1v3h-1v1H69v-1h-1V100h1Z" fill="#302338"/><path d="M213 99h38v1h1v3h-1v1H213v-1h-1V100h1Z" fill="#302338"/></g></g></g><path d="M52 120h12v1h1v7h-1v1H52v-1h-1V121h1Z" fill="#D8576C"/><path d="M70 120h12v1h1v7h-1v1H70v-1h-1V121h1Z" fill="#D8576C"/><path d="M238 120h12v1h1v7h-1v1H238v-1h-1V121h1Z" fill="#D8576C"/><path d="M256 120h12v1h1v7h-1v1H256v-1h-1V121h1Z" fill="#D8576C"/><g data-part="mouth"><g data-part="wide-laugh"><path d="M138 125h44v18h-6v7h-6v5h-20v-5h-6v-7h-6Z" fill="#302338"/><path d="M144 131h32v10h-6v8h-20v-8h-6Z" fill="#FFD54A"><animate attributeName="fill" values="#ffd54a;#ffd54a;#ffc94a;#ffb84a;#ffc94a;#ffd54a;#ffd54a" keyTimes="0;0.00625;0.25;0.5;0.75;0.99375;1" dur="6.4s" repeatCount="indefinite" calcMode="linear" begin="0s" fill="freeze"/></path><rect x="150" y="144" width="20" height="5" fill="#D8576C"/></g></g></g></g><g data-part="completion-cue" data-action="podium"><g data-part="podium-rise"><g opacity="1" data-frame="0"><animate attributeName="opacity" values="1;1;0;0;0;0;0;0;0;1;1;1" keyTimes="0;0.00625;0.125;0.25;0.375;0.5;0.90625;0.925;0.94375;0.9625;0.99375;1" dur="6.4s" begin="0s" repeatCount="indefinite" calcMode="discrete" fill="freeze"/><rect x="81" y="236" width="51" height="3" fill="#302338"/><rect x="132" y="220" width="56" height="19" fill="#302338"/><rect x="188" y="236" width="51" height="3" fill="#302338"/><rect x="136" y="223" width="48" height="4" fill="#F8F7EF"/><g transform="translate(145 191)"><g data-part="trophy"><path d="M6 0h18v4h6v10h-7v4h-5v6h7v5H5v-5h7v-6H5v-4H0V4h6Z" fill="#302338"/><rect x="9" y="3" width="12" height="9" fill="#F8F7EF"/></g></g></g><g opacity="0" data-frame="1"><animate attributeName="opacity" values="0;0;1;0;0;0;0;0;1;0;0;0" keyTimes="0;0.00625;0.125;0.25;0.375;0.5;0.90625;0.925;0.94375;0.9625;0.99375;1" dur="6.4s" begin="0s" repeatCount="indefinite" calcMode="discrete" fill="freeze"/><rect x="81" y="231" width="51" height="8" fill="#302338"/><rect x="132" y="215" width="56" height="24" fill="#302338"/><rect x="188" y="231" width="51" height="8" fill="#302338"/><rect x="136" y="218" width="48" height="4" fill="#F8F7EF"/><g transform="translate(145 186)"><g data-part="trophy"><path d="M6 0h18v4h6v10h-7v4h-5v6h7v5H5v-5h7v-6H5v-4H0V4h6Z" fill="#302338"/><rect x="9" y="3" width="12" height="9" fill="#F8F7EF"/></g></g></g><g opacity="0" data-frame="2"><animate attributeName="opacity" values="0;0;0;1;0;0;0;1;0;0;0;0" keyTimes="0;0.00625;0.125;0.25;0.375;0.5;0.90625;0.925;0.94375;0.9625;0.99375;1" dur="6.4s" begin="0s" repeatCount="indefinite" calcMode="discrete" fill="freeze"/><rect x="81" y="224" width="51" height="15" fill="#302338"/><rect x="132" y="208" width="56" height="31" fill="#302338"/><rect x="188" y="224" width="51" height="15" fill="#302338"/><rect x="136" y="211" width="48" height="4" fill="#F8F7EF"/><g transform="translate(145 179)"><g data-part="trophy"><path d="M6 0h18v4h6v10h-7v4h-5v6h7v5H5v-5h7v-6H5v-4H0V4h6Z" fill="#302338"/><rect x="9" y="3" width="12" height="9" fill="#F8F7EF"/></g></g></g><g opacity="0" data-frame="3"><animate attributeName="opacity" values="0;0;0;0;1;0;1;0;0;0;0;0" keyTimes="0;0.00625;0.125;0.25;0.375;0.5;0.90625;0.925;0.94375;0.9625;0.99375;1" dur="6.4s" begin="0s" repeatCount="indefinite" calcMode="discrete" fill="freeze"/><rect x="81" y="218" width="51" height="21" fill="#302338"/><rect x="132" y="202" width="56" height="37" fill="#302338"/><rect x="188" y="218" width="51" height="21" fill="#302338"/><rect x="136" y="205" width="48" height="4" fill="#F8F7EF"/><g transform="translate(145 173)"><g data-part="trophy"><path d="M6 0h18v4h6v10h-7v4h-5v6h7v5H5v-5h7v-6H5v-4H0V4h6Z" fill="#302338"/><rect x="9" y="3" width="12" height="9" fill="#F8F7EF"/></g></g></g><g opacity="0" data-frame="4"><animate attributeName="opacity" values="0;0;0;0;0;1;0;0;0;0;0;0" keyTimes="0;0.00625;0.125;0.25;0.375;0.5;0.90625;0.925;0.94375;0.9625;0.99375;1" dur="6.4s" begin="0s" repeatCount="indefinite" calcMode="discrete" fill="freeze"/><rect x="81" y="218" width="51" height="21" fill="#302338"/><rect x="132" y="202" width="56" height="37" fill="#302338"/><rect x="188" y="218" width="51" height="21" fill="#302338"/><rect x="136" y="205" width="48" height="4" fill="#F8F7EF"/><g transform="translate(145 173)"><g data-part="trophy"><path d="M6 0h18v4h6v10h-7v4h-5v6h7v5H5v-5h7v-6H5v-4H0V4h6Z" fill="#302338"/><rect x="9" y="3" width="12" height="9" fill="#F8F7EF"/></g></g></g></g></g></g><g class="boop-still"><g data-part="victory-background"><rect width="320" height="240" fill="#FFD54A" data-part="victory-color"></rect><g transform="translate(0 0)"><g data-part="victory-lane"><rect x="0" y="0" width="8" height="8" fill="#EEA638"/><rect x="12" y="12" width="8" height="8" fill="#FFE575"/><rect x="24" y="24" width="8" height="8" fill="#EEA638"/><rect x="36" y="36" width="8" height="8" fill="#FFE575"/></g></g><g transform="translate(272 0)"><g data-part="victory-lane"><rect x="0" y="0" width="8" height="8" fill="#EEA638"/><rect x="12" y="12" width="8" height="8" fill="#FFE575"/><rect x="24" y="24" width="8" height="8" fill="#EEA638"/><rect x="36" y="36" width="8" height="8" fill="#FFE575"/></g></g><g transform="translate(0 192)"><g data-part="victory-lane"><rect x="0" y="0" width="8" height="8" fill="#EEA638"/><rect x="12" y="12" width="8" height="8" fill="#FFE575"/><rect x="24" y="24" width="8" height="8" fill="#EEA638"/><rect x="36" y="36" width="8" height="8" fill="#FFE575"/></g></g><g transform="translate(272 192)"><g data-part="victory-lane"><rect x="0" y="0" width="8" height="8" fill="#EEA638"/><rect x="12" y="12" width="8" height="8" fill="#FFE575"/><rect x="24" y="24" width="8" height="8" fill="#EEA638"/><rect x="36" y="36" width="8" height="8" fill="#FFE575"/></g></g><g data-part="victory-rhythm"><g opacity="1" data-frame="0"><rect x="70" y="208" width="6" height="6" fill="#EEA638"/><rect x="88" y="217" width="6" height="6" fill="#FFE575"/><rect x="106" y="226" width="6" height="6" fill="#EEA638"/><rect x="124" y="208" width="6" height="6" fill="#FFE575"/><rect x="142" y="217" width="6" height="6" fill="#EEA638"/><rect x="160" y="226" width="6" height="6" fill="#FFE575"/><rect x="178" y="208" width="6" height="6" fill="#EEA638"/><rect x="196" y="217" width="6" height="6" fill="#FFE575"/><rect x="214" y="226" width="6" height="6" fill="#EEA638"/><rect x="232" y="208" width="6" height="6" fill="#FFE575"/></g><g opacity="0" data-frame="1"><rect x="70" y="217" width="6" height="6" fill="#FFE575"/><rect x="88" y="226" width="6" height="6" fill="#EEA638"/><rect x="106" y="208" width="6" height="6" fill="#FFE575"/><rect x="124" y="217" width="6" height="6" fill="#EEA638"/><rect x="142" y="226" width="6" height="6" fill="#FFE575"/><rect x="160" y="208" width="6" height="6" fill="#EEA638"/><rect x="178" y="217" width="6" height="6" fill="#FFE575"/><rect x="196" y="226" width="6" height="6" fill="#EEA638"/><rect x="214" y="208" width="6" height="6" fill="#FFE575"/><rect x="232" y="217" width="6" height="6" fill="#EEA638"/></g><g opacity="0" data-frame="2"><rect x="70" y="226" width="6" height="6" fill="#EEA638"/><rect x="88" y="208" width="6" height="6" fill="#FFE575"/><rect x="106" y="217" width="6" height="6" fill="#EEA638"/><rect x="124" y="226" width="6" height="6" fill="#FFE575"/><rect x="142" y="208" width="6" height="6" fill="#EEA638"/><rect x="160" y="217" width="6" height="6" fill="#FFE575"/><rect x="178" y="226" width="6" height="6" fill="#EEA638"/><rect x="196" y="208" width="6" height="6" fill="#FFE575"/><rect x="214" y="217" width="6" height="6" fill="#EEA638"/><rect x="232" y="226" width="6" height="6" fill="#FFE575"/></g><g opacity="0" data-frame="3"><rect x="70" y="208" width="6" height="6" fill="#FFE575"/><rect x="88" y="217" width="6" height="6" fill="#EEA638"/><rect x="106" y="226" width="6" height="6" fill="#FFE575"/><rect x="124" y="208" width="6" height="6" fill="#EEA638"/><rect x="142" y="217" width="6" height="6" fill="#FFE575"/><rect x="160" y="226" width="6" height="6" fill="#EEA638"/><rect x="178" y="208" width="6" height="6" fill="#FFE575"/><rect x="196" y="217" width="6" height="6" fill="#EEA638"/><rect x="214" y="226" width="6" height="6" fill="#FFE575"/><rect x="232" y="208" width="6" height="6" fill="#EEA638"/></g></g></g><g transform="translate(0 8)"><g data-part="face"><g data-part="gaze"><g data-part="eyes"><g><g data-part="scrunched-eyes"><rect x="71" y="70" width="12" height="6" fill="#302338"/><rect x="237" y="70" width="12" height="6" fill="#302338"/><rect x="77" y="76" width="12" height="6" fill="#302338"/><rect x="231" y="76" width="12" height="6" fill="#302338"/><rect x="83" y="82" width="12" height="6" fill="#302338"/><rect x="225" y="82" width="12" height="6" fill="#302338"/><rect x="89" y="88" width="12" height="6" fill="#302338"/><rect x="219" y="88" width="12" height="6" fill="#302338"/><rect x="83" y="94" width="12" height="6" fill="#302338"/><rect x="225" y="94" width="12" height="6" fill="#302338"/><rect x="77" y="100" width="12" height="6" fill="#302338"/><rect x="231" y="100" width="12" height="6" fill="#302338"/><rect x="71" y="106" width="12" height="6" fill="#302338"/><rect x="237" y="106" width="12" height="6" fill="#302338"/></g></g><g opacity="0"><path d="M69 99h38v1h1v3h-1v1H69v-1h-1V100h1Z" fill="#302338"/><path d="M213 99h38v1h1v3h-1v1H213v-1h-1V100h1Z" fill="#302338"/></g></g></g><path d="M52 120h12v1h1v7h-1v1H52v-1h-1V121h1Z" fill="#D8576C"/><path d="M70 120h12v1h1v7h-1v1H70v-1h-1V121h1Z" fill="#D8576C"/><path d="M238 120h12v1h1v7h-1v1H238v-1h-1V121h1Z" fill="#D8576C"/><path d="M256 120h12v1h1v7h-1v1H256v-1h-1V121h1Z" fill="#D8576C"/><g data-part="mouth"><g data-part="wide-laugh"><path d="M138 125h44v18h-6v7h-6v5h-20v-5h-6v-7h-6Z" fill="#302338"/><path d="M144 131h32v10h-6v8h-20v-8h-6Z" fill="#FFD54A"/><rect x="150" y="144" width="20" height="5" fill="#D8576C"/></g></g></g></g><g data-part="completion-cue" data-action="podium"><g data-part="podium-rise"><rect x="81" y="218" width="51" height="21" fill="#302338"/><rect x="132" y="202" width="56" height="37" fill="#302338"/><rect x="188" y="218" width="51" height="21" fill="#302338"/><rect x="136" y="205" width="48" height="4" fill="#F8F7EF"/><g transform="translate(145 173)"><g data-part="trophy"><path d="M6 0h18v4h6v10h-7v4h-5v6h7v5H5v-5h7v-6H5v-4H0V4h6Z" fill="#302338"/><rect x="9" y="3" width="12" height="9" fill="#F8F7EF"/></g></g></g></g></g></g></svg>
