<svg xmlns="http://www.w3.org/2000/svg" width="320" height="240" viewBox="0 0 320 240" id="boop-var4-grumpy-working-2" data-mood="grumpy" data-state="working" data-variant="2" data-loop-seconds="3.2" data-repeat-count="indefinite" role="img" aria-labelledby="boop-var4-grumpy-working-2-title boop-var4-grumpy-working-2-desc" shape-rendering="crispEdges" overflow="hidden"><title id="boop-var4-grumpy-working-2-title">Grumpy · Working · Bash, bash, SNAP!</title><desc id="boop-var4-grumpy-working-2-desc">Silent seamless-loop pixel-art variation. 3.2 seconds per cycle. Uses the approved V4 face identity.</desc><style>#boop-var4-grumpy-working-2 .boop-still{display:none}@media(prefers-reduced-motion:reduce){#boop-var4-grumpy-working-2:not([data-motion="on"]) .boop-motion{display:none}#boop-var4-grumpy-working-2:not([data-motion="on"]) .boop-still{display:inline}}</style><defs><clipPath id="boop-var4-grumpy-working-2-bounds"><rect width="320" height="240"/></clipPath></defs><rect width="320" height="240" fill="#000000"/><g clip-path="url(#boop-var4-grumpy-working-2-bounds)"><g class="boop-motion"><g transform="translate(0 0)"><g data-part="face"><animateTransform attributeName="transform" type="translate" values="0 0;0 0;0 -4;-2 5;2 -3;3 5;-2 -5;-3 6;0 3;0 -4;-2 -1;2 1;0 -2;0 2;0 1;0 0;0 0;0 1;0 0;0 3;0 0;0 2;0 0;0 0;0 0" keyTimes="0;0.0125;0.075;0.11875;0.15;0.2125;0.240625;0.29375;0.328125;0.375;0.40625;0.44375;0.4875;0.58125;0.61875;0.65;0.675;0.7125;0.74375;0.7625;0.80625;0.86875;0.90625;0.9875;1" dur="3.2s" begin="0s" repeatCount="indefinite" calcMode="discrete" fill="freeze"/><g data-part="gaze"><g data-part="eyes"><g><animate attributeName="opacity" values="1;1;0;1;1;1" keyTimes="0;0.0125;0.78;0.805;0.9875;1" dur="3.2s" begin="0s" repeatCount="indefinite" calcMode="discrete" fill="freeze"/><path d="M69 70h16v1h1v18h-1v1H69v-1h-1V71h1Z" fill="#F8F7EF"/><path d="M91 70h16v1h1v18h-1v1H91v-1h-1V71h1Z" fill="#F8F7EF"/><path d="M69 94h16v1h1v18h-1v1H69v-1h-1V95h1Z" fill="#F8F7EF"/><path d="M91 94h16v1h1v18h-1v1H91v-1h-1V95h1Z" fill="#F8F7EF"/><path d="M213 70h16v1h1v18h-1v1H213v-1h-1V71h1Z" fill="#F8F7EF"/><path d="M235 70h16v1h1v18h-1v1H235v-1h-1V71h1Z" fill="#F8F7EF"/><path d="M213 94h16v1h1v18h-1v1H213v-1h-1V95h1Z" fill="#F8F7EF"/><path d="M235 94h16v1h1v18h-1v1H235v-1h-1V95h1Z" fill="#F8F7EF"/><rect x="68" y="70" width="8" height="2" fill="#000000"/><rect x="76" y="70" width="8" height="6" fill="#000000"/><rect x="84" y="70" width="8" height="10" fill="#000000"/><rect x="92" y="70" width="8" height="14" fill="#000000"/><rect x="100" y="70" width="8" height="18" fill="#000000"/><rect x="212" y="70" width="8" height="18" fill="#000000"/><rect x="220" y="70" width="8" height="14" fill="#000000"/><rect x="228" y="70" width="8" height="10" fill="#000000"/><rect x="236" y="70" width="8" height="6" fill="#000000"/><rect x="244" y="70" width="8" height="2" fill="#000000"/></g><g opacity="0"><animate attributeName="opacity" values="0;0;1;0;0;0" keyTimes="0;0.0125;0.78;0.805;0.9875;1" dur="3.2s" begin="0s" repeatCount="indefinite" calcMode="discrete" fill="freeze"/><path d="M69 99h38v1h1v3h-1v1H69v-1h-1V100h1Z" fill="#F8F7EF"/><path d="M213 99h38v1h1v3h-1v1H213v-1h-1V100h1Z" fill="#F8F7EF"/></g></g></g><path d="M52 124h12v1h1v7h-1v1H52v-1h-1V125h1Z" fill="#F1787D"/><path d="M70 124h12v1h1v7h-1v1H70v-1h-1V125h1Z" fill="#F1787D"/><path d="M238 124h12v1h1v7h-1v1H238v-1h-1V125h1Z" fill="#F1787D"/><path d="M256 124h12v1h1v7h-1v1H256v-1h-1V125h1Z" fill="#F1787D"/><g data-part="mouth"><path d="M141 135h6v-6h26v6h6v12h-38Z" fill="#F8F7EF"/><rect x="146" y="140" width="28" height="7" fill="#000000"/><rect x="152" y="130" width="3" height="6" fill="#000000"/><rect x="165" y="130" width="3" height="6" fill="#000000"/></g><g transform="translate(270 41)"><g data-part="anger-mark"><animateTransform attributeName="transform" type="translate" values="0 0;0 0;0 -2;1 -2;0 0;0 0;0 0" keyTimes="0;0.0125;0.25;0.4;0.55;0.9875;1" dur="3.2s" begin="0s" repeatCount="indefinite" calcMode="discrete" fill="freeze"/><path d="M0 6h6V0h5v11H0ZM17 0h5v6h6v5H17ZM0 17h11v11H6v-6H0ZM17 17h11v5h-6v6h-5Z" fill="#FF596C"/></g></g></g></g><g data-part="working-prop" data-action="snap"><g data-part="story-snap" data-cycle-seconds="3.2"><g opacity="1" data-pose="ready"><animate attributeName="opacity" values="1;1;0;0;0;0;0;0;0;0;0;0;0;0;0;0;0;0;1;0;1;0;1;1;1" keyTimes="0;0.0125;0.075;0.11875;0.15;0.2125;0.240625;0.29375;0.328125;0.375;0.40625;0.44375;0.4875;0.58125;0.61875;0.65;0.675;0.7125;0.74375;0.7625;0.80625;0.86875;0.90625;0.9875;1" dur="3.2s" begin="0s" repeatCount="indefinite" calcMode="discrete" fill="freeze"/><rect x="46" y="218" width="228" height="5" fill="#757568"/><rect x="58" y="223" width="7" height="10" fill="#757568"/><rect x="257" y="223" width="7" height="10" fill="#757568"/><g transform="translate(83 185)"><rect x="0" y="0" width="154" height="28" fill="#757568"/><rect x="3" y="3" width="148" height="21" fill="#000000"/><rect x="6" y="6" width="10" height="5" fill="#B6B6A5"/><rect x="20" y="6" width="10" height="5" fill="#B6B6A5"/><rect x="34" y="6" width="10" height="5" fill="#B6B6A5"/><rect x="48" y="6" width="10" height="5" fill="#B6B6A5"/><rect x="62" y="6" width="10" height="5" fill="#B6B6A5"/><rect x="76" y="6" width="10" height="5" fill="#B6B6A5"/><rect x="90" y="6" width="10" height="5" fill="#B6B6A5"/><rect x="104" y="6" width="10" height="5" fill="#B6B6A5"/><rect x="118" y="6" width="10" height="5" fill="#B6B6A5"/><rect x="132" y="6" width="10" height="5" fill="#B6B6A5"/><rect x="6" y="14" width="10" height="5" fill="#B6B6A5"/><rect x="20" y="14" width="10" height="5" fill="#B6B6A5"/><rect x="34" y="14" width="10" height="5" fill="#B6B6A5"/><rect x="48" y="14" width="10" height="5" fill="#B6B6A5"/><rect x="62" y="14" width="10" height="5" fill="#B6B6A5"/><rect x="76" y="14" width="10" height="5" fill="#B6B6A5"/><rect x="90" y="14" width="10" height="5" fill="#B6B6A5"/><rect x="104" y="14" width="10" height="5" fill="#B6B6A5"/><rect x="118" y="14" width="10" height="5" fill="#B6B6A5"/><rect x="132" y="14" width="10" height="5" fill="#B6B6A5"/><rect x="46" y="24" width="61" height="3" fill="#B6B6A5"/></g></g><g opacity="0" data-pose="lift"><animate attributeName="opacity" values="0;0;1;0;0;0;1;0;0;0;0;0;0;0;0;0;0;0;0;0;0;0;0;0;0" keyTimes="0;0.0125;0.075;0.11875;0.15;0.2125;0.240625;0.29375;0.328125;0.375;0.40625;0.44375;0.4875;0.58125;0.61875;0.65;0.675;0.7125;0.74375;0.7625;0.80625;0.86875;0.90625;0.9875;1" dur="3.2s" begin="0s" repeatCount="indefinite" calcMode="discrete" fill="freeze"/><rect x="46" y="218" width="228" height="5" fill="#757568"/><rect x="58" y="223" width="7" height="10" fill="#757568"/><rect x="257" y="223" width="7" height="10" fill="#757568"/><g transform="translate(83 163)"><rect x="0" y="0" width="154" height="28" fill="#757568"/><rect x="3" y="3" width="148" height="21" fill="#000000"/><rect x="6" y="6" width="10" height="5" fill="#B6B6A5"/><rect x="20" y="6" width="10" height="5" fill="#B6B6A5"/><rect x="34" y="6" width="10" height="5" fill="#B6B6A5"/><rect x="48" y="6" width="10" height="5" fill="#B6B6A5"/><rect x="62" y="6" width="10" height="5" fill="#B6B6A5"/><rect x="76" y="6" width="10" height="5" fill="#B6B6A5"/><rect x="90" y="6" width="10" height="5" fill="#B6B6A5"/><rect x="104" y="6" width="10" height="5" fill="#B6B6A5"/><rect x="118" y="6" width="10" height="5" fill="#B6B6A5"/><rect x="132" y="6" width="10" height="5" fill="#B6B6A5"/><rect x="6" y="14" width="10" height="5" fill="#B6B6A5"/><rect x="20" y="14" width="10" height="5" fill="#B6B6A5"/><rect x="34" y="14" width="10" height="5" fill="#B6B6A5"/><rect x="48" y="14" width="10" height="5" fill="#B6B6A5"/><rect x="62" y="14" width="10" height="5" fill="#B6B6A5"/><rect x="76" y="14" width="10" height="5" fill="#B6B6A5"/><rect x="90" y="14" width="10" height="5" fill="#B6B6A5"/><rect x="104" y="14" width="10" height="5" fill="#B6B6A5"/><rect x="118" y="14" width="10" height="5" fill="#B6B6A5"/><rect x="132" y="14" width="10" height="5" fill="#B6B6A5"/><rect x="46" y="24" width="61" height="3" fill="#B6B6A5"/></g></g><g opacity="0" data-pose="slam1"><animate attributeName="opacity" values="0;0;0;1;0;0;0;0;0;0;0;0;0;0;0;0;0;0;0;0;0;0;0;0;0" keyTimes="0;0.0125;0.075;0.11875;0.15;0.2125;0.240625;0.29375;0.328125;0.375;0.40625;0.44375;0.4875;0.58125;0.61875;0.65;0.675;0.7125;0.74375;0.7625;0.80625;0.86875;0.90625;0.9875;1" dur="3.2s" begin="0s" repeatCount="indefinite" calcMode="discrete" fill="freeze"/><rect x="46" y="218" width="228" height="5" fill="#757568"/><rect x="58" y="223" width="7" height="10" fill="#757568"/><rect x="257" y="223" width="7" height="10" fill="#757568"/><g transform="translate(83 190)"><rect x="0" y="0" width="154" height="28" fill="#757568"/><rect x="3" y="3" width="148" height="21" fill="#000000"/><rect x="6" y="6" width="10" height="5" fill="#B6B6A5"/><rect x="20" y="6" width="10" height="5" fill="#B6B6A5"/><rect x="34" y="6" width="10" height="5" fill="#B6B6A5"/><rect x="48" y="6" width="10" height="5" fill="#B6B6A5"/><rect x="62" y="6" width="10" height="5" fill="#B6B6A5"/><rect x="76" y="6" width="10" height="5" fill="#B6B6A5"/><rect x="90" y="6" width="10" height="5" fill="#B6B6A5"/><rect x="104" y="6" width="10" height="5" fill="#B6B6A5"/><rect x="118" y="6" width="10" height="5" fill="#B6B6A5"/><rect x="132" y="6" width="10" height="5" fill="#B6B6A5"/><rect x="6" y="14" width="10" height="5" fill="#B6B6A5"/><rect x="20" y="14" width="10" height="5" fill="#B6B6A5"/><rect x="34" y="14" width="10" height="5" fill="#B6B6A5"/><rect x="48" y="14" width="10" height="5" fill="#B6B6A5"/><rect x="62" y="14" width="10" height="5" fill="#B6B6A5"/><rect x="76" y="14" width="10" height="5" fill="#B6B6A5"/><rect x="90" y="14" width="10" height="5" fill="#B6B6A5"/><rect x="104" y="14" width="10" height="5" fill="#B6B6A5"/><rect x="118" y="14" width="10" height="5" fill="#B6B6A5"/><rect x="132" y="14" width="10" height="5" fill="#B6B6A5"/><rect x="46" y="24" width="61" height="3" fill="#B6B6A5"/></g><rect x="72" y="205" width="4" height="4" fill="#F4BC50"/><rect x="98" y="205" width="3" height="3" fill="#F4BC50"/><rect x="85" y="196" width="4" height="4" fill="#F4BC50"/><rect x="85" y="214" width="3" height="3" fill="#F4BC50"/><rect x="72" y="196" width="4" height="4" fill="#F4BC50"/><rect x="98" y="196" width="3" height="3" fill="#F4BC50"/><rect x="222" y="205" width="4" height="4" fill="#F4BC50"/><rect x="248" y="205" width="3" height="3" fill="#F4BC50"/><rect x="235" y="196" width="4" height="4" fill="#F4BC50"/><rect x="235" y="214" width="3" height="3" fill="#F4BC50"/><rect x="222" y="196" width="4" height="4" fill="#F4BC50"/><rect x="248" y="196" width="3" height="3" fill="#F4BC50"/></g><g opacity="0" data-pose="recoil"><animate attributeName="opacity" values="0;0;0;0;1;0;0;0;0;0;0;0;0;0;0;0;0;0;0;0;0;0;0;0;0" keyTimes="0;0.0125;0.075;0.11875;0.15;0.2125;0.240625;0.29375;0.328125;0.375;0.40625;0.44375;0.4875;0.58125;0.61875;0.65;0.675;0.7125;0.74375;0.7625;0.80625;0.86875;0.90625;0.9875;1" dur="3.2s" begin="0s" repeatCount="indefinite" calcMode="discrete" fill="freeze"/><rect x="46" y="218" width="228" height="5" fill="#757568"/><rect x="58" y="223" width="7" height="10" fill="#757568"/><rect x="257" y="223" width="7" height="10" fill="#757568"/><g transform="translate(83 167)"><rect x="0" y="0" width="154" height="28" fill="#757568"/><rect x="3" y="3" width="148" height="21" fill="#000000"/><rect x="6" y="6" width="10" height="5" fill="#B6B6A5"/><rect x="20" y="6" width="10" height="5" fill="#B6B6A5"/><rect x="34" y="6" width="10" height="5" fill="#B6B6A5"/><rect x="48" y="6" width="10" height="5" fill="#B6B6A5"/><rect x="62" y="6" width="10" height="5" fill="#B6B6A5"/><rect x="76" y="6" width="10" height="5" fill="#B6B6A5"/><rect x="90" y="6" width="10" height="5" fill="#B6B6A5"/><rect x="104" y="6" width="10" height="5" fill="#B6B6A5"/><rect x="118" y="6" width="10" height="5" fill="#B6B6A5"/><rect x="132" y="6" width="10" height="5" fill="#B6B6A5"/><rect x="6" y="14" width="10" height="5" fill="#B6B6A5"/><rect x="20" y="14" width="10" height="5" fill="#B6B6A5"/><rect x="34" y="14" width="10" height="5" fill="#B6B6A5"/><rect x="48" y="14" width="10" height="5" fill="#B6B6A5"/><rect x="62" y="14" width="10" height="5" fill="#B6B6A5"/><rect x="76" y="14" width="10" height="5" fill="#B6B6A5"/><rect x="90" y="14" width="10" height="5" fill="#B6B6A5"/><rect x="104" y="14" width="10" height="5" fill="#B6B6A5"/><rect x="118" y="14" width="10" height="5" fill="#B6B6A5"/><rect x="132" y="14" width="10" height="5" fill="#B6B6A5"/><rect x="46" y="24" width="61" height="3" fill="#B6B6A5"/></g></g><g opacity="0" data-pose="slam2"><animate attributeName="opacity" values="0;0;0;0;0;1;0;0;0;0;0;0;0;0;0;0;0;0;0;0;0;0;0;0;0" keyTimes="0;0.0125;0.075;0.11875;0.15;0.2125;0.240625;0.29375;0.328125;0.375;0.40625;0.44375;0.4875;0.58125;0.61875;0.65;0.675;0.7125;0.74375;0.7625;0.80625;0.86875;0.90625;0.9875;1" dur="3.2s" begin="0s" repeatCount="indefinite" calcMode="discrete" fill="freeze"/><rect x="46" y="218" width="228" height="5" fill="#757568"/><rect x="58" y="223" width="7" height="10" fill="#757568"/><rect x="257" y="223" width="7" height="10" fill="#757568"/><g transform="translate(87 190)"><rect x="0" y="0" width="154" height="28" fill="#757568"/><rect x="3" y="3" width="148" height="21" fill="#000000"/><rect x="6" y="6" width="10" height="5" fill="#B6B6A5"/><rect x="20" y="6" width="10" height="5" fill="#B6B6A5"/><rect x="34" y="6" width="10" height="5" fill="#B6B6A5"/><rect x="48" y="6" width="10" height="5" fill="#B6B6A5"/><rect x="62" y="6" width="10" height="5" fill="#B6B6A5"/><rect x="76" y="6" width="10" height="5" fill="#B6B6A5"/><rect x="90" y="6" width="10" height="5" fill="#B6B6A5"/><rect x="104" y="6" width="10" height="5" fill="#B6B6A5"/><rect x="118" y="6" width="10" height="5" fill="#B6B6A5"/><rect x="132" y="6" width="10" height="5" fill="#B6B6A5"/><rect x="6" y="14" width="10" height="5" fill="#B6B6A5"/><rect x="20" y="14" width="10" height="5" fill="#B6B6A5"/><rect x="34" y="14" width="10" height="5" fill="#B6B6A5"/><rect x="48" y="14" width="10" height="5" fill="#B6B6A5"/><rect x="62" y="14" width="10" height="5" fill="#B6B6A5"/><rect x="76" y="14" width="10" height="5" fill="#B6B6A5"/><rect x="90" y="14" width="10" height="5" fill="#B6B6A5"/><rect x="104" y="14" width="10" height="5" fill="#B6B6A5"/><rect x="118" y="14" width="10" height="5" fill="#B6B6A5"/><rect x="132" y="14" width="10" height="5" fill="#B6B6A5"/><rect x="46" y="24" width="61" height="3" fill="#B6B6A5"/></g><rect x="67" y="205" width="4" height="4" fill="#F4BC50"/><rect x="103" y="205" width="3" height="3" fill="#F4BC50"/><rect x="85" y="192" width="4" height="4" fill="#F4BC50"/><rect x="85" y="218" width="3" height="3" fill="#F4BC50"/><rect x="67" y="192" width="4" height="4" fill="#F4BC50"/><rect x="103" y="192" width="3" height="3" fill="#F4BC50"/><rect x="217" y="205" width="4" height="4" fill="#F4BC50"/><rect x="253" y="205" width="3" height="3" fill="#F4BC50"/><rect x="235" y="192" width="4" height="4" fill="#F4BC50"/><rect x="235" y="218" width="3" height="3" fill="#F4BC50"/><rect x="217" y="192" width="4" height="4" fill="#F4BC50"/><rect x="253" y="192" width="3" height="3" fill="#F4BC50"/></g><g opacity="0" data-pose="slam3"><animate attributeName="opacity" values="0;0;0;0;0;0;0;1;0;0;0;0;0;0;0;0;0;0;0;0;0;0;0;0;0" keyTimes="0;0.0125;0.075;0.11875;0.15;0.2125;0.240625;0.29375;0.328125;0.375;0.40625;0.44375;0.4875;0.58125;0.61875;0.65;0.675;0.7125;0.74375;0.7625;0.80625;0.86875;0.90625;0.9875;1" dur="3.2s" begin="0s" repeatCount="indefinite" calcMode="discrete" fill="freeze"/><rect x="46" y="218" width="228" height="5" fill="#757568"/><rect x="58" y="223" width="7" height="10" fill="#757568"/><rect x="257" y="223" width="7" height="10" fill="#757568"/><g transform="translate(79 190)"><rect x="0" y="0" width="154" height="28" fill="#757568"/><rect x="3" y="3" width="148" height="21" fill="#000000"/><rect x="6" y="6" width="10" height="5" fill="#B6B6A5"/><rect x="20" y="6" width="10" height="5" fill="#B6B6A5"/><rect x="34" y="6" width="10" height="5" fill="#B6B6A5"/><rect x="48" y="6" width="10" height="5" fill="#B6B6A5"/><rect x="62" y="6" width="10" height="5" fill="#B6B6A5"/><rect x="76" y="6" width="10" height="5" fill="#B6B6A5"/><rect x="90" y="6" width="10" height="5" fill="#B6B6A5"/><rect x="104" y="6" width="10" height="5" fill="#B6B6A5"/><rect x="118" y="6" width="10" height="5" fill="#B6B6A5"/><rect x="132" y="6" width="10" height="5" fill="#B6B6A5"/><rect x="6" y="14" width="10" height="5" fill="#B6B6A5"/><rect x="20" y="14" width="10" height="5" fill="#B6B6A5"/><rect x="34" y="14" width="10" height="5" fill="#B6B6A5"/><rect x="48" y="14" width="10" height="5" fill="#B6B6A5"/><rect x="62" y="14" width="10" height="5" fill="#B6B6A5"/><rect x="76" y="14" width="10" height="5" fill="#B6B6A5"/><rect x="90" y="14" width="10" height="5" fill="#B6B6A5"/><rect x="104" y="14" width="10" height="5" fill="#B6B6A5"/><rect x="118" y="14" width="10" height="5" fill="#B6B6A5"/><rect x="132" y="14" width="10" height="5" fill="#B6B6A5"/><rect x="46" y="24" width="61" height="3" fill="#B6B6A5"/></g><rect x="62" y="205" width="4" height="4" fill="#F4BC50"/><rect x="108" y="205" width="3" height="3" fill="#F4BC50"/><rect x="85" y="188" width="4" height="4" fill="#F4BC50"/><rect x="85" y="222" width="3" height="3" fill="#F4BC50"/><rect x="62" y="188" width="4" height="4" fill="#F4BC50"/><rect x="108" y="188" width="3" height="3" fill="#F4BC50"/><rect x="212" y="205" width="4" height="4" fill="#F4BC50"/><rect x="258" y="205" width="3" height="3" fill="#F4BC50"/><rect x="235" y="188" width="4" height="4" fill="#F4BC50"/><rect x="235" y="222" width="3" height="3" fill="#F4BC50"/><rect x="212" y="188" width="4" height="4" fill="#F4BC50"/><rect x="258" y="188" width="3" height="3" fill="#F4BC50"/><path d="M158 181h5v9h-4v8h5v10h-6v-11h3v-7h-3Z" fill="#F1787D"/></g><g opacity="0" data-pose="strain"><animate attributeName="opacity" values="0;0;0;0;0;0;0;0;1;0;0;0;0;0;0;0;0;0;0;0;0;0;0;0;0" keyTimes="0;0.0125;0.075;0.11875;0.15;0.2125;0.240625;0.29375;0.328125;0.375;0.40625;0.44375;0.4875;0.58125;0.61875;0.65;0.675;0.7125;0.74375;0.7625;0.80625;0.86875;0.90625;0.9875;1" dur="3.2s" begin="0s" repeatCount="indefinite" calcMode="discrete" fill="freeze"/><rect x="46" y="218" width="228" height="5" fill="#757568"/><rect x="58" y="223" width="7" height="10" fill="#757568"/><rect x="257" y="223" width="7" height="10" fill="#757568"/><g transform="translate(83 181)"><rect x="0" y="0" width="154" height="28" fill="#757568"/><rect x="3" y="3" width="148" height="21" fill="#000000"/><rect x="6" y="6" width="10" height="5" fill="#B6B6A5"/><rect x="20" y="6" width="10" height="5" fill="#B6B6A5"/><rect x="34" y="6" width="10" height="5" fill="#B6B6A5"/><rect x="48" y="6" width="10" height="5" fill="#B6B6A5"/><rect x="62" y="6" width="10" height="5" fill="#B6B6A5"/><rect x="76" y="6" width="10" height="5" fill="#B6B6A5"/><rect x="90" y="6" width="10" height="5" fill="#B6B6A5"/><rect x="104" y="6" width="10" height="5" fill="#B6B6A5"/><rect x="118" y="6" width="10" height="5" fill="#B6B6A5"/><rect x="132" y="6" width="10" height="5" fill="#B6B6A5"/><rect x="6" y="14" width="10" height="5" fill="#B6B6A5"/><rect x="20" y="14" width="10" height="5" fill="#B6B6A5"/><rect x="34" y="14" width="10" height="5" fill="#B6B6A5"/><rect x="48" y="14" width="10" height="5" fill="#B6B6A5"/><rect x="62" y="14" width="10" height="5" fill="#B6B6A5"/><rect x="76" y="14" width="10" height="5" fill="#B6B6A5"/><rect x="90" y="14" width="10" height="5" fill="#B6B6A5"/><rect x="104" y="14" width="10" height="5" fill="#B6B6A5"/><rect x="118" y="14" width="10" height="5" fill="#B6B6A5"/><rect x="132" y="14" width="10" height="5" fill="#B6B6A5"/><rect x="46" y="24" width="61" height="3" fill="#B6B6A5"/></g><path d="M158 181h5v9h-4v8h5v10h-6v-11h3v-7h-3Z" fill="#F1787D"/></g><g opacity="0" data-pose="crack"><animate attributeName="opacity" values="0;0;0;0;0;0;0;0;0;1;0;0;0;0;0;0;0;0;0;0;0;0;0;0;0" keyTimes="0;0.0125;0.075;0.11875;0.15;0.2125;0.240625;0.29375;0.328125;0.375;0.40625;0.44375;0.4875;0.58125;0.61875;0.65;0.675;0.7125;0.74375;0.7625;0.80625;0.86875;0.90625;0.9875;1" dur="3.2s" begin="0s" repeatCount="indefinite" calcMode="discrete" fill="freeze"/><rect x="46" y="218" width="228" height="5" fill="#757568"/><rect x="58" y="223" width="7" height="10" fill="#757568"/><rect x="257" y="223" width="7" height="10" fill="#757568"/><g data-part="broken-left"><g transform="translate(78 182)"><g transform="translate(0 0)"><rect x="0" y="0" width="69" height="28" fill="#757568"/><rect x="3" y="3" width="63" height="21" fill="#000000"/><rect x="6" y="6" width="10" height="5" fill="#B6B6A5"/><rect x="20" y="6" width="10" height="5" fill="#B6B6A5"/><rect x="34" y="6" width="10" height="5" fill="#B6B6A5"/><rect x="48" y="6" width="10" height="5" fill="#B6B6A5"/><rect x="6" y="14" width="10" height="5" fill="#B6B6A5"/><rect x="20" y="14" width="10" height="5" fill="#B6B6A5"/><rect x="34" y="14" width="10" height="5" fill="#B6B6A5"/><rect x="48" y="14" width="10" height="5" fill="#B6B6A5"/><rect x="20" y="24" width="27" height="3" fill="#B6B6A5"/></g><path d="M69 0h7v6h-5v6h6v6h-7v10h-1Z" fill="#B6B6A5"/></g></g><g data-part="broken-right"><g transform="translate(173 185)"><g transform="translate(0 0)"><rect x="0" y="0" width="69" height="28" fill="#757568"/><rect x="3" y="3" width="63" height="21" fill="#000000"/><rect x="6" y="6" width="10" height="5" fill="#B6B6A5"/><rect x="20" y="6" width="10" height="5" fill="#B6B6A5"/><rect x="34" y="6" width="10" height="5" fill="#B6B6A5"/><rect x="48" y="6" width="10" height="5" fill="#B6B6A5"/><rect x="6" y="14" width="10" height="5" fill="#B6B6A5"/><rect x="20" y="14" width="10" height="5" fill="#B6B6A5"/><rect x="34" y="14" width="10" height="5" fill="#B6B6A5"/><rect x="48" y="14" width="10" height="5" fill="#B6B6A5"/><rect x="20" y="24" width="27" height="3" fill="#B6B6A5"/></g><path d="M0 0h-7v6h5v6h-6v6h7v10h1Z" fill="#B6B6A5"/></g></g><rect x="135" y="188" width="4" height="4" fill="#F4BC50"/><rect x="181" y="188" width="3" height="3" fill="#F4BC50"/><rect x="158" y="171" width="4" height="4" fill="#F4BC50"/><rect x="158" y="205" width="3" height="3" fill="#F4BC50"/><rect x="135" y="171" width="4" height="4" fill="#F4BC50"/><rect x="181" y="171" width="3" height="3" fill="#F4BC50"/><path d="M154 177h5v10h7v11h-5v-7h-7Z" fill="#F1787D"/></g><g opacity="0" data-pose="split"><animate attributeName="opacity" values="0;0;0;0;0;0;0;0;0;0;1;0;0;0;0;0;0;0;0;0;0;0;0;0;0" keyTimes="0;0.0125;0.075;0.11875;0.15;0.2125;0.240625;0.29375;0.328125;0.375;0.40625;0.44375;0.4875;0.58125;0.61875;0.65;0.675;0.7125;0.74375;0.7625;0.80625;0.86875;0.90625;0.9875;1" dur="3.2s" begin="0s" repeatCount="indefinite" calcMode="discrete" fill="freeze"/><rect x="46" y="218" width="228" height="5" fill="#757568"/><rect x="58" y="223" width="7" height="10" fill="#757568"/><rect x="257" y="223" width="7" height="10" fill="#757568"/><g data-part="broken-left"><g transform="translate(63 176)"><g transform="translate(0 0)"><rect x="0" y="0" width="69" height="28" fill="#757568"/><rect x="3" y="3" width="63" height="21" fill="#000000"/><rect x="6" y="6" width="10" height="5" fill="#B6B6A5"/><rect x="20" y="6" width="10" height="5" fill="#B6B6A5"/><rect x="34" y="6" width="10" height="5" fill="#B6B6A5"/><rect x="48" y="6" width="10" height="5" fill="#B6B6A5"/><rect x="6" y="14" width="10" height="5" fill="#B6B6A5"/><rect x="20" y="14" width="10" height="5" fill="#B6B6A5"/><rect x="34" y="14" width="10" height="5" fill="#B6B6A5"/><rect x="48" y="14" width="10" height="5" fill="#B6B6A5"/><rect x="20" y="24" width="27" height="3" fill="#B6B6A5"/></g><path d="M69 0h7v6h-5v6h6v6h-7v10h-1Z" fill="#B6B6A5"/></g></g><g data-part="broken-right"><g transform="translate(188 179)"><g transform="translate(0 0)"><rect x="0" y="0" width="69" height="28" fill="#757568"/><rect x="3" y="3" width="63" height="21" fill="#000000"/><rect x="6" y="6" width="10" height="5" fill="#B6B6A5"/><rect x="20" y="6" width="10" height="5" fill="#B6B6A5"/><rect x="34" y="6" width="10" height="5" fill="#B6B6A5"/><rect x="48" y="6" width="10" height="5" fill="#B6B6A5"/><rect x="6" y="14" width="10" height="5" fill="#B6B6A5"/><rect x="20" y="14" width="10" height="5" fill="#B6B6A5"/><rect x="34" y="14" width="10" height="5" fill="#B6B6A5"/><rect x="48" y="14" width="10" height="5" fill="#B6B6A5"/><rect x="20" y="24" width="27" height="3" fill="#B6B6A5"/></g><path d="M0 0h-7v6h5v6h-6v6h7v10h1Z" fill="#B6B6A5"/></g></g><rect x="135" y="188" width="4" height="4" fill="#F4BC50"/><rect x="181" y="188" width="3" height="3" fill="#F4BC50"/><rect x="158" y="171" width="4" height="4" fill="#F4BC50"/><rect x="158" y="205" width="3" height="3" fill="#F4BC50"/><rect x="135" y="171" width="4" height="4" fill="#F4BC50"/><rect x="181" y="171" width="3" height="3" fill="#F4BC50"/><path d="M154 177h5v10h7v11h-5v-7h-7Z" fill="#F1787D"/></g><g opacity="0" data-pose="apart"><animate attributeName="opacity" values="0;0;0;0;0;0;0;0;0;0;0;1;0;0;0;0;0;0;0;0;0;0;0;0;0" keyTimes="0;0.0125;0.075;0.11875;0.15;0.2125;0.240625;0.29375;0.328125;0.375;0.40625;0.44375;0.4875;0.58125;0.61875;0.65;0.675;0.7125;0.74375;0.7625;0.80625;0.86875;0.90625;0.9875;1" dur="3.2s" begin="0s" repeatCount="indefinite" calcMode="discrete" fill="freeze"/><rect x="46" y="218" width="228" height="5" fill="#757568"/><rect x="58" y="223" width="7" height="10" fill="#757568"/><rect x="257" y="223" width="7" height="10" fill="#757568"/><g data-part="broken-left"><g transform="translate(47 176)"><g transform="translate(0 0)"><rect x="0" y="0" width="69" height="28" fill="#757568"/><rect x="3" y="3" width="63" height="21" fill="#000000"/><rect x="6" y="6" width="10" height="5" fill="#B6B6A5"/><rect x="20" y="6" width="10" height="5" fill="#B6B6A5"/><rect x="34" y="6" width="10" height="5" fill="#B6B6A5"/><rect x="48" y="6" width="10" height="5" fill="#B6B6A5"/><rect x="6" y="14" width="10" height="5" fill="#B6B6A5"/><rect x="20" y="14" width="10" height="5" fill="#B6B6A5"/><rect x="34" y="14" width="10" height="5" fill="#B6B6A5"/><rect x="48" y="14" width="10" height="5" fill="#B6B6A5"/><rect x="20" y="24" width="27" height="3" fill="#B6B6A5"/></g><path d="M69 0h7v6h-5v6h6v6h-7v10h-1Z" fill="#B6B6A5"/></g></g><g data-part="broken-right"><g transform="translate(204 179)"><g transform="translate(0 0)"><rect x="0" y="0" width="69" height="28" fill="#757568"/><rect x="3" y="3" width="63" height="21" fill="#000000"/><rect x="6" y="6" width="10" height="5" fill="#B6B6A5"/><rect x="20" y="6" width="10" height="5" fill="#B6B6A5"/><rect x="34" y="6" width="10" height="5" fill="#B6B6A5"/><rect x="48" y="6" width="10" height="5" fill="#B6B6A5"/><rect x="6" y="14" width="10" height="5" fill="#B6B6A5"/><rect x="20" y="14" width="10" height="5" fill="#B6B6A5"/><rect x="34" y="14" width="10" height="5" fill="#B6B6A5"/><rect x="48" y="14" width="10" height="5" fill="#B6B6A5"/><rect x="20" y="24" width="27" height="3" fill="#B6B6A5"/></g><path d="M0 0h-7v6h5v6h-6v6h7v10h1Z" fill="#B6B6A5"/></g></g></g><g opacity="0" data-pose="fly"><animate attributeName="opacity" values="0;0;0;0;0;0;0;0;0;0;0;0;1;0;0;0;0;0;0;0;0;0;0;0;0" keyTimes="0;0.0125;0.075;0.11875;0.15;0.2125;0.240625;0.29375;0.328125;0.375;0.40625;0.44375;0.4875;0.58125;0.61875;0.65;0.675;0.7125;0.74375;0.7625;0.80625;0.86875;0.90625;0.9875;1" dur="3.2s" begin="0s" repeatCount="indefinite" calcMode="discrete" fill="freeze"/><rect x="46" y="218" width="228" height="5" fill="#757568"/><rect x="58" y="223" width="7" height="10" fill="#757568"/><rect x="257" y="223" width="7" height="10" fill="#757568"/><g data-part="broken-left"><g transform="translate(27 185)"><g transform="translate(0 0)"><rect x="0" y="0" width="69" height="28" fill="#757568"/><rect x="3" y="3" width="63" height="21" fill="#000000"/><rect x="6" y="6" width="10" height="5" fill="#B6B6A5"/><rect x="20" y="6" width="10" height="5" fill="#B6B6A5"/><rect x="34" y="6" width="10" height="5" fill="#B6B6A5"/><rect x="48" y="6" width="10" height="5" fill="#B6B6A5"/><rect x="6" y="14" width="10" height="5" fill="#B6B6A5"/><rect x="20" y="14" width="10" height="5" fill="#B6B6A5"/><rect x="34" y="14" width="10" height="5" fill="#B6B6A5"/><rect x="48" y="14" width="10" height="5" fill="#B6B6A5"/><rect x="20" y="24" width="27" height="3" fill="#B6B6A5"/></g><path d="M69 0h7v6h-5v6h6v6h-7v10h-1Z" fill="#B6B6A5"/></g></g><g data-part="broken-right"><g transform="translate(224 188)"><g transform="translate(0 0)"><rect x="0" y="0" width="69" height="28" fill="#757568"/><rect x="3" y="3" width="63" height="21" fill="#000000"/><rect x="6" y="6" width="10" height="5" fill="#B6B6A5"/><rect x="20" y="6" width="10" height="5" fill="#B6B6A5"/><rect x="34" y="6" width="10" height="5" fill="#B6B6A5"/><rect x="48" y="6" width="10" height="5" fill="#B6B6A5"/><rect x="6" y="14" width="10" height="5" fill="#B6B6A5"/><rect x="20" y="14" width="10" height="5" fill="#B6B6A5"/><rect x="34" y="14" width="10" height="5" fill="#B6B6A5"/><rect x="48" y="14" width="10" height="5" fill="#B6B6A5"/><rect x="20" y="24" width="27" height="3" fill="#B6B6A5"/></g><path d="M0 0h-7v6h5v6h-6v6h7v10h1Z" fill="#B6B6A5"/></g></g></g><g opacity="0" data-pose="fallen"><animate attributeName="opacity" values="0;0;0;0;0;0;0;0;0;0;0;0;0;1;0;0;0;0;0;0;0;0;0;0;0" keyTimes="0;0.0125;0.075;0.11875;0.15;0.2125;0.240625;0.29375;0.328125;0.375;0.40625;0.44375;0.4875;0.58125;0.61875;0.65;0.675;0.7125;0.74375;0.7625;0.80625;0.86875;0.90625;0.9875;1" dur="3.2s" begin="0s" repeatCount="indefinite" calcMode="discrete" fill="freeze"/><rect x="46" y="218" width="228" height="5" fill="#757568"/><rect x="58" y="223" width="7" height="10" fill="#757568"/><rect x="257" y="223" width="7" height="10" fill="#757568"/><g data-part="broken-left"><g transform="translate(19 206)"><g transform="translate(0 0)"><rect x="0" y="0" width="69" height="28" fill="#757568"/><rect x="3" y="3" width="63" height="21" fill="#000000"/><rect x="6" y="6" width="10" height="5" fill="#B6B6A5"/><rect x="20" y="6" width="10" height="5" fill="#B6B6A5"/><rect x="34" y="6" width="10" height="5" fill="#B6B6A5"/><rect x="48" y="6" width="10" height="5" fill="#B6B6A5"/><rect x="6" y="14" width="10" height="5" fill="#B6B6A5"/><rect x="20" y="14" width="10" height="5" fill="#B6B6A5"/><rect x="34" y="14" width="10" height="5" fill="#B6B6A5"/><rect x="48" y="14" width="10" height="5" fill="#B6B6A5"/><rect x="20" y="24" width="27" height="3" fill="#B6B6A5"/></g><path d="M69 0h7v6h-5v6h6v6h-7v10h-1Z" fill="#B6B6A5"/></g></g><g data-part="broken-right"><g transform="translate(232 209)"><g transform="translate(0 0)"><rect x="0" y="0" width="69" height="28" fill="#757568"/><rect x="3" y="3" width="63" height="21" fill="#000000"/><rect x="6" y="6" width="10" height="5" fill="#B6B6A5"/><rect x="20" y="6" width="10" height="5" fill="#B6B6A5"/><rect x="34" y="6" width="10" height="5" fill="#B6B6A5"/><rect x="48" y="6" width="10" height="5" fill="#B6B6A5"/><rect x="6" y="14" width="10" height="5" fill="#B6B6A5"/><rect x="20" y="14" width="10" height="5" fill="#B6B6A5"/><rect x="34" y="14" width="10" height="5" fill="#B6B6A5"/><rect x="48" y="14" width="10" height="5" fill="#B6B6A5"/><rect x="20" y="24" width="27" height="3" fill="#B6B6A5"/></g><path d="M0 0h-7v6h5v6h-6v6h7v10h1Z" fill="#B6B6A5"/></g></g></g><g opacity="0" data-pose="fall-away"><animate attributeName="opacity" values="0;0;0;0;0;0;0;0;0;0;0;0;0;0;1;0;0;0;0;0;0;0;0;0;0" keyTimes="0;0.0125;0.075;0.11875;0.15;0.2125;0.240625;0.29375;0.328125;0.375;0.40625;0.44375;0.4875;0.58125;0.61875;0.65;0.675;0.7125;0.74375;0.7625;0.80625;0.86875;0.90625;0.9875;1" dur="3.2s" begin="0s" repeatCount="indefinite" calcMode="discrete" fill="freeze"/><rect x="46" y="218" width="228" height="5" fill="#757568"/><rect x="58" y="223" width="7" height="10" fill="#757568"/><rect x="257" y="223" width="7" height="10" fill="#757568"/><g data-part="broken-left"><g transform="translate(15 228)"><g transform="translate(0 0)"><rect x="0" y="0" width="69" height="28" fill="#757568"/><rect x="3" y="3" width="63" height="21" fill="#000000"/><rect x="6" y="6" width="10" height="5" fill="#B6B6A5"/><rect x="20" y="6" width="10" height="5" fill="#B6B6A5"/><rect x="34" y="6" width="10" height="5" fill="#B6B6A5"/><rect x="48" y="6" width="10" height="5" fill="#B6B6A5"/><rect x="6" y="14" width="10" height="5" fill="#B6B6A5"/><rect x="20" y="14" width="10" height="5" fill="#B6B6A5"/><rect x="34" y="14" width="10" height="5" fill="#B6B6A5"/><rect x="48" y="14" width="10" height="5" fill="#B6B6A5"/><rect x="20" y="24" width="27" height="3" fill="#B6B6A5"/></g><path d="M69 0h7v6h-5v6h6v6h-7v10h-1Z" fill="#B6B6A5"/></g></g><g data-part="broken-right"><g transform="translate(236 231)"><g transform="translate(0 0)"><rect x="0" y="0" width="69" height="28" fill="#757568"/><rect x="3" y="3" width="63" height="21" fill="#000000"/><rect x="6" y="6" width="10" height="5" fill="#B6B6A5"/><rect x="20" y="6" width="10" height="5" fill="#B6B6A5"/><rect x="34" y="6" width="10" height="5" fill="#B6B6A5"/><rect x="48" y="6" width="10" height="5" fill="#B6B6A5"/><rect x="6" y="14" width="10" height="5" fill="#B6B6A5"/><rect x="20" y="14" width="10" height="5" fill="#B6B6A5"/><rect x="34" y="14" width="10" height="5" fill="#B6B6A5"/><rect x="48" y="14" width="10" height="5" fill="#B6B6A5"/><rect x="20" y="24" width="27" height="3" fill="#B6B6A5"/></g><path d="M0 0h-7v6h5v6h-6v6h7v10h1Z" fill="#B6B6A5"/></g></g></g><g opacity="0" data-pose="gone"><animate attributeName="opacity" values="0;0;0;0;0;0;0;0;0;0;0;0;0;0;0;1;0;0;0;0;0;0;0;0;0" keyTimes="0;0.0125;0.075;0.11875;0.15;0.2125;0.240625;0.29375;0.328125;0.375;0.40625;0.44375;0.4875;0.58125;0.61875;0.65;0.675;0.7125;0.74375;0.7625;0.80625;0.86875;0.90625;0.9875;1" dur="3.2s" begin="0s" repeatCount="indefinite" calcMode="discrete" fill="freeze"/><rect x="46" y="218" width="228" height="5" fill="#757568"/><rect x="58" y="223" width="7" height="10" fill="#757568"/><rect x="257" y="223" width="7" height="10" fill="#757568"/></g><g opacity="0" data-pose="feed"><animate attributeName="opacity" values="0;0;0;0;0;0;0;0;0;0;0;0;0;0;0;0;1;0;0;0;0;0;0;0;0" keyTimes="0;0.0125;0.075;0.11875;0.15;0.2125;0.240625;0.29375;0.328125;0.375;0.40625;0.44375;0.4875;0.58125;0.61875;0.65;0.675;0.7125;0.74375;0.7625;0.80625;0.86875;0.90625;0.9875;1" dur="3.2s" begin="0s" repeatCount="indefinite" calcMode="discrete" fill="freeze"/><rect x="46" y="218" width="228" height="5" fill="#757568"/><rect x="58" y="223" width="7" height="10" fill="#757568"/><rect x="257" y="223" width="7" height="10" fill="#757568"/><g transform="translate(83 233)"><rect x="0" y="0" width="154" height="28" fill="#757568"/><rect x="3" y="3" width="148" height="21" fill="#000000"/><rect x="6" y="6" width="10" height="5" fill="#B6B6A5"/><rect x="20" y="6" width="10" height="5" fill="#B6B6A5"/><rect x="34" y="6" width="10" height="5" fill="#B6B6A5"/><rect x="48" y="6" width="10" height="5" fill="#B6B6A5"/><rect x="62" y="6" width="10" height="5" fill="#B6B6A5"/><rect x="76" y="6" width="10" height="5" fill="#B6B6A5"/><rect x="90" y="6" width="10" height="5" fill="#B6B6A5"/><rect x="104" y="6" width="10" height="5" fill="#B6B6A5"/><rect x="118" y="6" width="10" height="5" fill="#B6B6A5"/><rect x="132" y="6" width="10" height="5" fill="#B6B6A5"/><rect x="6" y="14" width="10" height="5" fill="#B6B6A5"/><rect x="20" y="14" width="10" height="5" fill="#B6B6A5"/><rect x="34" y="14" width="10" height="5" fill="#B6B6A5"/><rect x="48" y="14" width="10" height="5" fill="#B6B6A5"/><rect x="62" y="14" width="10" height="5" fill="#B6B6A5"/><rect x="76" y="14" width="10" height="5" fill="#B6B6A5"/><rect x="90" y="14" width="10" height="5" fill="#B6B6A5"/><rect x="104" y="14" width="10" height="5" fill="#B6B6A5"/><rect x="118" y="14" width="10" height="5" fill="#B6B6A5"/><rect x="132" y="14" width="10" height="5" fill="#B6B6A5"/><rect x="46" y="24" width="61" height="3" fill="#B6B6A5"/></g></g><g opacity="0" data-pose="reload"><animate attributeName="opacity" values="0;0;0;0;0;0;0;0;0;0;0;0;0;0;0;0;0;1;0;0;0;0;0;0;0" keyTimes="0;0.0125;0.075;0.11875;0.15;0.2125;0.240625;0.29375;0.328125;0.375;0.40625;0.44375;0.4875;0.58125;0.61875;0.65;0.675;0.7125;0.74375;0.7625;0.80625;0.86875;0.90625;0.9875;1" dur="3.2s" begin="0s" repeatCount="indefinite" calcMode="discrete" fill="freeze"/><rect x="46" y="218" width="228" height="5" fill="#757568"/><rect x="58" y="223" width="7" height="10" fill="#757568"/><rect x="257" y="223" width="7" height="10" fill="#757568"/><g transform="translate(83 205)"><rect x="0" y="0" width="154" height="28" fill="#757568"/><rect x="3" y="3" width="148" height="21" fill="#000000"/><rect x="6" y="6" width="10" height="5" fill="#B6B6A5"/><rect x="20" y="6" width="10" height="5" fill="#B6B6A5"/><rect x="34" y="6" width="10" height="5" fill="#B6B6A5"/><rect x="48" y="6" width="10" height="5" fill="#B6B6A5"/><rect x="62" y="6" width="10" height="5" fill="#B6B6A5"/><rect x="76" y="6" width="10" height="5" fill="#B6B6A5"/><rect x="90" y="6" width="10" height="5" fill="#B6B6A5"/><rect x="104" y="6" width="10" height="5" fill="#B6B6A5"/><rect x="118" y="6" width="10" height="5" fill="#B6B6A5"/><rect x="132" y="6" width="10" height="5" fill="#B6B6A5"/><rect x="6" y="14" width="10" height="5" fill="#B6B6A5"/><rect x="20" y="14" width="10" height="5" fill="#B6B6A5"/><rect x="34" y="14" width="10" height="5" fill="#B6B6A5"/><rect x="48" y="14" width="10" height="5" fill="#B6B6A5"/><rect x="62" y="14" width="10" height="5" fill="#B6B6A5"/><rect x="76" y="14" width="10" height="5" fill="#B6B6A5"/><rect x="90" y="14" width="10" height="5" fill="#B6B6A5"/><rect x="104" y="14" width="10" height="5" fill="#B6B6A5"/><rect x="118" y="14" width="10" height="5" fill="#B6B6A5"/><rect x="132" y="14" width="10" height="5" fill="#B6B6A5"/><rect x="46" y="24" width="61" height="3" fill="#B6B6A5"/></g></g><g opacity="0" data-pose="tap"><animate attributeName="opacity" values="0;0;0;0;0;0;0;0;0;0;0;0;0;0;0;0;0;0;0;1;0;1;0;0;0" keyTimes="0;0.0125;0.075;0.11875;0.15;0.2125;0.240625;0.29375;0.328125;0.375;0.40625;0.44375;0.4875;0.58125;0.61875;0.65;0.675;0.7125;0.74375;0.7625;0.80625;0.86875;0.90625;0.9875;1" dur="3.2s" begin="0s" repeatCount="indefinite" calcMode="discrete" fill="freeze"/><rect x="46" y="218" width="228" height="5" fill="#757568"/><rect x="58" y="223" width="7" height="10" fill="#757568"/><rect x="257" y="223" width="7" height="10" fill="#757568"/><g transform="translate(83 190)"><rect x="0" y="0" width="154" height="28" fill="#757568"/><rect x="3" y="3" width="148" height="21" fill="#000000"/><rect x="6" y="6" width="10" height="5" fill="#B6B6A5"/><rect x="20" y="6" width="10" height="5" fill="#B6B6A5"/><rect x="34" y="6" width="10" height="5" fill="#B6B6A5"/><rect x="48" y="6" width="10" height="5" fill="#B6B6A5"/><rect x="62" y="6" width="10" height="5" fill="#B6B6A5"/><rect x="76" y="6" width="10" height="5" fill="#B6B6A5"/><rect x="90" y="6" width="10" height="5" fill="#B6B6A5"/><rect x="104" y="6" width="10" height="5" fill="#B6B6A5"/><rect x="118" y="6" width="10" height="5" fill="#B6B6A5"/><rect x="132" y="6" width="10" height="5" fill="#B6B6A5"/><rect x="6" y="14" width="10" height="5" fill="#B6B6A5"/><rect x="20" y="14" width="10" height="5" fill="#B6B6A5"/><rect x="34" y="14" width="10" height="5" fill="#B6B6A5"/><rect x="48" y="14" width="10" height="5" fill="#B6B6A5"/><rect x="62" y="14" width="10" height="5" fill="#B6B6A5"/><rect x="76" y="14" width="10" height="5" fill="#B6B6A5"/><rect x="90" y="14" width="10" height="5" fill="#B6B6A5"/><rect x="104" y="14" width="10" height="5" fill="#B6B6A5"/><rect x="118" y="14" width="10" height="5" fill="#B6B6A5"/><rect x="132" y="14" width="10" height="5" fill="#B6B6A5"/><rect x="46" y="24" width="61" height="3" fill="#B6B6A5"/></g></g></g><g data-part="working-activity"><animate attributeName="opacity" values="1;1;0;1;1;0;1;1;0;1;1;1" keyTimes="0;0.0125;0.08333333;0.16666667;0.33333333;0.41666667;0.5;0.66666667;0.75;0.83333333;0.9875;1" dur="3.2s" begin="0s" repeatCount="indefinite" calcMode="discrete" fill="freeze"/><rect x="152" y="234" width="3" height="3" fill="#71B7F5"/><rect x="158" y="234" width="3" height="3" fill="#B6B6A5"/><rect x="164" y="234" width="3" height="3" fill="#71B7F5"/></g></g></g><g class="boop-still"><g transform="translate(0 0)"><g data-part="face"><g data-part="gaze"><g data-part="eyes"><g><path d="M69 70h16v1h1v18h-1v1H69v-1h-1V71h1Z" fill="#F8F7EF"/><path d="M91 70h16v1h1v18h-1v1H91v-1h-1V71h1Z" fill="#F8F7EF"/><path d="M69 94h16v1h1v18h-1v1H69v-1h-1V95h1Z" fill="#F8F7EF"/><path d="M91 94h16v1h1v18h-1v1H91v-1h-1V95h1Z" fill="#F8F7EF"/><path d="M213 70h16v1h1v18h-1v1H213v-1h-1V71h1Z" fill="#F8F7EF"/><path d="M235 70h16v1h1v18h-1v1H235v-1h-1V71h1Z" fill="#F8F7EF"/><path d="M213 94h16v1h1v18h-1v1H213v-1h-1V95h1Z" fill="#F8F7EF"/><path d="M235 94h16v1h1v18h-1v1H235v-1h-1V95h1Z" fill="#F8F7EF"/><rect x="68" y="70" width="8" height="2" fill="#000000"/><rect x="76" y="70" width="8" height="6" fill="#000000"/><rect x="84" y="70" width="8" height="10" fill="#000000"/><rect x="92" y="70" width="8" height="14" fill="#000000"/><rect x="100" y="70" width="8" height="18" fill="#000000"/><rect x="212" y="70" width="8" height="18" fill="#000000"/><rect x="220" y="70" width="8" height="14" fill="#000000"/><rect x="228" y="70" width="8" height="10" fill="#000000"/><rect x="236" y="70" width="8" height="6" fill="#000000"/><rect x="244" y="70" width="8" height="2" fill="#000000"/></g><g opacity="0"><path d="M69 99h38v1h1v3h-1v1H69v-1h-1V100h1Z" fill="#F8F7EF"/><path d="M213 99h38v1h1v3h-1v1H213v-1h-1V100h1Z" fill="#F8F7EF"/></g></g></g><path d="M52 124h12v1h1v7h-1v1H52v-1h-1V125h1Z" fill="#F1787D"/><path d="M70 124h12v1h1v7h-1v1H70v-1h-1V125h1Z" fill="#F1787D"/><path d="M238 124h12v1h1v7h-1v1H238v-1h-1V125h1Z" fill="#F1787D"/><path d="M256 124h12v1h1v7h-1v1H256v-1h-1V125h1Z" fill="#F1787D"/><g data-part="mouth"><path d="M141 135h6v-6h26v6h6v12h-38Z" fill="#F8F7EF"/><rect x="146" y="140" width="28" height="7" fill="#000000"/><rect x="152" y="130" width="3" height="6" fill="#000000"/><rect x="165" y="130" width="3" height="6" fill="#000000"/></g><g transform="translate(270 41)"><g data-part="anger-mark"><path d="M0 6h6V0h5v11H0ZM17 0h5v6h6v5H17ZM0 17h11v11H6v-6H0ZM17 17h11v5h-6v6h-5Z" fill="#FF596C"/></g></g></g></g><g data-part="working-prop" data-action="snap"><g data-part="story-snap" data-cycle-seconds="3.2"><rect x="46" y="218" width="228" height="5" fill="#757568"/><rect x="58" y="223" width="7" height="10" fill="#757568"/><rect x="257" y="223" width="7" height="10" fill="#757568"/><g data-part="broken-left"><g transform="translate(47 176)"><g transform="translate(0 0)"><rect x="0" y="0" width="69" height="28" fill="#757568"/><rect x="3" y="3" width="63" height="21" fill="#000000"/><rect x="6" y="6" width="10" height="5" fill="#B6B6A5"/><rect x="20" y="6" width="10" height="5" fill="#B6B6A5"/><rect x="34" y="6" width="10" height="5" fill="#B6B6A5"/><rect x="48" y="6" width="10" height="5" fill="#B6B6A5"/><rect x="6" y="14" width="10" height="5" fill="#B6B6A5"/><rect x="20" y="14" width="10" height="5" fill="#B6B6A5"/><rect x="34" y="14" width="10" height="5" fill="#B6B6A5"/><rect x="48" y="14" width="10" height="5" fill="#B6B6A5"/><rect x="20" y="24" width="27" height="3" fill="#B6B6A5"/></g><path d="M69 0h7v6h-5v6h6v6h-7v10h-1Z" fill="#B6B6A5"/></g></g><g data-part="broken-right"><g transform="translate(204 179)"><g transform="translate(0 0)"><rect x="0" y="0" width="69" height="28" fill="#757568"/><rect x="3" y="3" width="63" height="21" fill="#000000"/><rect x="6" y="6" width="10" height="5" fill="#B6B6A5"/><rect x="20" y="6" width="10" height="5" fill="#B6B6A5"/><rect x="34" y="6" width="10" height="5" fill="#B6B6A5"/><rect x="48" y="6" width="10" height="5" fill="#B6B6A5"/><rect x="6" y="14" width="10" height="5" fill="#B6B6A5"/><rect x="20" y="14" width="10" height="5" fill="#B6B6A5"/><rect x="34" y="14" width="10" height="5" fill="#B6B6A5"/><rect x="48" y="14" width="10" height="5" fill="#B6B6A5"/><rect x="20" y="24" width="27" height="3" fill="#B6B6A5"/></g><path d="M0 0h-7v6h5v6h-6v6h7v10h1Z" fill="#B6B6A5"/></g></g></g><g data-part="working-activity"><rect x="152" y="234" width="3" height="3" fill="#71B7F5"/><rect x="158" y="234" width="3" height="3" fill="#B6B6A5"/><rect x="164" y="234" width="3" height="3" fill="#71B7F5"/></g></g></g></g></svg>
