<svg xmlns="http://www.w3.org/2000/svg" width="320" height="240" viewBox="0 0 320 240" id="boop-alert-curious-3" data-mood="curious" data-state="needs_you" data-variant="3" data-loop-seconds="6.4" data-text-top="192" role="img" aria-labelledby="boop-alert-curious-3-title boop-alert-curious-3-desc" shape-rendering="crispEdges" overflow="hidden"><title id="boop-alert-curious-3-title">Curious · Who is out there?</title><desc id="boop-alert-curious-3-desc">A chunky periscope extends, changes direction and nudges the screen. Boop uses inquisitive gestures exploring different spots, with matching face recoil and material-specific contact sounds. Props and soft paws use large filled pixel surfaces, without cursor marks or detailed hands. The signature ding reveals a large request signal reduced to 80 percent size. The bottom 48 pixels remain clear for text. It reveals Boop again and stays visibly pending. No approval or completion is implied.</desc><defs><clipPath id="boop-alert-curious-3-art-area" clipPathUnits="userSpaceOnUse"><rect width="320" height="192"/></clipPath></defs><style>#boop-alert-curious-3 .alert-still{display:none}@media(prefers-reduced-motion:reduce){#boop-alert-curious-3 .alert-motion{display:none}#boop-alert-curious-3 .alert-still{display:inline}}</style><rect width="320" height="240" fill="#000000"/><g data-part="notification-stage" clip-path="url(#boop-alert-curious-3-art-area)"><g class="alert-motion"><g transform="translate(0 24)"><g data-part="face"><animateTransform attributeName="transform" type="translate" values="0 0;0 0;-1 -1;-2 -2;-2 2;1 -1;0 0;0 0;1 -1;2 -2;2 2;-1 -1;0 0;0 0;1 -1;2 -2;2 2;-1 -1;0 0;0 0;0 0;2 -2;0 0;2 -2;0 0;0 0;0 0;0 0;0 0;0 0" keyTimes="0;0.00625;0.05;0.06375;0.075;0.0834375;0.09328125;0.103125;0.134375;0.148125;0.159375;0.1678125;0.17765625;0.1875;0.19975;0.2102;0.21875;0.2271875;0.23703125;0.246875;0.275;0.3125;0.34375;0.384375;0.41875;0.5609375;0.5890625;0.6171875;0.99375;1" dur="6.4s" begin="0s" repeatCount="indefinite" calcMode="discrete" fill="freeze"/><g data-part="gaze"><g data-part="eyes"><g><animate attributeName="opacity" values="1;1;0;1;1;1" keyTimes="0;0.00625;0.78;0.805;0.99375;1" dur="6.4s" begin="0s" repeatCount="indefinite" calcMode="discrete" fill="freeze"/><g data-part="curious-eyes"><g opacity="1" data-frame="0"><animate attributeName="opacity" values="1;1;0;0;0;1;0;0;0;1;1" keyTimes="0;0.00625;0.125;0.25;0.375;0.5;0.625;0.75;0.875;0.99375;1" dur="6.4s" begin="0s" repeatCount="indefinite" calcMode="discrete" fill="freeze"/><path d="M75 82h10v1h1v10h-1v1H75v-1h-1V83h1Z" fill="#F8F7EF"/><path d="M91 82h10v1h1v10h-1v1H91v-1h-1V83h1Z" fill="#F8F7EF"/><path d="M75 98h10v1h1v10h-1v1H75v-1h-1V99h1Z" fill="#F8F7EF"/><path d="M91 98h10v1h1v10h-1v1H91v-1h-1V99h1Z" fill="#F8F7EF"/><path d="M202 53h27v1h1v27h-1v1H202v-1h-1V54h1Z" fill="#F8F7EF"/><path d="M235 53h27v1h1v27h-1v1H235v-1h-1V54h1Z" fill="#F8F7EF"/><path d="M202 86h27v1h1v27h-1v1H202v-1h-1V87h1Z" fill="#F8F7EF"/><path d="M235 86h27v1h1v27h-1v1H235v-1h-1V87h1Z" fill="#F8F7EF"/></g><g opacity="0" data-frame="1"><animate attributeName="opacity" values="0;0;1;0;0;0;1;0;0;0;0" keyTimes="0;0.00625;0.125;0.25;0.375;0.5;0.625;0.75;0.875;0.99375;1" dur="6.4s" begin="0s" repeatCount="indefinite" calcMode="discrete" fill="freeze"/><path d="M68 69h17v1h1v17h-1v1H68v-1h-1V70h1Z" fill="#F8F7EF"/><path d="M91 69h17v1h1v17h-1v1H91v-1h-1V70h1Z" fill="#F8F7EF"/><path d="M68 92h17v1h1v17h-1v1H68v-1h-1V93h1Z" fill="#F8F7EF"/><path d="M91 92h17v1h1v17h-1v1H91v-1h-1V93h1Z" fill="#F8F7EF"/><path d="M212 69h17v1h1v17h-1v1H212v-1h-1V70h1Z" fill="#F8F7EF"/><path d="M235 69h17v1h1v17h-1v1H235v-1h-1V70h1Z" fill="#F8F7EF"/><path d="M212 92h17v1h1v17h-1v1H212v-1h-1V93h1Z" fill="#F8F7EF"/><path d="M235 92h17v1h1v17h-1v1H235v-1h-1V93h1Z" fill="#F8F7EF"/></g><g opacity="0" data-frame="2"><animate attributeName="opacity" values="0;0;0;1;0;0;0;1;0;0;0" keyTimes="0;0.00625;0.125;0.25;0.375;0.5;0.625;0.75;0.875;0.99375;1" dur="6.4s" begin="0s" repeatCount="indefinite" calcMode="discrete" fill="freeze"/><path d="M58 53h27v1h1v27h-1v1H58v-1h-1V54h1Z" fill="#F8F7EF"/><path d="M91 53h27v1h1v27h-1v1H91v-1h-1V54h1Z" fill="#F8F7EF"/><path d="M58 86h27v1h1v27h-1v1H58v-1h-1V87h1Z" fill="#F8F7EF"/><path d="M91 86h27v1h1v27h-1v1H91v-1h-1V87h1Z" fill="#F8F7EF"/><path d="M219 82h10v1h1v10h-1v1H219v-1h-1V83h1Z" fill="#F8F7EF"/><path d="M235 82h10v1h1v10h-1v1H235v-1h-1V83h1Z" fill="#F8F7EF"/><path d="M219 98h10v1h1v10h-1v1H219v-1h-1V99h1Z" fill="#F8F7EF"/><path d="M235 98h10v1h1v10h-1v1H235v-1h-1V99h1Z" fill="#F8F7EF"/></g><g opacity="0" data-frame="3"><animate attributeName="opacity" values="0;0;0;0;1;0;0;0;1;0;0" keyTimes="0;0.00625;0.125;0.25;0.375;0.5;0.625;0.75;0.875;0.99375;1" dur="6.4s" begin="0s" repeatCount="indefinite" calcMode="discrete" fill="freeze"/><path d="M68 66h17v1h1v19h-1v1H68v-1h-1V67h1Z" fill="#F8F7EF"/><path d="M91 66h17v1h1v19h-1v1H91v-1h-1V67h1Z" fill="#F8F7EF"/><path d="M68 91h17v1h1v19h-1v1H68v-1h-1V92h1Z" fill="#F8F7EF"/><path d="M91 91h17v1h1v19h-1v1H91v-1h-1V92h1Z" fill="#F8F7EF"/><path d="M212 70h17v1h1v17h-1v1H212v-1h-1V71h1Z" fill="#F8F7EF"/><path d="M235 70h17v1h1v17h-1v1H235v-1h-1V71h1Z" fill="#F8F7EF"/><path d="M212 93h17v1h1v17h-1v1H212v-1h-1V94h1Z" fill="#F8F7EF"/><path d="M235 93h17v1h1v17h-1v1H235v-1h-1V94h1Z" fill="#F8F7EF"/></g></g></g><g opacity="0"><animate attributeName="opacity" values="0;0;1;0;0;0" keyTimes="0;0.00625;0.78;0.805;0.99375;1" dur="6.4s" begin="0s" repeatCount="indefinite" calcMode="discrete" fill="freeze"/><path d="M69 99h38v1h1v3h-1v1H69v-1h-1V100h1Z" fill="#F8F7EF"/><path d="M213 99h38v1h1v3h-1v1H213v-1h-1V100h1Z" fill="#F8F7EF"/></g></g></g><path d="M52 124h12v1h1v7h-1v1H52v-1h-1V125h1Z" fill="#F1787D"/><path d="M70 124h12v1h1v7h-1v1H70v-1h-1V125h1Z" fill="#F1787D"/><path d="M238 124h12v1h1v7h-1v1H238v-1h-1V125h1Z" fill="#F1787D"/><path d="M256 124h12v1h1v7h-1v1H256v-1h-1V125h1Z" fill="#F1787D"/><g data-part="mouth"><path d="M152 129h16v16h-16Zm4 4v8h8v-8Z" fill="#F8F7EF"/></g></g></g><g data-part="pending-request"><rect x="20" y="12" width="280" height="32" fill="#352915"/><rect x="20" y="40" width="280" height="4" fill="#F4BC50"/><rect x="32" y="17" width="7" height="11" fill="#F4BC50"/><rect x="32" y="40" width="7" height="5" fill="#F4BC50"/><rect x="137" y="24" width="8" height="8" fill="#F4BC50"/><rect x="154" y="24" width="8" height="8" fill="#F4BC50"/><rect x="171" y="24" width="8" height="8" fill="#F4BC50"/><rect x="271" y="21" width="12" height="12" fill="#F4BC50"/></g><g data-part="request-alert"><g opacity="1" data-pose="home"><animate attributeName="opacity" values="1;1;0;0;0;0;0;0;0;0;0;0;0;0;0;0;0;0;0;0;0;0;0;0;0;0;0;1;1;1" keyTimes="0;0.00625;0.05;0.06375;0.075;0.0834375;0.09328125;0.103125;0.134375;0.148125;0.159375;0.1678125;0.17765625;0.1875;0.19975;0.2102;0.21875;0.2271875;0.23703125;0.246875;0.275;0.3125;0.34375;0.384375;0.41875;0.5609375;0.5890625;0.6171875;0.99375;1" dur="6.4s" begin="0s" repeatCount="indefinite" calcMode="discrete" fill="freeze"/></g><g opacity="0" data-pose="prepare-0"><animate attributeName="opacity" values="0;0;1;0;0;0;0;0;0;0;0;0;0;0;0;0;0;0;0;0;0;0;0;0;0;0;0;0;0;0" keyTimes="0;0.00625;0.05;0.06375;0.075;0.0834375;0.09328125;0.103125;0.134375;0.148125;0.159375;0.1678125;0.17765625;0.1875;0.19975;0.2102;0.21875;0.2271875;0.23703125;0.246875;0.275;0.3125;0.34375;0.384375;0.41875;0.5609375;0.5890625;0.6171875;0.99375;1" dur="6.4s" begin="0s" repeatCount="indefinite" calcMode="discrete" fill="freeze"/><g data-part="request-performance" data-kind="periscope" data-stage="-2" data-target-x="92" data-target-y="112"><rect x="152" y="96" width="16" height="80" fill="#F8F7EF"/><rect x="92" y="88" width="68" height="16" fill="#71B7F5"/><g transform="translate(72 80)"><rect x="8" y="0" width="24" height="32" fill="#71B7F5"/><rect x="0" y="8" width="40" height="16" fill="#71B7F5"/></g><rect x="84" y="88" width="16" height="16" fill="#F8F7EF"/><rect x="136" y="176" width="48" height="8" fill="#B6B6A5"/></g></g><g opacity="0" data-pose="swing-0"><animate attributeName="opacity" values="0;0;0;1;0;0;0;0;0;0;0;0;0;0;0;0;0;0;0;0;0;0;0;0;0;0;0;0;0;0" keyTimes="0;0.00625;0.05;0.06375;0.075;0.0834375;0.09328125;0.103125;0.134375;0.148125;0.159375;0.1678125;0.17765625;0.1875;0.19975;0.2102;0.21875;0.2271875;0.23703125;0.246875;0.275;0.3125;0.34375;0.384375;0.41875;0.5609375;0.5890625;0.6171875;0.99375;1" dur="6.4s" begin="0s" repeatCount="indefinite" calcMode="discrete" fill="freeze"/><g data-part="request-performance" data-kind="periscope" data-stage="-1" data-target-x="92" data-target-y="112"><rect x="152" y="96" width="16" height="80" fill="#F8F7EF"/><rect x="92" y="88" width="68" height="16" fill="#71B7F5"/><g transform="translate(72 80)"><rect x="8" y="0" width="24" height="32" fill="#71B7F5"/><rect x="0" y="8" width="40" height="16" fill="#71B7F5"/></g><rect x="84" y="88" width="16" height="16" fill="#F8F7EF"/><rect x="136" y="176" width="48" height="8" fill="#B6B6A5"/></g></g><g opacity="0" data-pose="knock-0"><animate attributeName="opacity" values="0;0;0;0;1;0;0;0;0;0;0;0;0;0;0;0;0;0;0;0;0;0;0;0;0;0;0;0;0;0" keyTimes="0;0.00625;0.05;0.06375;0.075;0.0834375;0.09328125;0.103125;0.134375;0.148125;0.159375;0.1678125;0.17765625;0.1875;0.19975;0.2102;0.21875;0.2271875;0.23703125;0.246875;0.275;0.3125;0.34375;0.384375;0.41875;0.5609375;0.5890625;0.6171875;0.99375;1" dur="6.4s" begin="0s" repeatCount="indefinite" calcMode="discrete" fill="freeze"/><g data-part="request-performance" data-kind="periscope" data-stage="0" data-target-x="92" data-target-y="112"><rect x="152" y="112" width="16" height="64" fill="#F8F7EF"/><rect x="92" y="104" width="68" height="16" fill="#71B7F5"/><g transform="translate(72 96)"><rect x="8" y="0" width="24" height="32" fill="#71B7F5"/><rect x="0" y="8" width="40" height="16" fill="#71B7F5"/></g><rect x="84" y="104" width="16" height="16" fill="#F8F7EF"/><rect x="136" y="176" width="48" height="8" fill="#B6B6A5"/></g></g><g opacity="0" data-pose="ripple-0"><animate attributeName="opacity" values="0;0;0;0;0;1;0;0;0;0;0;0;0;0;0;0;0;0;0;0;0;0;0;0;0;0;0;0;0;0" keyTimes="0;0.00625;0.05;0.06375;0.075;0.0834375;0.09328125;0.103125;0.134375;0.148125;0.159375;0.1678125;0.17765625;0.1875;0.19975;0.2102;0.21875;0.2271875;0.23703125;0.246875;0.275;0.3125;0.34375;0.384375;0.41875;0.5609375;0.5890625;0.6171875;0.99375;1" dur="6.4s" begin="0s" repeatCount="indefinite" calcMode="discrete" fill="freeze"/><g data-part="request-performance" data-kind="periscope" data-stage="1" data-target-x="92" data-target-y="112"><rect x="152" y="108" width="16" height="68" fill="#F8F7EF"/><rect x="92" y="100" width="68" height="16" fill="#71B7F5"/><g transform="translate(72 92)"><rect x="8" y="0" width="24" height="32" fill="#71B7F5"/><rect x="0" y="8" width="40" height="16" fill="#71B7F5"/></g><rect x="84" y="100" width="16" height="16" fill="#F8F7EF"/><rect x="136" y="176" width="48" height="8" fill="#B6B6A5"/></g></g><g opacity="0" data-pose="settle-0"><animate attributeName="opacity" values="0;0;0;0;0;0;1;0;0;0;0;0;0;0;0;0;0;0;0;0;0;0;0;0;0;0;0;0;0;0" keyTimes="0;0.00625;0.05;0.06375;0.075;0.0834375;0.09328125;0.103125;0.134375;0.148125;0.159375;0.1678125;0.17765625;0.1875;0.19975;0.2102;0.21875;0.2271875;0.23703125;0.246875;0.275;0.3125;0.34375;0.384375;0.41875;0.5609375;0.5890625;0.6171875;0.99375;1" dur="6.4s" begin="0s" repeatCount="indefinite" calcMode="discrete" fill="freeze"/><g data-part="request-performance" data-kind="periscope" data-stage="2" data-target-x="92" data-target-y="112" opacity=".55"><rect x="152" y="112" width="16" height="64" fill="#F8F7EF"/><rect x="92" y="104" width="68" height="16" fill="#71B7F5"/><g transform="translate(72 96)"><rect x="8" y="0" width="24" height="32" fill="#71B7F5"/><rect x="0" y="8" width="40" height="16" fill="#71B7F5"/></g><rect x="84" y="104" width="16" height="16" fill="#F8F7EF"/><rect x="136" y="176" width="48" height="8" fill="#B6B6A5"/></g></g><g opacity="0" data-pose="pause"><animate attributeName="opacity" values="0;0;0;0;0;0;0;1;0;0;0;0;0;1;0;0;0;0;0;1;0;0;0;0;0;0;0;0;0;0" keyTimes="0;0.00625;0.05;0.06375;0.075;0.0834375;0.09328125;0.103125;0.134375;0.148125;0.159375;0.1678125;0.17765625;0.1875;0.19975;0.2102;0.21875;0.2271875;0.23703125;0.246875;0.275;0.3125;0.34375;0.384375;0.41875;0.5609375;0.5890625;0.6171875;0.99375;1" dur="6.4s" begin="0s" repeatCount="indefinite" calcMode="discrete" fill="freeze"/></g><g opacity="0" data-pose="prepare-1"><animate attributeName="opacity" values="0;0;0;0;0;0;0;0;1;0;0;0;0;0;0;0;0;0;0;0;0;0;0;0;0;0;0;0;0;0" keyTimes="0;0.00625;0.05;0.06375;0.075;0.0834375;0.09328125;0.103125;0.134375;0.148125;0.159375;0.1678125;0.17765625;0.1875;0.19975;0.2102;0.21875;0.2271875;0.23703125;0.246875;0.275;0.3125;0.34375;0.384375;0.41875;0.5609375;0.5890625;0.6171875;0.99375;1" dur="6.4s" begin="0s" repeatCount="indefinite" calcMode="discrete" fill="freeze"/><g data-part="request-performance" data-kind="periscope" data-stage="-2" data-target-x="228" data-target-y="96"><rect x="152" y="89" width="16" height="87" fill="#F8F7EF"/><rect x="153" y="81" width="16" height="16" fill="#71B7F5"/><g transform="translate(133 73)"><rect x="8" y="0" width="24" height="32" fill="#71B7F5"/><rect x="0" y="8" width="40" height="16" fill="#71B7F5"/></g><rect x="145" y="81" width="16" height="16" fill="#F8F7EF"/><rect x="136" y="176" width="48" height="8" fill="#B6B6A5"/></g></g><g opacity="0" data-pose="swing-1"><animate attributeName="opacity" values="0;0;0;0;0;0;0;0;0;1;0;0;0;0;0;0;0;0;0;0;0;0;0;0;0;0;0;0;0;0" keyTimes="0;0.00625;0.05;0.06375;0.075;0.0834375;0.09328125;0.103125;0.134375;0.148125;0.159375;0.1678125;0.17765625;0.1875;0.19975;0.2102;0.21875;0.2271875;0.23703125;0.246875;0.275;0.3125;0.34375;0.384375;0.41875;0.5609375;0.5890625;0.6171875;0.99375;1" dur="6.4s" begin="0s" repeatCount="indefinite" calcMode="discrete" fill="freeze"/><g data-part="request-performance" data-kind="periscope" data-stage="-1" data-target-x="228" data-target-y="96"><rect x="152" y="83" width="16" height="93" fill="#F8F7EF"/><rect x="160" y="75" width="41" height="16" fill="#71B7F5"/><g transform="translate(181 67)"><rect x="8" y="0" width="24" height="32" fill="#71B7F5"/><rect x="0" y="8" width="40" height="16" fill="#71B7F5"/></g><rect x="193" y="75" width="16" height="16" fill="#F8F7EF"/><rect x="136" y="176" width="48" height="8" fill="#B6B6A5"/></g></g><g opacity="0" data-pose="knock-1"><animate attributeName="opacity" values="0;0;0;0;0;0;0;0;0;0;1;0;0;0;0;0;0;0;0;0;0;0;0;0;0;0;0;0;0;0" keyTimes="0;0.00625;0.05;0.06375;0.075;0.0834375;0.09328125;0.103125;0.134375;0.148125;0.159375;0.1678125;0.17765625;0.1875;0.19975;0.2102;0.21875;0.2271875;0.23703125;0.246875;0.275;0.3125;0.34375;0.384375;0.41875;0.5609375;0.5890625;0.6171875;0.99375;1" dur="6.4s" begin="0s" repeatCount="indefinite" calcMode="discrete" fill="freeze"/><g data-part="request-performance" data-kind="periscope" data-stage="0" data-target-x="228" data-target-y="96"><rect x="152" y="96" width="16" height="80" fill="#F8F7EF"/><rect x="160" y="88" width="68" height="16" fill="#71B7F5"/><g transform="translate(208 80)"><rect x="8" y="0" width="24" height="32" fill="#71B7F5"/><rect x="0" y="8" width="40" height="16" fill="#71B7F5"/></g><rect x="220" y="88" width="16" height="16" fill="#F8F7EF"/><rect x="136" y="176" width="48" height="8" fill="#B6B6A5"/></g></g><g opacity="0" data-pose="ripple-1"><animate attributeName="opacity" values="0;0;0;0;0;0;0;0;0;0;0;1;0;0;0;0;0;0;0;0;0;0;0;0;0;0;0;0;0;0" keyTimes="0;0.00625;0.05;0.06375;0.075;0.0834375;0.09328125;0.103125;0.134375;0.148125;0.159375;0.1678125;0.17765625;0.1875;0.19975;0.2102;0.21875;0.2271875;0.23703125;0.246875;0.275;0.3125;0.34375;0.384375;0.41875;0.5609375;0.5890625;0.6171875;0.99375;1" dur="6.4s" begin="0s" repeatCount="indefinite" calcMode="discrete" fill="freeze"/><g data-part="request-performance" data-kind="periscope" data-stage="1" data-target-x="228" data-target-y="96"><rect x="152" y="92" width="16" height="84" fill="#F8F7EF"/><rect x="160" y="84" width="68" height="16" fill="#71B7F5"/><g transform="translate(208 76)"><rect x="8" y="0" width="24" height="32" fill="#71B7F5"/><rect x="0" y="8" width="40" height="16" fill="#71B7F5"/></g><rect x="220" y="84" width="16" height="16" fill="#F8F7EF"/><rect x="136" y="176" width="48" height="8" fill="#B6B6A5"/></g></g><g opacity="0" data-pose="settle-1"><animate attributeName="opacity" values="0;0;0;0;0;0;0;0;0;0;0;0;1;0;0;0;0;0;0;0;0;0;0;0;0;0;0;0;0;0" keyTimes="0;0.00625;0.05;0.06375;0.075;0.0834375;0.09328125;0.103125;0.134375;0.148125;0.159375;0.1678125;0.17765625;0.1875;0.19975;0.2102;0.21875;0.2271875;0.23703125;0.246875;0.275;0.3125;0.34375;0.384375;0.41875;0.5609375;0.5890625;0.6171875;0.99375;1" dur="6.4s" begin="0s" repeatCount="indefinite" calcMode="discrete" fill="freeze"/><g data-part="request-performance" data-kind="periscope" data-stage="2" data-target-x="228" data-target-y="96" opacity=".55"><rect x="152" y="96" width="16" height="80" fill="#F8F7EF"/><rect x="160" y="88" width="68" height="16" fill="#71B7F5"/><g transform="translate(208 80)"><rect x="8" y="0" width="24" height="32" fill="#71B7F5"/><rect x="0" y="8" width="40" height="16" fill="#71B7F5"/></g><rect x="220" y="88" width="16" height="16" fill="#F8F7EF"/><rect x="136" y="176" width="48" height="8" fill="#B6B6A5"/></g></g><g opacity="0" data-pose="prepare-2"><animate attributeName="opacity" values="0;0;0;0;0;0;0;0;0;0;0;0;0;0;1;0;0;0;0;0;0;0;0;0;0;0;0;0;0;0" keyTimes="0;0.00625;0.05;0.06375;0.075;0.0834375;0.09328125;0.103125;0.134375;0.148125;0.159375;0.1678125;0.17765625;0.1875;0.19975;0.2102;0.21875;0.2271875;0.23703125;0.246875;0.275;0.3125;0.34375;0.384375;0.41875;0.5609375;0.5890625;0.6171875;0.99375;1" dur="6.4s" begin="0s" repeatCount="indefinite" calcMode="discrete" fill="freeze"/><g data-part="request-performance" data-kind="periscope" data-stage="-2" data-target-x="180" data-target-y="70"><rect x="152" y="68" width="16" height="108" fill="#F8F7EF"/><rect x="160" y="60" width="46" height="16" fill="#71B7F5"/><g transform="translate(186 52)"><rect x="8" y="0" width="24" height="32" fill="#71B7F5"/><rect x="0" y="8" width="40" height="16" fill="#71B7F5"/></g><rect x="198" y="60" width="16" height="16" fill="#F8F7EF"/><rect x="136" y="176" width="48" height="8" fill="#B6B6A5"/></g></g><g opacity="0" data-pose="swing-2"><animate attributeName="opacity" values="0;0;0;0;0;0;0;0;0;0;0;0;0;0;0;1;0;0;0;0;0;0;0;0;0;0;0;0;0;0" keyTimes="0;0.00625;0.05;0.06375;0.075;0.0834375;0.09328125;0.103125;0.134375;0.148125;0.159375;0.1678125;0.17765625;0.1875;0.19975;0.2102;0.21875;0.2271875;0.23703125;0.246875;0.275;0.3125;0.34375;0.384375;0.41875;0.5609375;0.5890625;0.6171875;0.99375;1" dur="6.4s" begin="0s" repeatCount="indefinite" calcMode="discrete" fill="freeze"/><g data-part="request-performance" data-kind="periscope" data-stage="-1" data-target-x="180" data-target-y="70"><rect x="152" y="59" width="16" height="117" fill="#F8F7EF"/><rect x="160" y="51" width="30" height="16" fill="#71B7F5"/><g transform="translate(170 43)"><rect x="8" y="0" width="24" height="32" fill="#71B7F5"/><rect x="0" y="8" width="40" height="16" fill="#71B7F5"/></g><rect x="182" y="51" width="16" height="16" fill="#F8F7EF"/><rect x="136" y="176" width="48" height="8" fill="#B6B6A5"/></g></g><g opacity="0" data-pose="knock-2"><animate attributeName="opacity" values="0;0;0;0;0;0;0;0;0;0;0;0;0;0;0;0;1;0;0;0;0;0;0;0;0;0;0;0;0;0" keyTimes="0;0.00625;0.05;0.06375;0.075;0.0834375;0.09328125;0.103125;0.134375;0.148125;0.159375;0.1678125;0.17765625;0.1875;0.19975;0.2102;0.21875;0.2271875;0.23703125;0.246875;0.275;0.3125;0.34375;0.384375;0.41875;0.5609375;0.5890625;0.6171875;0.99375;1" dur="6.4s" begin="0s" repeatCount="indefinite" calcMode="discrete" fill="freeze"/><g data-part="request-performance" data-kind="periscope" data-stage="0" data-target-x="180" data-target-y="70"><rect x="152" y="70" width="16" height="106" fill="#F8F7EF"/><rect x="160" y="62" width="20" height="16" fill="#71B7F5"/><g transform="translate(160 54)"><rect x="8" y="0" width="24" height="32" fill="#71B7F5"/><rect x="0" y="8" width="40" height="16" fill="#71B7F5"/></g><rect x="172" y="62" width="16" height="16" fill="#F8F7EF"/><rect x="136" y="176" width="48" height="8" fill="#B6B6A5"/></g></g><g opacity="0" data-pose="ripple-2"><animate attributeName="opacity" values="0;0;0;0;0;0;0;0;0;0;0;0;0;0;0;0;0;1;0;0;0;0;0;0;0;0;0;0;0;0" keyTimes="0;0.00625;0.05;0.06375;0.075;0.0834375;0.09328125;0.103125;0.134375;0.148125;0.159375;0.1678125;0.17765625;0.1875;0.19975;0.2102;0.21875;0.2271875;0.23703125;0.246875;0.275;0.3125;0.34375;0.384375;0.41875;0.5609375;0.5890625;0.6171875;0.99375;1" dur="6.4s" begin="0s" repeatCount="indefinite" calcMode="discrete" fill="freeze"/><g data-part="request-performance" data-kind="periscope" data-stage="1" data-target-x="180" data-target-y="70"><rect x="152" y="66" width="16" height="110" fill="#F8F7EF"/><rect x="160" y="58" width="20" height="16" fill="#71B7F5"/><g transform="translate(160 50)"><rect x="8" y="0" width="24" height="32" fill="#71B7F5"/><rect x="0" y="8" width="40" height="16" fill="#71B7F5"/></g><rect x="172" y="58" width="16" height="16" fill="#F8F7EF"/><rect x="136" y="176" width="48" height="8" fill="#B6B6A5"/></g></g><g opacity="0" data-pose="settle-2"><animate attributeName="opacity" values="0;0;0;0;0;0;0;0;0;0;0;0;0;0;0;0;0;0;1;0;0;0;0;0;0;0;0;0;0;0" keyTimes="0;0.00625;0.05;0.06375;0.075;0.0834375;0.09328125;0.103125;0.134375;0.148125;0.159375;0.1678125;0.17765625;0.1875;0.19975;0.2102;0.21875;0.2271875;0.23703125;0.246875;0.275;0.3125;0.34375;0.384375;0.41875;0.5609375;0.5890625;0.6171875;0.99375;1" dur="6.4s" begin="0s" repeatCount="indefinite" calcMode="discrete" fill="freeze"/><g data-part="request-performance" data-kind="periscope" data-stage="2" data-target-x="180" data-target-y="70" opacity=".55"><rect x="152" y="70" width="16" height="106" fill="#F8F7EF"/><rect x="160" y="62" width="20" height="16" fill="#71B7F5"/><g transform="translate(160 54)"><rect x="8" y="0" width="24" height="32" fill="#71B7F5"/><rect x="0" y="8" width="40" height="16" fill="#71B7F5"/></g><rect x="172" y="62" width="16" height="16" fill="#F8F7EF"/><rect x="136" y="176" width="48" height="8" fill="#B6B6A5"/></g></g><g opacity="0" data-pose="reveal"><animate attributeName="opacity" values="0;0;0;0;0;0;0;0;0;0;0;0;0;0;0;0;0;0;0;0;1;0;0;0;0;0;0;0;0;0" keyTimes="0;0.00625;0.05;0.06375;0.075;0.0834375;0.09328125;0.103125;0.134375;0.148125;0.159375;0.1678125;0.17765625;0.1875;0.19975;0.2102;0.21875;0.2271875;0.23703125;0.246875;0.275;0.3125;0.34375;0.384375;0.41875;0.5609375;0.5890625;0.6171875;0.99375;1" dur="6.4s" begin="0s" repeatCount="indefinite" calcMode="discrete" fill="freeze"/><g transform="translate(32 0) scale(0.8)" data-part="scaled-alert"><g transform="translate(0 0)"><g data-part="giant-bell"><rect x="16" y="19" width="288" height="205" fill="#352915"/><g transform="translate(64 38)"><path d="M75 0h50v12h28v18h18v70h13v16h16v20H0v-20h16v-16h13V30h18V12h28Z" fill="#F4BC50"/><rect x="42" y="40" width="15" height="59" fill="#F8F7EF"/><rect x="60" y="26" width="22" height="12" fill="#F8F7EF"/><rect x="88" y="-13" width="24" height="13" fill="#B6B6A5"/><rect x="87" y="136" width="34" height="17" fill="#B6B6A5"/><rect x="96" y="153" width="16" height="7" fill="#F8F7EF"/></g><rect x="20" y="64" width="9" height="18" fill="#F4BC50"/><rect x="290" y="64" width="9" height="18" fill="#F4BC50"/><rect x="30" y="96" width="9" height="18" fill="#F4BC50"/><rect x="280" y="96" width="9" height="18" fill="#F4BC50"/><rect x="40" y="128" width="9" height="18" fill="#F4BC50"/><rect x="270" y="128" width="9" height="18" fill="#F4BC50"/><rect x="23" y="30" width="8" height="34" fill="#71B7F5"/><rect x="285" y="53" width="8" height="20" fill="#71B7F5"/></g></g></g></g><g opacity="0" data-pose="swing-back"><animate attributeName="opacity" values="0;0;0;0;0;0;0;0;0;0;0;0;0;0;0;0;0;0;0;0;0;1;0;0;0;0;0;0;0;0" keyTimes="0;0.00625;0.05;0.06375;0.075;0.0834375;0.09328125;0.103125;0.134375;0.148125;0.159375;0.1678125;0.17765625;0.1875;0.19975;0.2102;0.21875;0.2271875;0.23703125;0.246875;0.275;0.3125;0.34375;0.384375;0.41875;0.5609375;0.5890625;0.6171875;0.99375;1" dur="6.4s" begin="0s" repeatCount="indefinite" calcMode="discrete" fill="freeze"/><g transform="translate(32 0) scale(0.8)" data-part="scaled-alert"><g transform="translate(0 0)"><g data-part="giant-bell"><rect x="16" y="19" width="288" height="205" fill="#352915"/><g transform="translate(56 38)"><path d="M75 0h50v12h28v18h18v70h13v16h16v20H0v-20h16v-16h13V30h18V12h28Z" fill="#F4BC50"/><rect x="42" y="40" width="15" height="59" fill="#F8F7EF"/><rect x="60" y="26" width="22" height="12" fill="#F8F7EF"/><rect x="88" y="-13" width="24" height="13" fill="#B6B6A5"/><rect x="79" y="136" width="34" height="17" fill="#B6B6A5"/><rect x="88" y="153" width="16" height="7" fill="#F8F7EF"/></g><rect x="23" y="30" width="8" height="34" fill="#71B7F5"/><rect x="285" y="53" width="8" height="20" fill="#71B7F5"/></g></g></g></g><g opacity="0" data-pose="ready"><animate attributeName="opacity" values="0;0;0;0;0;0;0;0;0;0;0;0;0;0;0;0;0;0;0;0;0;0;1;0;1;0;0;0;0;0" keyTimes="0;0.00625;0.05;0.06375;0.075;0.0834375;0.09328125;0.103125;0.134375;0.148125;0.159375;0.1678125;0.17765625;0.1875;0.19975;0.2102;0.21875;0.2271875;0.23703125;0.246875;0.275;0.3125;0.34375;0.384375;0.41875;0.5609375;0.5890625;0.6171875;0.99375;1" dur="6.4s" begin="0s" repeatCount="indefinite" calcMode="discrete" fill="freeze"/><g transform="translate(32 0) scale(0.8)" data-part="scaled-alert"><g transform="translate(0 0)"><g data-part="giant-bell"><rect x="16" y="19" width="288" height="205" fill="#352915"/><g transform="translate(60 38)"><path d="M75 0h50v12h28v18h18v70h13v16h16v20H0v-20h16v-16h13V30h18V12h28Z" fill="#F4BC50"/><rect x="42" y="40" width="15" height="59" fill="#F8F7EF"/><rect x="60" y="26" width="22" height="12" fill="#F8F7EF"/><rect x="88" y="-13" width="24" height="13" fill="#B6B6A5"/><rect x="83" y="136" width="34" height="17" fill="#B6B6A5"/><rect x="92" y="153" width="16" height="7" fill="#F8F7EF"/></g><rect x="23" y="30" width="8" height="34" fill="#71B7F5"/><rect x="285" y="53" width="8" height="20" fill="#71B7F5"/></g></g></g></g><g opacity="0" data-pose="swing-small"><animate attributeName="opacity" values="0;0;0;0;0;0;0;0;0;0;0;0;0;0;0;0;0;0;0;0;0;0;0;1;0;0;0;0;0;0" keyTimes="0;0.00625;0.05;0.06375;0.075;0.0834375;0.09328125;0.103125;0.134375;0.148125;0.159375;0.1678125;0.17765625;0.1875;0.19975;0.2102;0.21875;0.2271875;0.23703125;0.246875;0.275;0.3125;0.34375;0.384375;0.41875;0.5609375;0.5890625;0.6171875;0.99375;1" dur="6.4s" begin="0s" repeatCount="indefinite" calcMode="discrete" fill="freeze"/><g transform="translate(32 0) scale(0.8)" data-part="scaled-alert"><g transform="translate(0 0)"><g data-part="giant-bell"><rect x="16" y="19" width="288" height="205" fill="#352915"/><g transform="translate(62 38)"><path d="M75 0h50v12h28v18h18v70h13v16h16v20H0v-20h16v-16h13V30h18V12h28Z" fill="#F4BC50"/><rect x="42" y="40" width="15" height="59" fill="#F8F7EF"/><rect x="60" y="26" width="22" height="12" fill="#F8F7EF"/><rect x="88" y="-13" width="24" height="13" fill="#B6B6A5"/><rect x="85" y="136" width="34" height="17" fill="#B6B6A5"/><rect x="94" y="153" width="16" height="7" fill="#F8F7EF"/></g><rect x="23" y="30" width="8" height="34" fill="#71B7F5"/><rect x="285" y="53" width="8" height="20" fill="#71B7F5"/></g></g></g></g><g opacity="0" data-pose="retreat"><animate attributeName="opacity" values="0;0;0;0;0;0;0;0;0;0;0;0;0;0;0;0;0;0;0;0;0;0;0;0;0;1;0;0;0;0" keyTimes="0;0.00625;0.05;0.06375;0.075;0.0834375;0.09328125;0.103125;0.134375;0.148125;0.159375;0.1678125;0.17765625;0.1875;0.19975;0.2102;0.21875;0.2271875;0.23703125;0.246875;0.275;0.3125;0.34375;0.384375;0.41875;0.5609375;0.5890625;0.6171875;0.99375;1" dur="6.4s" begin="0s" repeatCount="indefinite" calcMode="discrete" fill="freeze"/><g transform="translate(32 0) scale(0.8)" data-part="scaled-alert"><g transform="translate(0 -48)"><g data-part="giant-bell"><rect x="16" y="19" width="288" height="205" fill="#352915"/><g transform="translate(60 38)"><path d="M75 0h50v12h28v18h18v70h13v16h16v20H0v-20h16v-16h13V30h18V12h28Z" fill="#F4BC50"/><rect x="42" y="40" width="15" height="59" fill="#F8F7EF"/><rect x="60" y="26" width="22" height="12" fill="#F8F7EF"/><rect x="88" y="-13" width="24" height="13" fill="#B6B6A5"/><rect x="83" y="136" width="34" height="17" fill="#B6B6A5"/><rect x="92" y="153" width="16" height="7" fill="#F8F7EF"/></g><rect x="23" y="30" width="8" height="34" fill="#71B7F5"/><rect x="285" y="53" width="8" height="20" fill="#71B7F5"/></g></g></g></g><g opacity="0" data-pose="leaving"><animate attributeName="opacity" values="0;0;0;0;0;0;0;0;0;0;0;0;0;0;0;0;0;0;0;0;0;0;0;0;0;0;1;0;0;0" keyTimes="0;0.00625;0.05;0.06375;0.075;0.0834375;0.09328125;0.103125;0.134375;0.148125;0.159375;0.1678125;0.17765625;0.1875;0.19975;0.2102;0.21875;0.2271875;0.23703125;0.246875;0.275;0.3125;0.34375;0.384375;0.41875;0.5609375;0.5890625;0.6171875;0.99375;1" dur="6.4s" begin="0s" repeatCount="indefinite" calcMode="discrete" fill="freeze"/><g transform="translate(32 0) scale(0.8)" data-part="scaled-alert"><g transform="translate(0 -168)"><g data-part="giant-bell"><rect x="16" y="19" width="288" height="205" fill="#352915"/><g transform="translate(60 38)"><path d="M75 0h50v12h28v18h18v70h13v16h16v20H0v-20h16v-16h13V30h18V12h28Z" fill="#F4BC50"/><rect x="42" y="40" width="15" height="59" fill="#F8F7EF"/><rect x="60" y="26" width="22" height="12" fill="#F8F7EF"/><rect x="88" y="-13" width="24" height="13" fill="#B6B6A5"/><rect x="83" y="136" width="34" height="17" fill="#B6B6A5"/><rect x="92" y="153" width="16" height="7" fill="#F8F7EF"/></g><rect x="23" y="30" width="8" height="34" fill="#71B7F5"/><rect x="285" y="53" width="8" height="20" fill="#71B7F5"/></g></g></g></g></g></g><g class="alert-still"><g transform="translate(32 0) scale(0.8)" data-part="scaled-alert"><g transform="translate(0 46)"><g transform="translate(0 24)"><g data-part="face"><g data-part="gaze"><g data-part="eyes"><g><g data-part="curious-eyes"><g opacity="1" data-frame="0"><path d="M75 82h10v1h1v10h-1v1H75v-1h-1V83h1Z" fill="#F8F7EF"/><path d="M91 82h10v1h1v10h-1v1H91v-1h-1V83h1Z" fill="#F8F7EF"/><path d="M75 98h10v1h1v10h-1v1H75v-1h-1V99h1Z" fill="#F8F7EF"/><path d="M91 98h10v1h1v10h-1v1H91v-1h-1V99h1Z" fill="#F8F7EF"/><path d="M202 53h27v1h1v27h-1v1H202v-1h-1V54h1Z" fill="#F8F7EF"/><path d="M235 53h27v1h1v27h-1v1H235v-1h-1V54h1Z" fill="#F8F7EF"/><path d="M202 86h27v1h1v27h-1v1H202v-1h-1V87h1Z" fill="#F8F7EF"/><path d="M235 86h27v1h1v27h-1v1H235v-1h-1V87h1Z" fill="#F8F7EF"/></g><g opacity="0" data-frame="1"><path d="M68 69h17v1h1v17h-1v1H68v-1h-1V70h1Z" fill="#F8F7EF"/><path d="M91 69h17v1h1v17h-1v1H91v-1h-1V70h1Z" fill="#F8F7EF"/><path d="M68 92h17v1h1v17h-1v1H68v-1h-1V93h1Z" fill="#F8F7EF"/><path d="M91 92h17v1h1v17h-1v1H91v-1h-1V93h1Z" fill="#F8F7EF"/><path d="M212 69h17v1h1v17h-1v1H212v-1h-1V70h1Z" fill="#F8F7EF"/><path d="M235 69h17v1h1v17h-1v1H235v-1h-1V70h1Z" fill="#F8F7EF"/><path d="M212 92h17v1h1v17h-1v1H212v-1h-1V93h1Z" fill="#F8F7EF"/><path d="M235 92h17v1h1v17h-1v1H235v-1h-1V93h1Z" fill="#F8F7EF"/></g><g opacity="0" data-frame="2"><path d="M58 53h27v1h1v27h-1v1H58v-1h-1V54h1Z" fill="#F8F7EF"/><path d="M91 53h27v1h1v27h-1v1H91v-1h-1V54h1Z" fill="#F8F7EF"/><path d="M58 86h27v1h1v27h-1v1H58v-1h-1V87h1Z" fill="#F8F7EF"/><path d="M91 86h27v1h1v27h-1v1H91v-1h-1V87h1Z" fill="#F8F7EF"/><path d="M219 82h10v1h1v10h-1v1H219v-1h-1V83h1Z" fill="#F8F7EF"/><path d="M235 82h10v1h1v10h-1v1H235v-1h-1V83h1Z" fill="#F8F7EF"/><path d="M219 98h10v1h1v10h-1v1H219v-1h-1V99h1Z" fill="#F8F7EF"/><path d="M235 98h10v1h1v10h-1v1H235v-1h-1V99h1Z" fill="#F8F7EF"/></g><g opacity="0" data-frame="3"><path d="M68 66h17v1h1v19h-1v1H68v-1h-1V67h1Z" fill="#F8F7EF"/><path d="M91 66h17v1h1v19h-1v1H91v-1h-1V67h1Z" fill="#F8F7EF"/><path d="M68 91h17v1h1v19h-1v1H68v-1h-1V92h1Z" fill="#F8F7EF"/><path d="M91 91h17v1h1v19h-1v1H91v-1h-1V92h1Z" fill="#F8F7EF"/><path d="M212 70h17v1h1v17h-1v1H212v-1h-1V71h1Z" fill="#F8F7EF"/><path d="M235 70h17v1h1v17h-1v1H235v-1h-1V71h1Z" fill="#F8F7EF"/><path d="M212 93h17v1h1v17h-1v1H212v-1h-1V94h1Z" fill="#F8F7EF"/><path d="M235 93h17v1h1v17h-1v1H235v-1h-1V94h1Z" fill="#F8F7EF"/></g></g></g><g opacity="0"><path d="M69 99h38v1h1v3h-1v1H69v-1h-1V100h1Z" fill="#F8F7EF"/><path d="M213 99h38v1h1v3h-1v1H213v-1h-1V100h1Z" fill="#F8F7EF"/></g></g></g><path d="M52 124h12v1h1v7h-1v1H52v-1h-1V125h1Z" fill="#F1787D"/><path d="M70 124h12v1h1v7h-1v1H70v-1h-1V125h1Z" fill="#F1787D"/><path d="M238 124h12v1h1v7h-1v1H238v-1h-1V125h1Z" fill="#F1787D"/><path d="M256 124h12v1h1v7h-1v1H256v-1h-1V125h1Z" fill="#F1787D"/><g data-part="mouth"><path d="M152 129h16v16h-16Zm4 4v8h8v-8Z" fill="#F8F7EF"/></g></g></g></g><rect x="16" y="10" width="288" height="105" fill="#352915"/><rect x="16" y="10" width="288" height="6" fill="#F4BC50"/><rect x="16" y="109" width="288" height="6" fill="#F4BC50"/><rect x="143" y="24" width="28" height="47" fill="#F4BC50"/><rect x="143" y="83" width="28" height="21" fill="#F4BC50"/><rect x="23" y="30" width="8" height="34" fill="#71B7F5"/><rect x="285" y="53" width="8" height="20" fill="#71B7F5"/></g></g></g><g data-part="reserved-text-zone" data-y="192" data-height="48"/></svg>
