<svg xmlns="http://www.w3.org/2000/svg" width="320" height="240" viewBox="0 0 320 240" id="boop-alert-happy-2" data-mood="happy" data-state="needs_you" data-variant="2" data-loop-seconds="7.2" data-text-top="192" role="img" aria-labelledby="boop-alert-happy-2-title boop-alert-happy-2-desc" shape-rendering="crispEdges" overflow="hidden"><title id="boop-alert-happy-2-title">Happy · Bouncy invitation</title><desc id="boop-alert-happy-2-desc">An invitation envelope hops across the glass and opens its flap. Boop uses friendly, bouncy gestures, with matching face recoil and material-specific contact sounds. Props and soft paws use large filled pixel surfaces, without cursor marks or detailed hands. The signature ding reveals a large request signal reduced to 80 percent size. The bottom 48 pixels remain clear for text. It reveals Boop again and stays visibly pending. No approval or completion is implied.</desc><defs><clipPath id="boop-alert-happy-2-art-area" clipPathUnits="userSpaceOnUse"><rect width="320" height="192"/></clipPath></defs><style>#boop-alert-happy-2 .alert-still{display:none}@media(prefers-reduced-motion:reduce){#boop-alert-happy-2 .alert-motion{display:none}#boop-alert-happy-2 .alert-still{display:inline}}</style><rect width="320" height="240" fill="#000000"/><g data-part="notification-stage" clip-path="url(#boop-alert-happy-2-art-area)"><g class="alert-motion"><g transform="translate(0 24)"><g data-part="face"><animateTransform attributeName="transform" type="translate" values="0 0;0 0;-1 -1;-2 -2;-2 2;1 -1;0 0;0 0;1 -1;2 -2;2 2;-1 -1;0 0;0 0;1 -1;2 -2;2 2;-1 -1;0 0;0 0;0 0;0 0;0 0;0 0;0 0;0 0;0 0;0 0;0 0" keyTimes="0;0.00555556;0.03888889;0.05111111;0.06111111;0.06861111;0.07736111;0.08611111;0.09888889;0.10866667;0.11666667;0.12416667;0.13291667;0.14166667;0.15444444;0.16422222;0.17222222;0.17972222;0.18847222;0.19722222;0.22222222;0.25555556;0.34027778;0.37638889;0.45138889;0.47638889;0.50138889;0.99444444;1" dur="7.2s" begin="0s" repeatCount="indefinite" calcMode="discrete" fill="freeze"/><g data-part="gaze"><g data-part="eyes"><g><animate attributeName="opacity" values="1;1;0;1;1;1" keyTimes="0;0.00555556;0.78;0.805;0.99444444;1" dur="7.2s" begin="0s" repeatCount="indefinite" calcMode="discrete" fill="freeze"/><g data-part="happy-eyes"><path d="M63 56h22v1h1v24h-1v1H63v-1h-1V57h1Z" fill="#F8F7EF"/><path d="M91 56h22v1h1v24h-1v1H91v-1h-1V57h1Z" fill="#F8F7EF"/><path d="M63 86h22v1h1v24h-1v1H63v-1h-1V87h1Z" fill="#F8F7EF"/><path d="M91 86h22v1h1v24h-1v1H91v-1h-1V87h1Z" fill="#F8F7EF"/><path d="M207 56h22v1h1v24h-1v1H207v-1h-1V57h1Z" fill="#F8F7EF"/><path d="M235 56h22v1h1v24h-1v1H235v-1h-1V57h1Z" fill="#F8F7EF"/><path d="M207 86h22v1h1v24h-1v1H207v-1h-1V87h1Z" fill="#F8F7EF"/><path d="M235 86h22v1h1v24h-1v1H235v-1h-1V87h1Z" fill="#F8F7EF"/><g transform="translate(77 69)"><path d="M9 0h6v6h3v3h6v6h-6v3h-3v6h-6v-6h-3v-3H0V9h6v-3h3Z" fill="#000000"/></g><g transform="translate(221 69)"><path d="M9 0h6v6h3v3h6v6h-6v3h-3v6h-6v-6h-3v-3H0V9h6v-3h3Z" fill="#000000"/></g></g></g><g opacity="0"><animate attributeName="opacity" values="0;0;1;0;0;0" keyTimes="0;0.00555556;0.78;0.805;0.99444444;1" dur="7.2s" begin="0s" repeatCount="indefinite" calcMode="discrete" fill="freeze"/><path d="M69 99h38v1h1v3h-1v1H69v-1h-1V100h1Z" fill="#F8F7EF"/><path d="M213 99h38v1h1v3h-1v1H213v-1h-1V100h1Z" fill="#F8F7EF"/></g></g></g><path d="M52 124h12v1h1v7h-1v1H52v-1h-1V125h1Z" fill="#F1787D"/><path d="M70 124h12v1h1v7h-1v1H70v-1h-1V125h1Z" fill="#F1787D"/><path d="M238 124h12v1h1v7h-1v1H238v-1h-1V125h1Z" fill="#F1787D"/><path d="M256 124h12v1h1v7h-1v1H256v-1h-1V125h1Z" fill="#F1787D"/><g data-part="mouth"><path d="M150 129h4v4h12v-4h4v8h-20Z" fill="#F8F7EF"/></g></g></g><g data-part="pending-request"><rect x="20" y="12" width="280" height="32" fill="#352915"/><rect x="20" y="40" width="280" height="4" fill="#F4BC50"/><rect x="32" y="17" width="7" height="11" fill="#F4BC50"/><rect x="32" y="40" width="7" height="5" fill="#F4BC50"/><rect x="137" y="24" width="8" height="8" fill="#F4BC50"/><rect x="154" y="24" width="8" height="8" fill="#F4BC50"/><rect x="171" y="24" width="8" height="8" fill="#F4BC50"/><rect x="271" y="21" width="12" height="12" fill="#F4BC50"/></g><g data-part="request-alert"><g opacity="1" data-pose="home"><animate attributeName="opacity" values="1;1;0;0;0;0;0;0;0;0;0;0;0;0;0;0;0;0;0;0;0;0;0;0;0;0;1;1;1" keyTimes="0;0.00555556;0.03888889;0.05111111;0.06111111;0.06861111;0.07736111;0.08611111;0.09888889;0.10866667;0.11666667;0.12416667;0.13291667;0.14166667;0.15444444;0.16422222;0.17222222;0.17972222;0.18847222;0.19722222;0.22222222;0.25555556;0.34027778;0.37638889;0.45138889;0.47638889;0.50138889;0.99444444;1" dur="7.2s" begin="0s" repeatCount="indefinite" calcMode="discrete" fill="freeze"/></g><g opacity="0" data-pose="prepare-0"><animate attributeName="opacity" values="0;0;1;0;0;0;0;0;0;0;0;0;0;0;0;0;0;0;0;0;0;0;0;0;0;0;0;0;0" keyTimes="0;0.00555556;0.03888889;0.05111111;0.06111111;0.06861111;0.07736111;0.08611111;0.09888889;0.10866667;0.11666667;0.12416667;0.13291667;0.14166667;0.15444444;0.16422222;0.17222222;0.17972222;0.18847222;0.19722222;0.22222222;0.25555556;0.34027778;0.37638889;0.45138889;0.47638889;0.50138889;0.99444444;1" dur="7.2s" begin="0s" repeatCount="indefinite" calcMode="discrete" fill="freeze"/><g data-part="request-performance" data-kind="envelope" data-stage="-2" data-target-x="64" data-target-y="159"><g transform="translate(32 99)"><rect x="0" y="8" width="64" height="32" fill="#F8F7EF"/><path d="M0 8h16v8h16v8h16v-8h16v-8H0Z" fill="#71B7F5"/><rect x="24" y="24" width="16" height="8" fill="#F1787D"/></g></g></g><g opacity="0" data-pose="swing-0"><animate attributeName="opacity" values="0;0;0;1;0;0;0;0;0;0;0;0;0;0;0;0;0;0;0;0;0;0;0;0;0;0;0;0;0" keyTimes="0;0.00555556;0.03888889;0.05111111;0.06111111;0.06861111;0.07736111;0.08611111;0.09888889;0.10866667;0.11666667;0.12416667;0.13291667;0.14166667;0.15444444;0.16422222;0.17222222;0.17972222;0.18847222;0.19722222;0.22222222;0.25555556;0.34027778;0.37638889;0.45138889;0.47638889;0.50138889;0.99444444;1" dur="7.2s" begin="0s" repeatCount="indefinite" calcMode="discrete" fill="freeze"/><g data-part="request-performance" data-kind="envelope" data-stage="-1" data-target-x="64" data-target-y="159"><g transform="translate(32 111)"><rect x="0" y="8" width="64" height="32" fill="#F8F7EF"/><path d="M0 8h16v8h16v8h16v-8h16v-8H0Z" fill="#71B7F5"/><rect x="24" y="24" width="16" height="8" fill="#F1787D"/></g></g></g><g opacity="0" data-pose="knock-0"><animate attributeName="opacity" values="0;0;0;0;1;0;0;0;0;0;0;0;0;0;0;0;0;0;0;0;0;0;0;0;0;0;0;0;0" keyTimes="0;0.00555556;0.03888889;0.05111111;0.06111111;0.06861111;0.07736111;0.08611111;0.09888889;0.10866667;0.11666667;0.12416667;0.13291667;0.14166667;0.15444444;0.16422222;0.17222222;0.17972222;0.18847222;0.19722222;0.22222222;0.25555556;0.34027778;0.37638889;0.45138889;0.47638889;0.50138889;0.99444444;1" dur="7.2s" begin="0s" repeatCount="indefinite" calcMode="discrete" fill="freeze"/><g data-part="request-performance" data-kind="envelope" data-stage="0" data-target-x="64" data-target-y="159"><g transform="translate(32 139)"><rect x="0" y="8" width="64" height="32" fill="#F8F7EF"/><path d="M0 8h16v8h16v8h16v-8h16v-8H0Z" fill="#71B7F5"/><rect x="24" y="24" width="16" height="8" fill="#F1787D"/></g><g opacity=".16"><g data-part="tap-surface" data-cell="8" opacity="0.92"><g transform="translate(36 147)"><rect x="8" y="0" width="40" height="24" fill="#F8F7EF"/><rect x="0" y="8" width="56" height="8" fill="#F8F7EF"/></g></g></g></g></g><g opacity="0" data-pose="ripple-0"><animate attributeName="opacity" values="0;0;0;0;0;1;0;0;0;0;0;0;0;0;0;0;0;0;0;0;0;0;0;0;0;0;0;0;0" keyTimes="0;0.00555556;0.03888889;0.05111111;0.06111111;0.06861111;0.07736111;0.08611111;0.09888889;0.10866667;0.11666667;0.12416667;0.13291667;0.14166667;0.15444444;0.16422222;0.17222222;0.17972222;0.18847222;0.19722222;0.22222222;0.25555556;0.34027778;0.37638889;0.45138889;0.47638889;0.50138889;0.99444444;1" dur="7.2s" begin="0s" repeatCount="indefinite" calcMode="discrete" fill="freeze"/><g data-part="request-performance" data-kind="envelope" data-stage="1" data-target-x="64" data-target-y="159"><g transform="translate(32 127)"><rect x="0" y="8" width="64" height="32" fill="#F8F7EF"/><path d="M0 8h16v8h16v8h16v-8h16v-8H0Z" fill="#71B7F5"/><rect x="24" y="24" width="16" height="8" fill="#F1787D"/></g></g></g><g opacity="0" data-pose="settle-0"><animate attributeName="opacity" values="0;0;0;0;0;0;1;0;0;0;0;0;0;0;0;0;0;0;0;0;0;0;0;0;0;0;0;0;0" keyTimes="0;0.00555556;0.03888889;0.05111111;0.06111111;0.06861111;0.07736111;0.08611111;0.09888889;0.10866667;0.11666667;0.12416667;0.13291667;0.14166667;0.15444444;0.16422222;0.17222222;0.17972222;0.18847222;0.19722222;0.22222222;0.25555556;0.34027778;0.37638889;0.45138889;0.47638889;0.50138889;0.99444444;1" dur="7.2s" begin="0s" repeatCount="indefinite" calcMode="discrete" fill="freeze"/><g data-part="request-performance" data-kind="envelope" data-stage="2" data-target-x="64" data-target-y="159" opacity=".55"><g transform="translate(32 139)"><rect x="0" y="8" width="64" height="32" fill="#F8F7EF"/><path d="M0 8h16v8h16v8h16v-8h16v-8H0Z" fill="#71B7F5"/><rect x="24" y="24" width="16" height="8" fill="#F1787D"/></g></g></g><g opacity="0" data-pose="pause"><animate attributeName="opacity" values="0;0;0;0;0;0;0;1;0;0;0;0;0;1;0;0;0;0;0;1;0;0;0;0;0;0;0;0;0" keyTimes="0;0.00555556;0.03888889;0.05111111;0.06111111;0.06861111;0.07736111;0.08611111;0.09888889;0.10866667;0.11666667;0.12416667;0.13291667;0.14166667;0.15444444;0.16422222;0.17222222;0.17972222;0.18847222;0.19722222;0.22222222;0.25555556;0.34027778;0.37638889;0.45138889;0.47638889;0.50138889;0.99444444;1" dur="7.2s" begin="0s" repeatCount="indefinite" calcMode="discrete" fill="freeze"/></g><g opacity="0" data-pose="prepare-1"><animate attributeName="opacity" values="0;0;0;0;0;0;0;0;1;0;0;0;0;0;0;0;0;0;0;0;0;0;0;0;0;0;0;0;0" keyTimes="0;0.00555556;0.03888889;0.05111111;0.06111111;0.06861111;0.07736111;0.08611111;0.09888889;0.10866667;0.11666667;0.12416667;0.13291667;0.14166667;0.15444444;0.16422222;0.17222222;0.17972222;0.18847222;0.19722222;0.22222222;0.25555556;0.34027778;0.37638889;0.45138889;0.47638889;0.50138889;0.99444444;1" dur="7.2s" begin="0s" repeatCount="indefinite" calcMode="discrete" fill="freeze"/><g data-part="request-performance" data-kind="envelope" data-stage="-2" data-target-x="160" data-target-y="151"><g transform="translate(75 95)"><rect x="0" y="8" width="64" height="32" fill="#F8F7EF"/><path d="M0 8h16v8h16v8h16v-8h16v-8H0Z" fill="#71B7F5"/><rect x="24" y="24" width="16" height="8" fill="#F1787D"/></g></g></g><g opacity="0" data-pose="swing-1"><animate attributeName="opacity" values="0;0;0;0;0;0;0;0;0;1;0;0;0;0;0;0;0;0;0;0;0;0;0;0;0;0;0;0;0" keyTimes="0;0.00555556;0.03888889;0.05111111;0.06111111;0.06861111;0.07736111;0.08611111;0.09888889;0.10866667;0.11666667;0.12416667;0.13291667;0.14166667;0.15444444;0.16422222;0.17222222;0.17972222;0.18847222;0.19722222;0.22222222;0.25555556;0.34027778;0.37638889;0.45138889;0.47638889;0.50138889;0.99444444;1" dur="7.2s" begin="0s" repeatCount="indefinite" calcMode="discrete" fill="freeze"/><g data-part="request-performance" data-kind="envelope" data-stage="-1" data-target-x="160" data-target-y="151"><g transform="translate(109 105)"><rect x="0" y="8" width="64" height="32" fill="#F8F7EF"/><path d="M0 8h16v8h16v8h16v-8h16v-8H0Z" fill="#71B7F5"/><rect x="24" y="24" width="16" height="8" fill="#F1787D"/></g></g></g><g opacity="0" data-pose="knock-1"><animate attributeName="opacity" values="0;0;0;0;0;0;0;0;0;0;1;0;0;0;0;0;0;0;0;0;0;0;0;0;0;0;0;0;0" keyTimes="0;0.00555556;0.03888889;0.05111111;0.06111111;0.06861111;0.07736111;0.08611111;0.09888889;0.10866667;0.11666667;0.12416667;0.13291667;0.14166667;0.15444444;0.16422222;0.17222222;0.17972222;0.18847222;0.19722222;0.22222222;0.25555556;0.34027778;0.37638889;0.45138889;0.47638889;0.50138889;0.99444444;1" dur="7.2s" begin="0s" repeatCount="indefinite" calcMode="discrete" fill="freeze"/><g data-part="request-performance" data-kind="envelope" data-stage="0" data-target-x="160" data-target-y="151"><g transform="translate(128 131)"><rect x="0" y="8" width="64" height="32" fill="#F8F7EF"/><path d="M0 8h16v8h16v8h16v-8h16v-8H0Z" fill="#71B7F5"/><rect x="24" y="24" width="16" height="8" fill="#F1787D"/></g><g opacity=".16"><g data-part="tap-surface" data-cell="8" opacity="0.92"><g transform="translate(132 139)"><rect x="8" y="0" width="40" height="24" fill="#F8F7EF"/><rect x="0" y="8" width="56" height="8" fill="#F8F7EF"/></g></g></g></g></g><g opacity="0" data-pose="ripple-1"><animate attributeName="opacity" values="0;0;0;0;0;0;0;0;0;0;0;1;0;0;0;0;0;0;0;0;0;0;0;0;0;0;0;0;0" keyTimes="0;0.00555556;0.03888889;0.05111111;0.06111111;0.06861111;0.07736111;0.08611111;0.09888889;0.10866667;0.11666667;0.12416667;0.13291667;0.14166667;0.15444444;0.16422222;0.17222222;0.17972222;0.18847222;0.19722222;0.22222222;0.25555556;0.34027778;0.37638889;0.45138889;0.47638889;0.50138889;0.99444444;1" dur="7.2s" begin="0s" repeatCount="indefinite" calcMode="discrete" fill="freeze"/><g data-part="request-performance" data-kind="envelope" data-stage="1" data-target-x="160" data-target-y="151"><g transform="translate(128 119)"><rect x="0" y="8" width="64" height="32" fill="#F8F7EF"/><path d="M0 8h16v8h16v8h16v-8h16v-8H0Z" fill="#71B7F5"/><rect x="24" y="24" width="16" height="8" fill="#F1787D"/></g></g></g><g opacity="0" data-pose="settle-1"><animate attributeName="opacity" values="0;0;0;0;0;0;0;0;0;0;0;0;1;0;0;0;0;0;0;0;0;0;0;0;0;0;0;0;0" keyTimes="0;0.00555556;0.03888889;0.05111111;0.06111111;0.06861111;0.07736111;0.08611111;0.09888889;0.10866667;0.11666667;0.12416667;0.13291667;0.14166667;0.15444444;0.16422222;0.17222222;0.17972222;0.18847222;0.19722222;0.22222222;0.25555556;0.34027778;0.37638889;0.45138889;0.47638889;0.50138889;0.99444444;1" dur="7.2s" begin="0s" repeatCount="indefinite" calcMode="discrete" fill="freeze"/><g data-part="request-performance" data-kind="envelope" data-stage="2" data-target-x="160" data-target-y="151" opacity=".55"><g transform="translate(128 131)"><rect x="0" y="8" width="64" height="32" fill="#F8F7EF"/><path d="M0 8h16v8h16v8h16v-8h16v-8H0Z" fill="#71B7F5"/><rect x="24" y="24" width="16" height="8" fill="#F1787D"/></g></g></g><g opacity="0" data-pose="prepare-2"><animate attributeName="opacity" values="0;0;0;0;0;0;0;0;0;0;0;0;0;0;1;0;0;0;0;0;0;0;0;0;0;0;0;0;0" keyTimes="0;0.00555556;0.03888889;0.05111111;0.06111111;0.06861111;0.07736111;0.08611111;0.09888889;0.10866667;0.11666667;0.12416667;0.13291667;0.14166667;0.15444444;0.16422222;0.17222222;0.17972222;0.18847222;0.19722222;0.22222222;0.25555556;0.34027778;0.37638889;0.45138889;0.47638889;0.50138889;0.99444444;1" dur="7.2s" begin="0s" repeatCount="indefinite" calcMode="discrete" fill="freeze"/><g data-part="request-performance" data-kind="envelope" data-stage="-2" data-target-x="256" data-target-y="159"><g transform="translate(171 95)"><rect x="0" y="8" width="64" height="32" fill="#F8F7EF"/><path d="M0 8h16v8h16v8h16v-8h16v-8H0Z" fill="#71B7F5"/><rect x="24" y="24" width="16" height="8" fill="#F1787D"/></g></g></g><g opacity="0" data-pose="swing-2"><animate attributeName="opacity" values="0;0;0;0;0;0;0;0;0;0;0;0;0;0;0;1;0;0;0;0;0;0;0;0;0;0;0;0;0" keyTimes="0;0.00555556;0.03888889;0.05111111;0.06111111;0.06861111;0.07736111;0.08611111;0.09888889;0.10866667;0.11666667;0.12416667;0.13291667;0.14166667;0.15444444;0.16422222;0.17222222;0.17972222;0.18847222;0.19722222;0.22222222;0.25555556;0.34027778;0.37638889;0.45138889;0.47638889;0.50138889;0.99444444;1" dur="7.2s" begin="0s" repeatCount="indefinite" calcMode="discrete" fill="freeze"/><g data-part="request-performance" data-kind="envelope" data-stage="-1" data-target-x="256" data-target-y="159"><g transform="translate(205 109)"><rect x="0" y="8" width="64" height="32" fill="#F8F7EF"/><path d="M0 8h16v8h16v8h16v-8h16v-8H0Z" fill="#71B7F5"/><rect x="24" y="24" width="16" height="8" fill="#F1787D"/></g></g></g><g opacity="0" data-pose="knock-2"><animate attributeName="opacity" values="0;0;0;0;0;0;0;0;0;0;0;0;0;0;0;0;1;0;0;0;0;0;0;0;0;0;0;0;0" keyTimes="0;0.00555556;0.03888889;0.05111111;0.06111111;0.06861111;0.07736111;0.08611111;0.09888889;0.10866667;0.11666667;0.12416667;0.13291667;0.14166667;0.15444444;0.16422222;0.17222222;0.17972222;0.18847222;0.19722222;0.22222222;0.25555556;0.34027778;0.37638889;0.45138889;0.47638889;0.50138889;0.99444444;1" dur="7.2s" begin="0s" repeatCount="indefinite" calcMode="discrete" fill="freeze"/><g data-part="request-performance" data-kind="envelope" data-stage="0" data-target-x="256" data-target-y="159"><g transform="translate(224 139)"><rect x="0" y="8" width="64" height="32" fill="#F8F7EF"/><path d="M0 8h16v8h16v8h16v-8h16v-8H0Z" fill="#71B7F5"/><rect x="24" y="24" width="16" height="8" fill="#F1787D"/></g><g opacity=".16"><g data-part="tap-surface" data-cell="8" opacity="0.92"><g transform="translate(228 147)"><rect x="8" y="0" width="40" height="24" fill="#F8F7EF"/><rect x="0" y="8" width="56" height="8" fill="#F8F7EF"/></g></g></g></g></g><g opacity="0" data-pose="ripple-2"><animate attributeName="opacity" values="0;0;0;0;0;0;0;0;0;0;0;0;0;0;0;0;0;1;0;0;0;0;0;0;0;0;0;0;0" keyTimes="0;0.00555556;0.03888889;0.05111111;0.06111111;0.06861111;0.07736111;0.08611111;0.09888889;0.10866667;0.11666667;0.12416667;0.13291667;0.14166667;0.15444444;0.16422222;0.17222222;0.17972222;0.18847222;0.19722222;0.22222222;0.25555556;0.34027778;0.37638889;0.45138889;0.47638889;0.50138889;0.99444444;1" dur="7.2s" begin="0s" repeatCount="indefinite" calcMode="discrete" fill="freeze"/><g data-part="request-performance" data-kind="envelope" data-stage="1" data-target-x="256" data-target-y="159"><g transform="translate(224 127)"><rect x="0" y="8" width="64" height="32" fill="#F8F7EF"/><path d="M0 8h16V0h32v8h16v8H0Z" fill="#71B7F5"/><rect x="24" y="24" width="16" height="8" fill="#F1787D"/></g></g></g><g opacity="0" data-pose="settle-2"><animate attributeName="opacity" values="0;0;0;0;0;0;0;0;0;0;0;0;0;0;0;0;0;0;1;0;0;0;0;0;0;0;0;0;0" keyTimes="0;0.00555556;0.03888889;0.05111111;0.06111111;0.06861111;0.07736111;0.08611111;0.09888889;0.10866667;0.11666667;0.12416667;0.13291667;0.14166667;0.15444444;0.16422222;0.17222222;0.17972222;0.18847222;0.19722222;0.22222222;0.25555556;0.34027778;0.37638889;0.45138889;0.47638889;0.50138889;0.99444444;1" dur="7.2s" begin="0s" repeatCount="indefinite" calcMode="discrete" fill="freeze"/><g data-part="request-performance" data-kind="envelope" data-stage="2" data-target-x="256" data-target-y="159" opacity=".55"><g transform="translate(224 139)"><rect x="0" y="8" width="64" height="32" fill="#F8F7EF"/><path d="M0 8h16V0h32v8h16v8H0Z" fill="#71B7F5"/><rect x="24" y="24" width="16" height="8" fill="#F1787D"/></g></g></g><g opacity="0" data-pose="reveal"><animate attributeName="opacity" values="0;0;0;0;0;0;0;0;0;0;0;0;0;0;0;0;0;0;0;0;1;0;0;0;0;0;0;0;0" keyTimes="0;0.00555556;0.03888889;0.05111111;0.06111111;0.06861111;0.07736111;0.08611111;0.09888889;0.10866667;0.11666667;0.12416667;0.13291667;0.14166667;0.15444444;0.16422222;0.17222222;0.17972222;0.18847222;0.19722222;0.22222222;0.25555556;0.34027778;0.37638889;0.45138889;0.47638889;0.50138889;0.99444444;1" dur="7.2s" begin="0s" repeatCount="indefinite" calcMode="discrete" fill="freeze"/><g transform="translate(32 0) scale(0.8)" data-part="scaled-alert"><g transform="translate(0 0)"><g data-part="giant-warning-card"><rect x="16" y="18" width="288" height="204" fill="#584020"/><rect x="28" y="30" width="264" height="180" fill="#352915"/><rect x="16" y="18" width="288" height="12" fill="#F4BC50"/><rect x="16" y="210" width="288" height="12" fill="#F4BC50"/><rect x="16" y="18" width="12" height="204" fill="#F4BC50"/><rect x="292" y="18" width="12" height="204" fill="#F4BC50"/><rect x="139" y="47" width="42" height="88" fill="#F4BC50"/><rect x="139" y="147" width="42" height="32" fill="#F4BC50"/><rect x="31" y="96" width="15" height="48" fill="#F4BC50"/><rect x="274" y="96" width="15" height="48" fill="#F4BC50"/><g transform="translate(22 22)"><path d="M8.25 0h5.5v5.5h2.75v2.75h5.5v5.5h-5.5v2.75h-2.75v5.5h-5.5v-5.5h-2.75v-2.75H0V8.25h5.5v-2.75h2.75Z" fill="#F1787D"/></g><g transform="translate(276 20)"><path d="M8.25 0h5.5v5.5h2.75v2.75h5.5v5.5h-5.5v2.75h-2.75v5.5h-5.5v-5.5h-2.75v-2.75H0V8.25h5.5v-2.75h2.75Z" fill="#F4BC50"/></g></g></g></g></g><g opacity="0" data-pose="ready"><animate attributeName="opacity" values="0;0;0;0;0;0;0;0;0;0;0;0;0;0;0;0;0;0;0;0;0;1;0;1;0;0;0;0;0" keyTimes="0;0.00555556;0.03888889;0.05111111;0.06111111;0.06861111;0.07736111;0.08611111;0.09888889;0.10866667;0.11666667;0.12416667;0.13291667;0.14166667;0.15444444;0.16422222;0.17222222;0.17972222;0.18847222;0.19722222;0.22222222;0.25555556;0.34027778;0.37638889;0.45138889;0.47638889;0.50138889;0.99444444;1" dur="7.2s" begin="0s" repeatCount="indefinite" calcMode="discrete" fill="freeze"/><g transform="translate(32 0) scale(0.8)" data-part="scaled-alert"><g transform="translate(0 0)"><g data-part="giant-warning-card"><rect x="16" y="18" width="288" height="204" fill="#584020"/><rect x="23" y="25" width="274" height="190" fill="#352915"/><rect x="16" y="18" width="288" height="7" fill="#F4BC50"/><rect x="16" y="215" width="288" height="7" fill="#F4BC50"/><rect x="16" y="18" width="7" height="204" fill="#F4BC50"/><rect x="297" y="18" width="7" height="204" fill="#F4BC50"/><rect x="144" y="54" width="32" height="76" fill="#F4BC50"/><rect x="144" y="142" width="32" height="24" fill="#F4BC50"/><g transform="translate(22 22)"><path d="M8.25 0h5.5v5.5h2.75v2.75h5.5v5.5h-5.5v2.75h-2.75v5.5h-5.5v-5.5h-2.75v-2.75H0V8.25h5.5v-2.75h2.75Z" fill="#F1787D"/></g><g transform="translate(276 20)"><path d="M8.25 0h5.5v5.5h2.75v2.75h5.5v5.5h-5.5v2.75h-2.75v5.5h-5.5v-5.5h-2.75v-2.75H0V8.25h5.5v-2.75h2.75Z" fill="#F4BC50"/></g></g></g></g></g><g opacity="0" data-pose="pulse"><animate attributeName="opacity" values="0;0;0;0;0;0;0;0;0;0;0;0;0;0;0;0;0;0;0;0;0;0;1;0;0;0;0;0;0" keyTimes="0;0.00555556;0.03888889;0.05111111;0.06111111;0.06861111;0.07736111;0.08611111;0.09888889;0.10866667;0.11666667;0.12416667;0.13291667;0.14166667;0.15444444;0.16422222;0.17222222;0.17972222;0.18847222;0.19722222;0.22222222;0.25555556;0.34027778;0.37638889;0.45138889;0.47638889;0.50138889;0.99444444;1" dur="7.2s" begin="0s" repeatCount="indefinite" calcMode="discrete" fill="freeze"/><g transform="translate(32 0) scale(0.8)" data-part="scaled-alert"><g transform="translate(0 0)"><g data-part="giant-warning-card"><rect x="16" y="18" width="288" height="204" fill="#584020"/><rect x="28" y="30" width="264" height="180" fill="#352915"/><rect x="16" y="18" width="288" height="12" fill="#F4BC50"/><rect x="16" y="210" width="288" height="12" fill="#F4BC50"/><rect x="16" y="18" width="12" height="204" fill="#F4BC50"/><rect x="292" y="18" width="12" height="204" fill="#F4BC50"/><rect x="139" y="47" width="42" height="88" fill="#F4BC50"/><rect x="139" y="147" width="42" height="32" fill="#F4BC50"/><rect x="31" y="96" width="15" height="48" fill="#F4BC50"/><rect x="274" y="96" width="15" height="48" fill="#F4BC50"/><g transform="translate(22 22)"><path d="M8.25 0h5.5v5.5h2.75v2.75h5.5v5.5h-5.5v2.75h-2.75v5.5h-5.5v-5.5h-2.75v-2.75H0V8.25h5.5v-2.75h2.75Z" fill="#F1787D"/></g><g transform="translate(276 20)"><path d="M8.25 0h5.5v5.5h2.75v2.75h5.5v5.5h-5.5v2.75h-2.75v5.5h-5.5v-5.5h-2.75v-2.75H0V8.25h5.5v-2.75h2.75Z" fill="#F4BC50"/></g></g></g></g></g><g opacity="0" data-pose="retreat"><animate attributeName="opacity" values="0;0;0;0;0;0;0;0;0;0;0;0;0;0;0;0;0;0;0;0;0;0;0;0;1;0;0;0;0" keyTimes="0;0.00555556;0.03888889;0.05111111;0.06111111;0.06861111;0.07736111;0.08611111;0.09888889;0.10866667;0.11666667;0.12416667;0.13291667;0.14166667;0.15444444;0.16422222;0.17222222;0.17972222;0.18847222;0.19722222;0.22222222;0.25555556;0.34027778;0.37638889;0.45138889;0.47638889;0.50138889;0.99444444;1" dur="7.2s" begin="0s" repeatCount="indefinite" calcMode="discrete" fill="freeze"/><g transform="translate(32 0) scale(0.8)" data-part="scaled-alert"><g transform="translate(0 -48)"><g data-part="giant-warning-card"><rect x="16" y="18" width="288" height="204" fill="#584020"/><rect x="23" y="25" width="274" height="190" fill="#352915"/><rect x="16" y="18" width="288" height="7" fill="#F4BC50"/><rect x="16" y="215" width="288" height="7" fill="#F4BC50"/><rect x="16" y="18" width="7" height="204" fill="#F4BC50"/><rect x="297" y="18" width="7" height="204" fill="#F4BC50"/><rect x="144" y="54" width="32" height="76" fill="#F4BC50"/><rect x="144" y="142" width="32" height="24" fill="#F4BC50"/><g transform="translate(22 22)"><path d="M8.25 0h5.5v5.5h2.75v2.75h5.5v5.5h-5.5v2.75h-2.75v5.5h-5.5v-5.5h-2.75v-2.75H0V8.25h5.5v-2.75h2.75Z" fill="#F1787D"/></g><g transform="translate(276 20)"><path d="M8.25 0h5.5v5.5h2.75v2.75h5.5v5.5h-5.5v2.75h-2.75v5.5h-5.5v-5.5h-2.75v-2.75H0V8.25h5.5v-2.75h2.75Z" fill="#F4BC50"/></g></g></g></g></g><g opacity="0" data-pose="leaving"><animate attributeName="opacity" values="0;0;0;0;0;0;0;0;0;0;0;0;0;0;0;0;0;0;0;0;0;0;0;0;0;1;0;0;0" keyTimes="0;0.00555556;0.03888889;0.05111111;0.06111111;0.06861111;0.07736111;0.08611111;0.09888889;0.10866667;0.11666667;0.12416667;0.13291667;0.14166667;0.15444444;0.16422222;0.17222222;0.17972222;0.18847222;0.19722222;0.22222222;0.25555556;0.34027778;0.37638889;0.45138889;0.47638889;0.50138889;0.99444444;1" dur="7.2s" begin="0s" repeatCount="indefinite" calcMode="discrete" fill="freeze"/><g transform="translate(32 0) scale(0.8)" data-part="scaled-alert"><g transform="translate(0 -168)"><g data-part="giant-warning-card"><rect x="16" y="18" width="288" height="204" fill="#584020"/><rect x="23" y="25" width="274" height="190" fill="#352915"/><rect x="16" y="18" width="288" height="7" fill="#F4BC50"/><rect x="16" y="215" width="288" height="7" fill="#F4BC50"/><rect x="16" y="18" width="7" height="204" fill="#F4BC50"/><rect x="297" y="18" width="7" height="204" fill="#F4BC50"/><rect x="144" y="54" width="32" height="76" fill="#F4BC50"/><rect x="144" y="142" width="32" height="24" fill="#F4BC50"/><g transform="translate(22 22)"><path d="M8.25 0h5.5v5.5h2.75v2.75h5.5v5.5h-5.5v2.75h-2.75v5.5h-5.5v-5.5h-2.75v-2.75H0V8.25h5.5v-2.75h2.75Z" fill="#F1787D"/></g><g transform="translate(276 20)"><path d="M8.25 0h5.5v5.5h2.75v2.75h5.5v5.5h-5.5v2.75h-2.75v5.5h-5.5v-5.5h-2.75v-2.75H0V8.25h5.5v-2.75h2.75Z" fill="#F4BC50"/></g></g></g></g></g></g></g><g class="alert-still"><g transform="translate(32 0) scale(0.8)" data-part="scaled-alert"><g transform="translate(0 46)"><g transform="translate(0 24)"><g data-part="face"><g data-part="gaze"><g data-part="eyes"><g><g data-part="happy-eyes"><path d="M63 56h22v1h1v24h-1v1H63v-1h-1V57h1Z" fill="#F8F7EF"/><path d="M91 56h22v1h1v24h-1v1H91v-1h-1V57h1Z" fill="#F8F7EF"/><path d="M63 86h22v1h1v24h-1v1H63v-1h-1V87h1Z" fill="#F8F7EF"/><path d="M91 86h22v1h1v24h-1v1H91v-1h-1V87h1Z" fill="#F8F7EF"/><path d="M207 56h22v1h1v24h-1v1H207v-1h-1V57h1Z" fill="#F8F7EF"/><path d="M235 56h22v1h1v24h-1v1H235v-1h-1V57h1Z" fill="#F8F7EF"/><path d="M207 86h22v1h1v24h-1v1H207v-1h-1V87h1Z" fill="#F8F7EF"/><path d="M235 86h22v1h1v24h-1v1H235v-1h-1V87h1Z" fill="#F8F7EF"/><g transform="translate(77 69)"><path d="M9 0h6v6h3v3h6v6h-6v3h-3v6h-6v-6h-3v-3H0V9h6v-3h3Z" fill="#000000"/></g><g transform="translate(221 69)"><path d="M9 0h6v6h3v3h6v6h-6v3h-3v6h-6v-6h-3v-3H0V9h6v-3h3Z" fill="#000000"/></g></g></g><g opacity="0"><path d="M69 99h38v1h1v3h-1v1H69v-1h-1V100h1Z" fill="#F8F7EF"/><path d="M213 99h38v1h1v3h-1v1H213v-1h-1V100h1Z" fill="#F8F7EF"/></g></g></g><path d="M52 124h12v1h1v7h-1v1H52v-1h-1V125h1Z" fill="#F1787D"/><path d="M70 124h12v1h1v7h-1v1H70v-1h-1V125h1Z" fill="#F1787D"/><path d="M238 124h12v1h1v7h-1v1H238v-1h-1V125h1Z" fill="#F1787D"/><path d="M256 124h12v1h1v7h-1v1H256v-1h-1V125h1Z" fill="#F1787D"/><g data-part="mouth"><path d="M150 129h4v4h12v-4h4v8h-20Z" fill="#F8F7EF"/></g></g></g></g><rect x="16" y="10" width="288" height="105" fill="#352915"/><rect x="16" y="10" width="288" height="6" fill="#F4BC50"/><rect x="16" y="109" width="288" height="6" fill="#F4BC50"/><rect x="143" y="24" width="28" height="47" fill="#F4BC50"/><rect x="143" y="83" width="28" height="21" fill="#F4BC50"/><g transform="translate(22 22)"><path d="M8.25 0h5.5v5.5h2.75v2.75h5.5v5.5h-5.5v2.75h-2.75v5.5h-5.5v-5.5h-2.75v-2.75H0V8.25h5.5v-2.75h2.75Z" fill="#F1787D"/></g><g transform="translate(276 20)"><path d="M8.25 0h5.5v5.5h2.75v2.75h5.5v5.5h-5.5v2.75h-2.75v5.5h-5.5v-5.5h-2.75v-2.75H0V8.25h5.5v-2.75h2.75Z" fill="#F4BC50"/></g></g></g></g><g data-part="reserved-text-zone" data-y="192" data-height="48"/></svg>
