<svg xmlns="http://www.w3.org/2000/svg" width="320" height="240" viewBox="0 0 320 240" id="boop-curious-task_complete" data-mood="curious" data-state="task_complete" role="img" aria-labelledby="boop-curious-task_complete-title boop-curious-task_complete-desc" shape-rendering="crispEdges">
<title id="boop-curious-task_complete-title">Curious · Task Complete</title>
<desc id="boop-curious-task_complete-desc">Curious Boop in Task Complete. Four-block warm-white eyes, coral cheeks, pixel-stepped motion and a consistent state cue. Silent design review.</desc>
<style>#boop-curious-task_complete .boop-still{display:none}@media(prefers-reduced-motion:reduce){#boop-curious-task_complete:not([data-motion="on"]) .boop-motion{display:none}#boop-curious-task_complete:not([data-motion="on"]) .boop-still{display:inline}}</style>
<rect width="320" height="240" fill="#000000"/>
<g class="boop-motion"><g data-part="face"><animateTransform attributeName="transform" type="translate" values="0 0;2 0;2 -2;0 0;0 0" keyTimes="0;0.2;0.45;0.7;1" dur="2s" repeatCount="1" calcMode="discrete" fill="freeze"/><g><animate attributeName="opacity" values="1;0;1;1" keyTimes="0;0.76;0.79;1" dur="6.8s" repeatCount="indefinite" calcMode="discrete" fill="freeze"/><path d="M71 74h14v1h1v14h-1v1h-14v-1h-1V75h1Z" fill="#F8F7EF"/><path d="M91 74h14v1h1v14h-1v1h-14v-1h-1V75h1Z" fill="#F8F7EF"/><path d="M71 94h14v1h1v14h-1v1h-14v-1h-1V95h1Z" fill="#F8F7EF"/><path d="M91 94h14v1h1v14h-1v1h-14v-1h-1V95h1Z" fill="#F8F7EF"/><path d="M211 66h18v1h1v18h-1v1h-18v-1h-1V67h1Z" fill="#F8F7EF"/><path d="M235 66h18v1h1v18h-1v1h-18v-1h-1V67h1Z" fill="#F8F7EF"/><path d="M211 90h18v1h1v18h-1v1h-18v-1h-1V91h1Z" fill="#F8F7EF"/><path d="M235 90h18v1h1v18h-1v1h-18v-1h-1V91h1Z" fill="#F8F7EF"/></g><g opacity="0"><animate attributeName="opacity" values="0;1;0;0" keyTimes="0;0.76;0.79;1" dur="6.8s" repeatCount="indefinite" calcMode="discrete" fill="freeze"/><path d="M69 99h38v1h1v3h-1v1h-38v-1h-1V100h1Z" fill="#F8F7EF"/><path d="M213 99h38v1h1v3h-1v1h-38v-1h-1V100h1Z" fill="#F8F7EF"/></g><path d="M55 124h10v1h1v6h-1v1h-10v-1h-1V125h1Z" fill="#F1787D"/><path d="M71 124h10v1h1v6h-1v1h-10v-1h-1V125h1Z" fill="#F1787D"/><path d="M239 124h10v1h1v6h-1v1h-10v-1h-1V125h1Z" fill="#F1787D"/><path d="M255 124h10v1h1v6h-1v1h-10v-1h-1V125h1Z" fill="#F1787D"/><g data-part="mouth"><path d="M149 131h4v3h14v-3h4v7h-22Z" fill="#F8F7EF"/></g></g><g data-part="result-cue"><animateTransform attributeName="transform" type="translate" values="0 6;0 3;0 0;0 0" keyTimes="0;0.25;0.5;1" dur="1.4s" repeatCount="1" calcMode="discrete" fill="freeze"/><path d="M146 162h20l8 8v24h-28Z" fill="#F8F7EF"/><path d="M149 165h14v8h8v18h-22Z" fill="#000000"/><rect x="153" y="177" width="13" height="3" fill="#A9A99B"/><rect x="153" y="183" width="9" height="3" fill="#A9A99B"/><path d="M137 185h4v12h38v-12h4v16h-46Z" fill="#68685E"/></g></g>
<g class="boop-still"><g data-part="face"><g><path d="M71 74h14v1h1v14h-1v1h-14v-1h-1V75h1Z" fill="#F8F7EF"/><path d="M91 74h14v1h1v14h-1v1h-14v-1h-1V75h1Z" fill="#F8F7EF"/><path d="M71 94h14v1h1v14h-1v1h-14v-1h-1V95h1Z" fill="#F8F7EF"/><path d="M91 94h14v1h1v14h-1v1h-14v-1h-1V95h1Z" fill="#F8F7EF"/><path d="M211 66h18v1h1v18h-1v1h-18v-1h-1V67h1Z" fill="#F8F7EF"/><path d="M235 66h18v1h1v18h-1v1h-18v-1h-1V67h1Z" fill="#F8F7EF"/><path d="M211 90h18v1h1v18h-1v1h-18v-1h-1V91h1Z" fill="#F8F7EF"/><path d="M235 90h18v1h1v18h-1v1h-18v-1h-1V91h1Z" fill="#F8F7EF"/></g><g opacity="0"><path d="M69 99h38v1h1v3h-1v1h-38v-1h-1V100h1Z" fill="#F8F7EF"/><path d="M213 99h38v1h1v3h-1v1h-38v-1h-1V100h1Z" fill="#F8F7EF"/></g><path d="M55 124h10v1h1v6h-1v1h-10v-1h-1V125h1Z" fill="#F1787D"/><path d="M71 124h10v1h1v6h-1v1h-10v-1h-1V125h1Z" fill="#F1787D"/><path d="M239 124h10v1h1v6h-1v1h-10v-1h-1V125h1Z" fill="#F1787D"/><path d="M255 124h10v1h1v6h-1v1h-10v-1h-1V125h1Z" fill="#F1787D"/><g data-part="mouth"><path d="M149 131h4v3h14v-3h4v7h-22Z" fill="#F8F7EF"/></g></g><g data-part="result-cue"><path d="M146 162h20l8 8v24h-28Z" fill="#F8F7EF"/><path d="M149 165h14v8h8v18h-22Z" fill="#000000"/><rect x="153" y="177" width="13" height="3" fill="#A9A99B"/><rect x="153" y="183" width="9" height="3" fill="#A9A99B"/><path d="M137 185h4v12h38v-12h4v16h-46Z" fill="#68685E"/></g></g>
</svg>
