<svg xmlns="http://www.w3.org/2000/svg" width="320" height="240" viewBox="0 0 320 240" id="boop-determined-needs_you" data-mood="determined" data-state="needs_you" role="img" aria-labelledby="boop-determined-needs_you-title boop-determined-needs_you-desc" shape-rendering="crispEdges">
<title id="boop-determined-needs_you-title">Determined · Needs You</title>
<desc id="boop-determined-needs_you-desc">Determined Boop in Needs You. Four-block warm-white eyes, coral cheeks, pixel-stepped motion and a consistent state cue. Silent design review.</desc>
<style>#boop-determined-needs_you .boop-still{display:none}@media(prefers-reduced-motion:reduce){#boop-determined-needs_you:not([data-motion="on"]) .boop-motion{display:none}#boop-determined-needs_you:not([data-motion="on"]) .boop-still{display:inline}}</style>
<rect width="320" height="240" fill="#000000"/>
<g class="boop-motion"><g data-part="face"><animateTransform attributeName="transform" type="translate" values="0 0;0 -2;0 -1;0 0" keyTimes="0;0.2;0.55;1" dur="1.6s" repeatCount="1" calcMode="discrete" fill="freeze"/><g><animate attributeName="opacity" values="1;0;1;1" keyTimes="0;0.76;0.79;1" dur="6.8s" repeatCount="indefinite" calcMode="discrete" fill="freeze"/><path d="M69 72h16v1h1v14h-1v1h-16v-1h-1V73h1Z" fill="#F8F7EF"/><path d="M91 72h16v1h1v14h-1v1h-16v-1h-1V73h1Z" fill="#F8F7EF"/><path d="M69 92h16v1h1v14h-1v1h-16v-1h-1V93h1Z" fill="#F8F7EF"/><path d="M91 92h16v1h1v14h-1v1h-16v-1h-1V93h1Z" fill="#F8F7EF"/><path d="M213 74h16v1h1v13h-1v1h-16v-1h-1V75h1Z" fill="#F8F7EF"/><path d="M235 74h16v1h1v13h-1v1h-16v-1h-1V75h1Z" fill="#F8F7EF"/><path d="M213 93h16v1h1v13h-1v1h-16v-1h-1V94h1Z" fill="#F8F7EF"/><path d="M235 93h16v1h1v13h-1v1h-16v-1h-1V94h1Z" fill="#F8F7EF"/><rect x="68" y="72" width="8" height="2" fill="#000000"/><rect x="76" y="72" width="8" height="3" fill="#000000"/><rect x="84" y="72" width="8" height="4" fill="#000000"/><rect x="92" y="72" width="8" height="5" fill="#000000"/><rect x="100" y="72" width="8" height="6" fill="#000000"/><rect x="212" y="74" width="8" height="6" fill="#000000"/><rect x="220" y="74" width="8" height="5" fill="#000000"/><rect x="228" y="74" width="8" height="4" fill="#000000"/><rect x="236" y="74" width="8" height="3" fill="#000000"/><rect x="244" y="74" width="8" height="2" fill="#000000"/></g><g opacity="0"><animate attributeName="opacity" values="0;1;0;0" keyTimes="0;0.76;0.79;1" dur="6.8s" repeatCount="indefinite" calcMode="discrete" fill="freeze"/><path d="M69 99h38v1h1v3h-1v1h-38v-1h-1V100h1Z" fill="#F8F7EF"/><path d="M213 99h38v1h1v3h-1v1h-38v-1h-1V100h1Z" fill="#F8F7EF"/></g><path d="M55 124h10v1h1v6h-1v1h-10v-1h-1V125h1Z" fill="#F1787D"/><path d="M71 124h10v1h1v6h-1v1h-10v-1h-1V125h1Z" fill="#F1787D"/><path d="M239 124h10v1h1v6h-1v1h-10v-1h-1V125h1Z" fill="#F1787D"/><path d="M255 124h10v1h1v6h-1v1h-10v-1h-1V125h1Z" fill="#F1787D"/><g data-part="mouth"><path d="M150 132h20v1h1v3h-1v1h-20v-1h-1V133h1Z" fill="#F8F7EF"/></g></g><g data-part="request-cue"><animateTransform attributeName="transform" type="translate" values="0 4;0 2;0 0;0 0" keyTimes="0;0.3;0.6;1" dur="1s" repeatCount="1" calcMode="discrete" fill="freeze"/><path d="M141 164h38v24h-11v6h-6v-6h-21Z" fill="#F4BC50"/><rect x="144" y="167" width="32" height="18" fill="#000000"/><rect x="153" y="169" width="12" height="3" fill="#F4BC50"/><rect x="165" y="172" width="3" height="5" fill="#F4BC50"/><rect x="159" y="175" width="6" height="3" fill="#F4BC50"/><rect x="157" y="178" width="4" height="2" fill="#F4BC50"/><rect x="157" y="182" width="4" height="3" fill="#F4BC50"/></g></g>
<g class="boop-still"><g data-part="face"><g><path d="M69 72h16v1h1v14h-1v1h-16v-1h-1V73h1Z" fill="#F8F7EF"/><path d="M91 72h16v1h1v14h-1v1h-16v-1h-1V73h1Z" fill="#F8F7EF"/><path d="M69 92h16v1h1v14h-1v1h-16v-1h-1V93h1Z" fill="#F8F7EF"/><path d="M91 92h16v1h1v14h-1v1h-16v-1h-1V93h1Z" fill="#F8F7EF"/><path d="M213 74h16v1h1v13h-1v1h-16v-1h-1V75h1Z" fill="#F8F7EF"/><path d="M235 74h16v1h1v13h-1v1h-16v-1h-1V75h1Z" fill="#F8F7EF"/><path d="M213 93h16v1h1v13h-1v1h-16v-1h-1V94h1Z" fill="#F8F7EF"/><path d="M235 93h16v1h1v13h-1v1h-16v-1h-1V94h1Z" fill="#F8F7EF"/><rect x="68" y="72" width="8" height="2" fill="#000000"/><rect x="76" y="72" width="8" height="3" fill="#000000"/><rect x="84" y="72" width="8" height="4" fill="#000000"/><rect x="92" y="72" width="8" height="5" fill="#000000"/><rect x="100" y="72" width="8" height="6" fill="#000000"/><rect x="212" y="74" width="8" height="6" fill="#000000"/><rect x="220" y="74" width="8" height="5" fill="#000000"/><rect x="228" y="74" width="8" height="4" fill="#000000"/><rect x="236" y="74" width="8" height="3" fill="#000000"/><rect x="244" y="74" width="8" height="2" fill="#000000"/></g><g opacity="0"><path d="M69 99h38v1h1v3h-1v1h-38v-1h-1V100h1Z" fill="#F8F7EF"/><path d="M213 99h38v1h1v3h-1v1h-38v-1h-1V100h1Z" fill="#F8F7EF"/></g><path d="M55 124h10v1h1v6h-1v1h-10v-1h-1V125h1Z" fill="#F1787D"/><path d="M71 124h10v1h1v6h-1v1h-10v-1h-1V125h1Z" fill="#F1787D"/><path d="M239 124h10v1h1v6h-1v1h-10v-1h-1V125h1Z" fill="#F1787D"/><path d="M255 124h10v1h1v6h-1v1h-10v-1h-1V125h1Z" fill="#F1787D"/><g data-part="mouth"><path d="M150 132h20v1h1v3h-1v1h-20v-1h-1V133h1Z" fill="#F8F7EF"/></g></g><g data-part="request-cue"><path d="M141 164h38v24h-11v6h-6v-6h-21Z" fill="#F4BC50"/><rect x="144" y="167" width="32" height="18" fill="#000000"/><rect x="153" y="169" width="12" height="3" fill="#F4BC50"/><rect x="165" y="172" width="3" height="5" fill="#F4BC50"/><rect x="159" y="175" width="6" height="3" fill="#F4BC50"/><rect x="157" y="178" width="4" height="2" fill="#F4BC50"/><rect x="157" y="182" width="4" height="3" fill="#F4BC50"/></g></g>
</svg>
