<svg xmlns="http://www.w3.org/2000/svg" width="320" height="240" viewBox="0 0 320 240" id="boop-determined-working" data-mood="determined" data-state="working" role="img" aria-labelledby="boop-determined-working-title boop-determined-working-desc" shape-rendering="crispEdges">
<title id="boop-determined-working-title">Determined · Working</title>
<desc id="boop-determined-working-desc">Determined Boop in Working. Four-block warm-white eyes, coral cheeks, pixel-stepped motion and a consistent state cue. Silent design review.</desc>
<style>#boop-determined-working .boop-still{display:none}@media(prefers-reduced-motion:reduce){#boop-determined-working:not([data-motion="on"]) .boop-motion{display:none}#boop-determined-working:not([data-motion="on"]) .boop-still{display:inline}}</style>
<rect width="320" height="240" fill="#000000"/>
<g class="boop-motion"><g data-part="face"><animateTransform attributeName="transform" type="translate" values="0 0;0 1;0 0;0 1;0 0" keyTimes="0;0.22;0.44;0.66;1" dur="2.6s" repeatCount="indefinite" calcMode="discrete" fill="freeze"/><g><animate attributeName="opacity" values="1;0;1;1" keyTimes="0;0.76;0.79;1" dur="6.8s" repeatCount="indefinite" calcMode="discrete" fill="freeze"/><path d="M69 76h16v1h1v12h-1v1h-16v-1h-1V77h1Z" fill="#F8F7EF"/><path d="M91 76h16v1h1v12h-1v1h-16v-1h-1V77h1Z" fill="#F8F7EF"/><path d="M69 94h16v1h1v12h-1v1h-16v-1h-1V95h1Z" fill="#F8F7EF"/><path d="M91 94h16v1h1v12h-1v1h-16v-1h-1V95h1Z" fill="#F8F7EF"/><path d="M213 76h16v1h1v12h-1v1h-16v-1h-1V77h1Z" fill="#F8F7EF"/><path d="M235 76h16v1h1v12h-1v1h-16v-1h-1V77h1Z" fill="#F8F7EF"/><path d="M213 94h16v1h1v12h-1v1h-16v-1h-1V95h1Z" fill="#F8F7EF"/><path d="M235 94h16v1h1v12h-1v1h-16v-1h-1V95h1Z" fill="#F8F7EF"/><rect x="68" y="76" width="8" height="2" fill="#000000"/><rect x="76" y="76" width="8" height="4" fill="#000000"/><rect x="84" y="76" width="8" height="6" fill="#000000"/><rect x="92" y="76" width="8" height="8" fill="#000000"/><rect x="100" y="76" width="8" height="10" fill="#000000"/><rect x="212" y="76" width="8" height="10" fill="#000000"/><rect x="220" y="76" width="8" height="8" fill="#000000"/><rect x="228" y="76" width="8" height="6" fill="#000000"/><rect x="236" y="76" width="8" height="4" fill="#000000"/><rect x="244" y="76" width="8" height="2" fill="#000000"/></g><g opacity="0"><animate attributeName="opacity" values="0;1;0;0" keyTimes="0;0.76;0.79;1" dur="6.8s" repeatCount="indefinite" calcMode="discrete" fill="freeze"/><path d="M69 99h38v1h1v3h-1v1h-38v-1h-1V100h1Z" fill="#F8F7EF"/><path d="M213 99h38v1h1v3h-1v1h-38v-1h-1V100h1Z" fill="#F8F7EF"/></g><path d="M55 124h10v1h1v6h-1v1h-10v-1h-1V125h1Z" fill="#F1787D"/><path d="M71 124h10v1h1v6h-1v1h-10v-1h-1V125h1Z" fill="#F1787D"/><path d="M239 124h10v1h1v6h-1v1h-10v-1h-1V125h1Z" fill="#F1787D"/><path d="M255 124h10v1h1v6h-1v1h-10v-1h-1V125h1Z" fill="#F1787D"/><g data-part="mouth"><path d="M150 132h20v1h1v3h-1v1h-20v-1h-1V133h1Z" fill="#F8F7EF"/></g></g><g data-part="keyboard"><path d="M92 168h136v1h1v26h-1v1h-136v-1h-1V169h1Z" fill="#68685E"/><rect x="95" y="168" width="130" height="24" fill="#000000"/><g><rect x="98" y="172" width="10" height="5" fill="#68685E"/><g opacity="0"><animate attributeName="opacity" values="1;0;0;1" keyTimes="0;0.25;0.5;1" dur="1.1s" repeatCount="indefinite" calcMode="discrete" fill="freeze"/><rect x="98" y="173" width="10" height="4" fill="#F8F7EF"/></g></g><g><rect x="112" y="172" width="10" height="5" fill="#68685E"/></g><g><rect x="126" y="172" width="10" height="5" fill="#68685E"/></g><g><rect x="140" y="172" width="10" height="5" fill="#68685E"/><g opacity="0"><animate attributeName="opacity" values="0;1;0;0" keyTimes="0;0.25;0.5;1" dur="1.1s" repeatCount="indefinite" calcMode="discrete" fill="freeze"/><rect x="140" y="173" width="10" height="4" fill="#F8F7EF"/></g></g><g><rect x="154" y="172" width="10" height="5" fill="#68685E"/></g><g><rect x="168" y="172" width="10" height="5" fill="#68685E"/></g><g><rect x="182" y="172" width="10" height="5" fill="#68685E"/><g opacity="0"><animate attributeName="opacity" values="1;0;0;1" keyTimes="0;0.25;0.5;1" dur="1.1s" repeatCount="indefinite" calcMode="discrete" fill="freeze"/><rect x="182" y="173" width="10" height="4" fill="#F8F7EF"/></g></g><g><rect x="196" y="172" width="10" height="5" fill="#68685E"/></g><g><rect x="210" y="172" width="10" height="5" fill="#68685E"/></g><g><rect x="98" y="181" width="10" height="5" fill="#68685E"/><g opacity="0"><animate attributeName="opacity" values="1;0;0;1" keyTimes="0;0.25;0.5;1" dur="1.1s" repeatCount="indefinite" calcMode="discrete" fill="freeze"/><rect x="98" y="182" width="10" height="4" fill="#F8F7EF"/></g></g><g><rect x="112" y="181" width="10" height="5" fill="#68685E"/></g><g><rect x="126" y="181" width="10" height="5" fill="#68685E"/></g><g><rect x="140" y="181" width="10" height="5" fill="#68685E"/><g opacity="0"><animate attributeName="opacity" values="0;1;0;0" keyTimes="0;0.25;0.5;1" dur="1.1s" repeatCount="indefinite" calcMode="discrete" fill="freeze"/><rect x="140" y="182" width="10" height="4" fill="#F8F7EF"/></g></g><g><rect x="154" y="181" width="10" height="5" fill="#68685E"/></g><g><rect x="168" y="181" width="10" height="5" fill="#68685E"/></g><g><rect x="182" y="181" width="10" height="5" fill="#68685E"/><g opacity="0"><animate attributeName="opacity" values="1;0;0;1" keyTimes="0;0.25;0.5;1" dur="1.1s" repeatCount="indefinite" calcMode="discrete" fill="freeze"/><rect x="182" y="182" width="10" height="4" fill="#F8F7EF"/></g></g><g><rect x="196" y="181" width="10" height="5" fill="#68685E"/></g><g><rect x="210" y="181" width="10" height="5" fill="#68685E"/></g><rect x="134" y="191" width="52" height="3" fill="#A9A99B"/></g></g>
<g class="boop-still"><g data-part="face"><g><path d="M69 76h16v1h1v12h-1v1h-16v-1h-1V77h1Z" fill="#F8F7EF"/><path d="M91 76h16v1h1v12h-1v1h-16v-1h-1V77h1Z" fill="#F8F7EF"/><path d="M69 94h16v1h1v12h-1v1h-16v-1h-1V95h1Z" fill="#F8F7EF"/><path d="M91 94h16v1h1v12h-1v1h-16v-1h-1V95h1Z" fill="#F8F7EF"/><path d="M213 76h16v1h1v12h-1v1h-16v-1h-1V77h1Z" fill="#F8F7EF"/><path d="M235 76h16v1h1v12h-1v1h-16v-1h-1V77h1Z" fill="#F8F7EF"/><path d="M213 94h16v1h1v12h-1v1h-16v-1h-1V95h1Z" fill="#F8F7EF"/><path d="M235 94h16v1h1v12h-1v1h-16v-1h-1V95h1Z" fill="#F8F7EF"/><rect x="68" y="76" width="8" height="2" fill="#000000"/><rect x="76" y="76" width="8" height="4" fill="#000000"/><rect x="84" y="76" width="8" height="6" fill="#000000"/><rect x="92" y="76" width="8" height="8" fill="#000000"/><rect x="100" y="76" width="8" height="10" fill="#000000"/><rect x="212" y="76" width="8" height="10" fill="#000000"/><rect x="220" y="76" width="8" height="8" fill="#000000"/><rect x="228" y="76" width="8" height="6" fill="#000000"/><rect x="236" y="76" width="8" height="4" fill="#000000"/><rect x="244" y="76" width="8" height="2" fill="#000000"/></g><g opacity="0"><path d="M69 99h38v1h1v3h-1v1h-38v-1h-1V100h1Z" fill="#F8F7EF"/><path d="M213 99h38v1h1v3h-1v1h-38v-1h-1V100h1Z" fill="#F8F7EF"/></g><path d="M55 124h10v1h1v6h-1v1h-10v-1h-1V125h1Z" fill="#F1787D"/><path d="M71 124h10v1h1v6h-1v1h-10v-1h-1V125h1Z" fill="#F1787D"/><path d="M239 124h10v1h1v6h-1v1h-10v-1h-1V125h1Z" fill="#F1787D"/><path d="M255 124h10v1h1v6h-1v1h-10v-1h-1V125h1Z" fill="#F1787D"/><g data-part="mouth"><path d="M150 132h20v1h1v3h-1v1h-20v-1h-1V133h1Z" fill="#F8F7EF"/></g></g><g data-part="keyboard"><path d="M92 168h136v1h1v26h-1v1h-136v-1h-1V169h1Z" fill="#68685E"/><rect x="95" y="168" width="130" height="24" fill="#000000"/><g><rect x="98" y="172" width="10" height="5" fill="#68685E"/><g opacity="0"><rect x="98" y="173" width="10" height="4" fill="#F8F7EF"/></g></g><g><rect x="112" y="172" width="10" height="5" fill="#68685E"/></g><g><rect x="126" y="172" width="10" height="5" fill="#68685E"/></g><g><rect x="140" y="172" width="10" height="5" fill="#68685E"/><g opacity="0"><rect x="140" y="173" width="10" height="4" fill="#F8F7EF"/></g></g><g><rect x="154" y="172" width="10" height="5" fill="#68685E"/></g><g><rect x="168" y="172" width="10" height="5" fill="#68685E"/></g><g><rect x="182" y="172" width="10" height="5" fill="#68685E"/><g opacity="0"><rect x="182" y="173" width="10" height="4" fill="#F8F7EF"/></g></g><g><rect x="196" y="172" width="10" height="5" fill="#68685E"/></g><g><rect x="210" y="172" width="10" height="5" fill="#68685E"/></g><g><rect x="98" y="181" width="10" height="5" fill="#68685E"/><g opacity="0"><rect x="98" y="182" width="10" height="4" fill="#F8F7EF"/></g></g><g><rect x="112" y="181" width="10" height="5" fill="#68685E"/></g><g><rect x="126" y="181" width="10" height="5" fill="#68685E"/></g><g><rect x="140" y="181" width="10" height="5" fill="#68685E"/><g opacity="0"><rect x="140" y="182" width="10" height="4" fill="#F8F7EF"/></g></g><g><rect x="154" y="181" width="10" height="5" fill="#68685E"/></g><g><rect x="168" y="181" width="10" height="5" fill="#68685E"/></g><g><rect x="182" y="181" width="10" height="5" fill="#68685E"/><g opacity="0"><rect x="182" y="182" width="10" height="4" fill="#F8F7EF"/></g></g><g><rect x="196" y="181" width="10" height="5" fill="#68685E"/></g><g><rect x="210" y="181" width="10" height="5" fill="#68685E"/></g><rect x="134" y="191" width="52" height="3" fill="#A9A99B"/></g></g>
</svg>
