<svg xmlns="http://www.w3.org/2000/svg" width="320" height="240" viewBox="0 0 320 240" id="boop-sad-listening" data-mood="sad" data-state="listening" role="img" aria-labelledby="boop-sad-listening-title boop-sad-listening-desc" shape-rendering="crispEdges">
<title id="boop-sad-listening-title">Sad · Listening</title>
<desc id="boop-sad-listening-desc">Sad Boop in Listening. Four-block warm-white eyes, coral cheeks, pixel-stepped motion and a consistent state cue. Silent design review.</desc>
<style>#boop-sad-listening .boop-still{display:none}@media(prefers-reduced-motion:reduce){#boop-sad-listening:not([data-motion="on"]) .boop-motion{display:none}#boop-sad-listening:not([data-motion="on"]) .boop-still{display:inline}}</style>
<rect width="320" height="240" fill="#000000"/>
<g class="boop-motion"><g data-part="face"><animateTransform attributeName="transform" type="translate" values="0 0;0 0;0 -2;0 -2;0 0;0 0" keyTimes="0;0.2;0.25;0.4;0.45;1" dur="9s" repeatCount="indefinite" calcMode="discrete" fill="freeze"/><g><animate attributeName="opacity" values="1;0;1;1" keyTimes="0;0.76;0.79;1" dur="8s" repeatCount="indefinite" calcMode="discrete" fill="freeze"/><path d="M69 66h16v1h1v19h-1v1h-16v-1h-1V67h1Z" fill="#F8F7EF"/><path d="M91 66h16v1h1v19h-1v1h-16v-1h-1V67h1Z" fill="#F8F7EF"/><path d="M69 91h16v1h1v19h-1v1h-16v-1h-1V92h1Z" fill="#F8F7EF"/><path d="M91 91h16v1h1v19h-1v1h-16v-1h-1V92h1Z" fill="#F8F7EF"/><path d="M213 66h16v1h1v19h-1v1h-16v-1h-1V67h1Z" fill="#F8F7EF"/><path d="M235 66h16v1h1v19h-1v1h-16v-1h-1V67h1Z" fill="#F8F7EF"/><path d="M213 91h16v1h1v19h-1v1h-16v-1h-1V92h1Z" fill="#F8F7EF"/><path d="M235 91h16v1h1v19h-1v1h-16v-1h-1V92h1Z" fill="#F8F7EF"/><rect x="68" y="66" width="8" height="14" fill="#000000"/><rect x="76" y="66" width="8" height="11" fill="#000000"/><rect x="84" y="66" width="8" height="8" fill="#000000"/><rect x="92" y="66" width="8" height="5" fill="#000000"/><rect x="100" y="66" width="8" height="2" fill="#000000"/><rect x="212" y="66" width="8" height="2" fill="#000000"/><rect x="220" y="66" width="8" height="5" fill="#000000"/><rect x="228" y="66" width="8" height="8" fill="#000000"/><rect x="236" y="66" width="8" height="11" fill="#000000"/><rect x="244" y="66" width="8" height="14" fill="#000000"/></g><g opacity="0"><animate attributeName="opacity" values="0;1;0;0" keyTimes="0;0.76;0.79;1" dur="8s" repeatCount="indefinite" calcMode="discrete" fill="freeze"/><path d="M69 99h38v1h1v3h-1v1h-38v-1h-1V100h1Z" fill="#F8F7EF"/><path d="M213 99h38v1h1v3h-1v1h-38v-1h-1V100h1Z" fill="#F8F7EF"/></g><path d="M55 126h10v1h1v6h-1v1h-10v-1h-1V127h1Z" fill="#F1787D"/><path d="M71 126h10v1h1v6h-1v1h-10v-1h-1V127h1Z" fill="#F1787D"/><path d="M239 126h10v1h1v6h-1v1h-10v-1h-1V127h1Z" fill="#F1787D"/><path d="M255 126h10v1h1v6h-1v1h-10v-1h-1V127h1Z" fill="#F1787D"/><g data-part="mouth"><path d="M149 134h5v-4h12v4h5v4h-8v-4h-6v4h-8Z" fill="#F8F7EF"/></g><g data-part="tears"><rect x="74" y="110" width="8" height="3" fill="#7BB4EF"/><rect x="236" y="110" width="8" height="3" fill="#7BB4EF"/></g></g><g data-part="listening-cue"><path d="M143 168h7v3h-4v12h4v3h-7Z" fill="#7BB4EF"/><path d="M170 168h7v18h-7v-3h4v-12h-4Z" fill="#7BB4EF"/><rect x="157" y="174" width="6" height="6" fill="#7BB4EF"/></g></g>
<g class="boop-still"><g data-part="face"><g><path d="M69 66h16v1h1v19h-1v1h-16v-1h-1V67h1Z" fill="#F8F7EF"/><path d="M91 66h16v1h1v19h-1v1h-16v-1h-1V67h1Z" fill="#F8F7EF"/><path d="M69 91h16v1h1v19h-1v1h-16v-1h-1V92h1Z" fill="#F8F7EF"/><path d="M91 91h16v1h1v19h-1v1h-16v-1h-1V92h1Z" fill="#F8F7EF"/><path d="M213 66h16v1h1v19h-1v1h-16v-1h-1V67h1Z" fill="#F8F7EF"/><path d="M235 66h16v1h1v19h-1v1h-16v-1h-1V67h1Z" fill="#F8F7EF"/><path d="M213 91h16v1h1v19h-1v1h-16v-1h-1V92h1Z" fill="#F8F7EF"/><path d="M235 91h16v1h1v19h-1v1h-16v-1h-1V92h1Z" fill="#F8F7EF"/><rect x="68" y="66" width="8" height="14" fill="#000000"/><rect x="76" y="66" width="8" height="11" fill="#000000"/><rect x="84" y="66" width="8" height="8" fill="#000000"/><rect x="92" y="66" width="8" height="5" fill="#000000"/><rect x="100" y="66" width="8" height="2" fill="#000000"/><rect x="212" y="66" width="8" height="2" fill="#000000"/><rect x="220" y="66" width="8" height="5" fill="#000000"/><rect x="228" y="66" width="8" height="8" fill="#000000"/><rect x="236" y="66" width="8" height="11" fill="#000000"/><rect x="244" y="66" width="8" height="14" fill="#000000"/></g><g opacity="0"><path d="M69 99h38v1h1v3h-1v1h-38v-1h-1V100h1Z" fill="#F8F7EF"/><path d="M213 99h38v1h1v3h-1v1h-38v-1h-1V100h1Z" fill="#F8F7EF"/></g><path d="M55 126h10v1h1v6h-1v1h-10v-1h-1V127h1Z" fill="#F1787D"/><path d="M71 126h10v1h1v6h-1v1h-10v-1h-1V127h1Z" fill="#F1787D"/><path d="M239 126h10v1h1v6h-1v1h-10v-1h-1V127h1Z" fill="#F1787D"/><path d="M255 126h10v1h1v6h-1v1h-10v-1h-1V127h1Z" fill="#F1787D"/><g data-part="mouth"><path d="M149 134h5v-4h12v4h5v4h-8v-4h-6v4h-8Z" fill="#F8F7EF"/></g><g data-part="tears"><rect x="74" y="110" width="8" height="3" fill="#7BB4EF"/><rect x="236" y="110" width="8" height="3" fill="#7BB4EF"/></g></g><g data-part="listening-cue"><path d="M143 168h7v3h-4v12h4v3h-7Z" fill="#7BB4EF"/><path d="M170 168h7v18h-7v-3h4v-12h-4Z" fill="#7BB4EF"/><rect x="157" y="174" width="6" height="6" fill="#7BB4EF"/></g></g>
</svg>
